<svg width="24" height="24" viewBox="0 0 24 24" fill="none" xmlns="http://www.w3.org/2000/svg">
<path d="M12 24C18.6274 24 24 18.6274 24 12C24 5.37258 18.6274 0 12 0C5.37258 0 0 5.37258 0 12C0 18.6274 5.37258 24 12 24Z" fill="#3C3C3C"/>
<path d="M12.3872 9.91626L14.5779 12.107L12.3872 14.2976L10.1965 12.107L12.3872 9.91626Z" fill="#EFBA2F"/>
<path d="M6.19092 9.94604L8.38161 12.1367L6.19092 14.3274L4.00023 12.1367L6.19092 9.94604Z" fill="#EFBA2F"/>
<path d="M12.2617 4L14.4524 6.19069L9.41382 11.2293L7.22313 9.03859L12.2617 4Z" fill="#EFBA2F"/>
<path d="M15.1753 11.259L17.366 9.06834L12.3274 4.02975L10.1367 6.22044L15.1753 11.259Z" fill="#EFBA2F"/>
<path d="M12.3271 20.5535L10.1365 18.3628L15.175 13.3242L17.3657 15.5149L12.3271 20.5535Z" fill="#EFBA2F"/>
<path d="M9.41406 13.2944L7.22337 15.4851L12.262 20.5237L14.4527 18.333L9.41406 13.2944Z" fill="#EFBA2F"/>
<path d="M18.583 9.94604L20.7737 12.1367L18.583 14.3274L16.3923 12.1367L18.583 9.94604Z" fill="#EFBA2F"/>
</svg>
