<?xml version="1.0" encoding="UTF-8"?>
<svg width="50px" height="50px" viewBox="0 0 50 50" version="1.1" xmlns="http://www.w3.org/2000/svg" xmlns:xlink="http://www.w3.org/1999/xlink">
    <title>BSC</title>
    <g id="页面-1" stroke="none" stroke-width="1" fill="none" fill-rule="evenodd">
        <g id="Landing-page-2.0" transform="translate(-732.000000, -761.000000)">
            <g id="BSC" transform="translate(732.000000, 761.000000)">
                <rect id="矩形备份-10" opacity="0.1" x="0" y="0" width="50" height="50" rx="10"></rect>
                <g id="编组-19" transform="translate(9.000000, 9.000000)" fill="#EFBA2F" fill-rule="nonzero">
                    <polygon id="矩形" transform="translate(16.000000, 15.413919) rotate(45.000000) translate(-16.000000, -15.413919) " points="13.0695972 12.4835165 18.930403 12.4835165 18.930403 18.3443224 13.0695972 18.3443224"></polygon>
                    <polygon id="矩形备份" transform="translate(4.278388, 15.470297) rotate(45.000000) translate(-4.278388, -15.470297) " points="1.3479854 12.5398941 7.20879127 12.5398941 7.20879127 18.4007 1.3479854 18.4007"></polygon>
                    <polygon id="矩形备份-6" transform="translate(13.069597, 6.915751) rotate(45.000000) translate(-13.069597, -6.915751) " points="10.1391943 0.175824236 16.0000001 0.175824236 16.0000001 13.6556777 10.1391943 13.6556777"></polygon>
                    <polygon id="矩形备份-7" transform="translate(18.580985, 6.972129) scale(-1, 1) rotate(-135.000000) translate(-18.580985, -6.972129) " points="15.6505824 0.232201794 21.5113882 0.232201794 21.5113882 13.7120553 15.6505824 13.7120553"></polygon>
                    <polygon id="矩形备份-10" transform="translate(18.580986, 24.554546) rotate(-135.000000) translate(-18.580986, -24.554546) " points="15.6505826 17.8146194 21.5113885 17.8146194 21.5113885 31.2944729 15.6505826 31.2944729"></polygon>
                    <polygon id="矩形备份-11" transform="translate(13.069597, 24.498169) scale(-1, 1) rotate(45.000000) translate(-13.069597, -24.498169) " points="10.1391941 17.7582419 16 17.7582419 16 31.2380954 10.1391941 31.2380954"></polygon>
                    <polygon id="矩形备份-2" transform="translate(27.721612, 15.470297) rotate(45.000000) translate(-27.721612, -15.470297) " points="24.7912089 12.5398939 30.6520148 12.5398939 30.6520148 18.4006997 24.7912089 18.4006997"></polygon>
                </g>
            </g>
        </g>
    </g>
</svg>