<?xml version="1.0" encoding="UTF-8"?>
<svg width="50px" height="50px" viewBox="0 0 50 50" version="1.1" xmlns="http://www.w3.org/2000/svg" xmlns:xlink="http://www.w3.org/1999/xlink">
    <title>DOT</title>
    <g id="页面-1" stroke="none" stroke-width="1" fill="none" fill-rule="evenodd">
        <g id="Landing-page-2.0" transform="translate(-732.000000, -871.000000)">
            <g id="DOT" transform="translate(732.000000, 871.000000)">
                <rect id="矩形备份-19" x="0" y="0" width="50" height="50" rx="10"></rect>
                <g id="logo-polkadot" transform="translate(14.000000, 11.000000)" fill-rule="nonzero">
                    <path d="M10.5524655,0 C4.73354536,0.0218993716 0.0217804137,4.75941426 0,10.610135 C0,11.7820353 0.187637863,12.9462932 0.556089844,14.0580961 C0.830743753,14.8135292 1.64386837,15.2223134 2.40972241,14.9899774 C3.15292644,14.7060071 3.54754241,13.8891224 3.31005824,13.1262147 C2.99662704,12.2616075 2.8571121,11.3430168 2.89961102,10.4237587 C3.021655,6.28752121 6.39088894,2.9976143 10.5064543,2.996015 C14.6220196,2.99441569 17.9937818,6.28170308 18.1190055,10.4178445 C18.2442293,14.5539859 15.0775746,18.0413967 10.9695328,18.2915 C10.9695328,18.2915 9.49324688,18.3846881 8.75179386,18.4778763 C8.47990977,18.5164563 8.21029841,18.5697844 7.94413966,18.6376273 C7.90460561,18.6674399 7.84928517,18.6634869 7.81434168,18.6283525 C7.77939818,18.593218 7.77546668,18.5375952 7.80511723,18.4978451 L8.03682128,17.2398053 L9.42704573,10.9096683 C9.5934023,10.1248059 9.09546258,9.35295355 8.31486617,9.18568779 C7.53426975,9.01842203 6.76661268,9.51908302 6.60025604,10.3039454 C6.60025604,10.3039454 3.29019789,25.7598635 3.29019789,25.8996457 C3.19807824,26.2765375 3.26440798,26.6749397 3.4735816,27.0011196 C3.68275522,27.3272995 4.01630543,27.5524596 4.39575731,27.6236262 C4.77142144,27.7141206 5.16756024,27.6456927 5.49164698,27.4343255 C5.81573369,27.2229582 6.03938686,26.8871617 6.11036744,26.5053686 C6.15670825,26.3189923 6.5737756,24.2688533 6.5737756,24.2688533 C6.88843376,22.7232575 8.12754762,21.5384708 9.67861015,21.3001455 C9.99637574,21.2535515 11.3402594,21.1603633 11.3402594,21.1603633 C16.916586,20.642154 21.1176418,15.8319998 20.9081593,10.2052422 C20.6986769,4.57848474 16.1517181,0.0975859296 10.5524655,0 Z" id="形状" fill="#FFFFFF"></path>
                    <path d="M17.2085115,24.3259616 C16.7684386,24.2283687 16.3109565,24.3266889 15.9373452,24.5991554 C15.5637339,24.8716219 15.304814,25.295758 15.2179068,25.777666 C15.1233057,26.2596304 15.2109601,26.7629605 15.4609233,27.173119 C15.7108865,27.5832776 16.1018969,27.8653768 16.5449766,27.9552225 C16.9853031,28.0647899 17.4474436,27.971279 17.8228081,27.6966621 C18.1981727,27.4220452 18.4536687,26.9905328 18.5292619,26.5035181 C18.6838324,25.5100054 18.1053964,24.5563225 17.2085115,24.3259616 L17.2085115,24.3259616 Z" id="路径" fill="#E7137D"></path>
                </g>
            </g>
        </g>
    </g>
</svg>