<svg width="24" height="24" fill="none" xmlns="http://www.w3.org/2000/svg"><circle cx="12" cy="12" r="12" fill="#008778"/><path fill-rule="evenodd" clip-rule="evenodd" d="M11.505 9.827a.07.07 0 00.041-.064V3.856c0-.072-.095-.098-.131-.035l-4.6 7.99a.07.07 0 00.09.099l4.6-2.083zm.041 5.856a.07.07 0 01-.108.06L6.816 12.85a.07.07 0 01.007-.124l4.623-2.163a.07.07 0 01.1.064v5.056zm-.04 5.048c0 .07-.09.097-.13.04l-4.76-7.06c-.043-.065.032-.141.097-.1l4.76 3.072a.07.07 0 01.033.059v3.989zM11.9 9.827a.07.07 0 01-.041-.064V3.856c0-.072.095-.098.132-.035l4.599 7.99a.07.07 0 01-.09.099l-4.6-2.083zm-.041 5.856c0 .055.06.089.108.06l4.622-2.893a.07.07 0 00-.007-.124l-4.623-2.163a.07.07 0 00-.1.064v5.056zm0 5.052c0 .07.09.097.129.04l4.83-7.064c.043-.064-.032-.141-.097-.1l-4.83 3.073a.07.07 0 00-.032.06v3.991z" fill="#fff"/></svg>