<svg width="220" height="51" viewBox="0 0 220 51" fill="none" xmlns="http://www.w3.org/2000/svg">
<path fill-rule="evenodd" clip-rule="evenodd" d="M15.2654 14.5333H30.5437V22.4424L23.1496 30.0751H30.5437V32.7093H19.7435V29.8051L27.9095 21.3757V17.1675H15.2654V14.5333Z" fill="#181E3C"/>
<path fill-rule="evenodd" clip-rule="evenodd" d="M15.2654 18.748H26.0656V21.377L17.8996 30.0699V34.2898H30.5437V36.924H15.2654V29.0266L22.4465 21.3822H15.2654V18.748Z" fill="#181E3C" fill-opacity="0.24"/>
<path fill-rule="evenodd" clip-rule="evenodd" d="M45.0319 12.9736L22.9047 0.308716L0.777466 12.9736V38.335L22.9047 51L45.0319 38.335V31.9191H40.8172V35.8911L22.9047 46.1437L4.99218 35.8911V15.4175L22.9047 5.16498L40.8172 15.4175V19.8018H45.0319V12.9736Z" fill="#181E3C"/>
<path d="M72.1855 15.6982C72.2871 15.9691 72.2533 16.2061 72.084 16.4092C71.9316 16.5954 71.7708 16.7308 71.6016 16.8154C71.2969 16.9678 70.9245 17.0693 70.4844 17.1201C70.0612 17.1709 69.6803 17.264 69.3418 17.3994C69.1556 17.484 69.0117 17.5941 68.9102 17.7295C68.8086 17.848 68.6647 17.9326 68.4785 17.9834C67.8861 17.9834 67.2936 17.9749 66.7012 17.958C66.1257 17.9411 65.5247 17.958 64.8984 18.0088C64.7799 18.0257 64.6615 18.0596 64.543 18.1104C64.4245 18.1442 64.306 18.1611 64.1875 18.1611C64.0352 18.1611 63.8743 18.1357 63.7051 18.085C63.5527 18.0342 63.3919 18.0257 63.2227 18.0596C63.138 18.0765 63.0618 18.1188 62.9941 18.1865C62.9434 18.2373 62.8757 18.2965 62.791 18.3643C62.4863 18.5505 62.1478 18.7367 61.7754 18.9229C61.403 19.0921 61.056 19.2868 60.7344 19.5068C60.4466 19.71 60.2012 19.9723 59.998 20.2939C59.7949 20.5986 59.5833 20.9202 59.3633 21.2588C59.2956 21.3773 59.2194 21.4958 59.1348 21.6143C59.0671 21.7158 59.0163 21.8089 58.9824 21.8936C58.9486 21.9951 58.9316 22.1136 58.9316 22.249C58.9486 22.3675 58.9401 22.4945 58.9062 22.6299C58.8724 22.833 58.8301 23.0531 58.7793 23.29C58.7285 23.527 58.6608 23.7471 58.5762 23.9502C58.4915 24.1702 58.3984 24.3903 58.2969 24.6104C58.2122 24.8135 58.153 25.0166 58.1191 25.2197C58.0853 25.4567 58.0599 25.6937 58.043 25.9307C58.043 26.1507 58.0007 26.3877 57.916 26.6416C57.8652 26.8617 57.806 27.0817 57.7383 27.3018C57.6875 27.5049 57.6536 27.7249 57.6367 27.9619C57.6198 28.3512 57.6452 28.7321 57.7129 29.1045C57.7806 29.46 57.8145 29.8324 57.8145 30.2217C58.1022 30.5602 58.3646 30.8903 58.6016 31.2119C58.8555 31.5166 59.1855 31.7367 59.5918 31.8721C59.7441 31.9229 59.9134 31.9482 60.0996 31.9482C60.2858 31.9482 60.4805 31.9398 60.6836 31.9229C60.8867 31.889 61.0898 31.8636 61.293 31.8467C61.513 31.8128 61.7246 31.8044 61.9277 31.8213C62.0801 31.8382 62.1986 31.8721 62.2832 31.9229C62.3848 31.9567 62.4779 31.9906 62.5625 32.0244C62.6641 32.0583 62.7656 32.0921 62.8672 32.126C62.9857 32.1598 63.1211 32.1683 63.2734 32.1514C63.5612 32.1344 63.849 32.1175 64.1367 32.1006C64.4245 32.0837 64.7122 32.0583 65 32.0244C65.457 31.9906 65.8717 31.9059 66.2441 31.7705C66.6335 31.6351 67.0059 31.5081 67.3613 31.3896C67.446 31.3558 67.5306 31.3389 67.6152 31.3389C67.6999 31.3389 67.7845 31.3219 67.8691 31.2881C68.0046 31.2373 68.123 31.1781 68.2246 31.1104C68.3431 31.0426 68.4785 30.9749 68.6309 30.9072C68.7832 30.8226 68.9355 30.738 69.0879 30.6533C69.2572 30.5687 69.3841 30.5433 69.4688 30.5771C69.5872 30.611 69.6549 30.7295 69.6719 30.9326C69.7057 31.1188 69.7142 31.2373 69.6973 31.2881C69.6634 31.4066 69.5703 31.5081 69.418 31.5928C69.2656 31.6774 69.1133 31.7874 68.9609 31.9229C68.7917 32.0413 68.6478 32.1514 68.5293 32.2529C68.4108 32.3545 68.2923 32.4476 68.1738 32.5322C67.8861 32.7354 67.5814 32.9215 67.2598 33.0908C66.9551 33.2601 66.6758 33.4294 66.4219 33.5986C66.1849 33.734 65.9902 33.8779 65.8379 34.0303C65.6855 34.1657 65.4909 34.2757 65.2539 34.3604C65 34.4619 64.7122 34.5296 64.3906 34.5635C64.069 34.5804 63.7897 34.6312 63.5527 34.7158C63.3665 34.7835 63.2227 34.8766 63.1211 34.9951C63.0365 35.1305 62.8757 35.2321 62.6387 35.2998C62.1986 35.4521 61.7331 35.5452 61.2422 35.5791C60.7513 35.613 60.235 35.596 59.6934 35.5283C58.8809 35.4098 58.0768 35.2067 57.2812 34.9189C56.5026 34.6481 55.8086 34.3434 55.1992 34.0049C55.1146 33.7679 54.9622 33.5817 54.7422 33.4463C54.5221 33.3109 54.3444 33.1331 54.209 32.9131C54.0228 32.6761 53.862 32.4307 53.7266 32.1768C53.6081 31.9059 53.4049 31.6859 53.1172 31.5166C53.1849 31.1104 53.1257 30.7972 52.9395 30.5771C52.7533 30.3402 52.5671 30.1201 52.3809 29.917C52.1947 29.223 52.0677 28.4951 52 27.7334C51.9492 26.9717 52.0085 26.2184 52.1777 25.4736C52.2116 25.3382 52.2539 25.2197 52.3047 25.1182C52.3724 25.0166 52.4232 24.9066 52.457 24.7881C52.5078 24.6357 52.5417 24.4749 52.5586 24.3057C52.5755 24.1364 52.6009 23.984 52.6348 23.8486C52.7871 23.29 52.9902 22.7822 53.2441 22.3252C53.498 21.8512 53.7689 21.3857 54.0566 20.9287C54.1921 20.7256 54.3275 20.5394 54.4629 20.3701C54.6152 20.2008 54.7676 20.0146 54.9199 19.8115C54.9876 19.7269 55.0469 19.6423 55.0977 19.5576C55.1654 19.4561 55.2415 19.363 55.3262 19.2783C55.4616 19.1429 55.6139 19.0329 55.7832 18.9482C55.9525 18.8467 56.1048 18.7282 56.2402 18.5928C56.4264 18.3727 56.5618 18.1104 56.6465 17.8057C56.748 17.484 56.8919 17.2132 57.0781 16.9932C57.112 16.9424 57.1712 16.8831 57.2559 16.8154C57.3574 16.7477 57.459 16.68 57.5605 16.6123C57.679 16.5446 57.7891 16.4854 57.8906 16.4346C58.0091 16.3669 58.1022 16.3161 58.1699 16.2822C58.5254 16.113 58.8893 16.0114 59.2617 15.9775C59.651 15.9268 60.0658 15.8337 60.5059 15.6982C60.7598 15.6136 61.0221 15.529 61.293 15.4443C61.5638 15.3597 61.8177 15.3005 62.0547 15.2666C62.444 15.1989 62.8926 15.1566 63.4004 15.1396C63.9082 15.1227 64.3822 15.1566 64.8223 15.2412C64.89 15.2581 64.9492 15.2835 65 15.3174C65.0508 15.3343 65.1185 15.3512 65.2031 15.3682C65.3893 15.402 65.5671 15.402 65.7363 15.3682C65.9225 15.3343 66.0918 15.3343 66.2441 15.3682C66.3288 15.3851 66.4049 15.4189 66.4727 15.4697C66.5404 15.5036 66.625 15.529 66.7266 15.5459C66.8112 15.5798 66.9043 15.5967 67.0059 15.5967C67.1074 15.5798 67.209 15.5882 67.3105 15.6221C67.4121 15.6559 67.5221 15.6982 67.6406 15.749C67.7591 15.7829 67.8691 15.8167 67.9707 15.8506C68.2077 15.8844 68.4616 15.9014 68.7324 15.9014C69.0033 15.9014 69.2572 15.8929 69.4941 15.876C69.9512 15.8421 70.3997 15.7829 70.8398 15.6982C71.2799 15.6136 71.7285 15.6136 72.1855 15.6982Z" fill="#181E3C"/>
<path d="M75.4863 34.3857C75.3678 34.3688 75.1901 34.4111 74.9531 34.5127C74.7331 34.6143 74.5299 34.6989 74.3438 34.7666C74.1576 34.8174 73.9544 34.8766 73.7344 34.9443C73.5143 35.012 73.3027 35.0374 73.0996 35.0205C72.9642 35.0036 72.8372 34.9613 72.7188 34.8936C72.6003 34.8428 72.4902 34.8258 72.3887 34.8428C72.304 34.8428 72.2279 34.8766 72.1602 34.9443C72.0924 35.012 72.0078 35.0628 71.9062 35.0967C71.7201 35.1644 71.5 35.2152 71.2461 35.249C70.9922 35.2998 70.7467 35.3167 70.5098 35.2998C70.2728 35.2829 70.0781 35.2152 69.9258 35.0967C69.7904 34.9951 69.748 34.8258 69.7988 34.5889C69.8327 34.4365 69.8919 34.2842 69.9766 34.1318C70.0781 33.9626 70.1712 33.7764 70.2559 33.5732C70.3913 33.2178 70.4928 32.8454 70.5605 32.4561C70.6283 32.0498 70.7214 31.7282 70.8398 31.4912C70.9076 31.3558 71.0091 31.2288 71.1445 31.1104C71.2799 30.9919 71.3561 30.8649 71.373 30.7295C71.39 30.6279 71.373 30.5433 71.3223 30.4756C71.2715 30.4079 71.2461 30.3148 71.2461 30.1963C71.2461 30.1117 71.263 30.027 71.2969 29.9424C71.3477 29.8408 71.3815 29.7223 71.3984 29.5869C71.4154 29.4515 71.4154 29.333 71.3984 29.2314C71.3815 29.113 71.39 29.0114 71.4238 28.9268C71.4577 28.8252 71.5085 28.7321 71.5762 28.6475C71.6439 28.5459 71.7116 28.4528 71.7793 28.3682C71.8639 28.2666 71.9316 28.1566 71.9824 28.0381C72.0332 27.9196 72.0586 27.7842 72.0586 27.6318C72.0586 27.5472 72.084 27.4118 72.1348 27.2256C72.1855 27.0225 72.2025 26.8701 72.1855 26.7686C72.1348 26.4131 72.1348 26.1169 72.1855 25.8799C72.2533 25.6429 72.3294 25.4313 72.4141 25.2451C72.5156 25.042 72.6172 24.8389 72.7188 24.6357C72.8372 24.4326 72.9219 24.1872 72.9727 23.8994C73.0404 23.5439 73.0911 23.1715 73.125 22.7822C73.1589 22.3929 73.2181 22.0459 73.3027 21.7412C73.4043 21.4196 73.5482 21.1657 73.7344 20.9795C73.9375 20.7933 74.2422 20.7256 74.6484 20.7764C74.8177 20.9795 74.9277 21.1742 74.9785 21.3604C75.0462 21.5465 75.1393 21.7581 75.2578 21.9951C75.3086 22.1305 75.444 22.249 75.6641 22.3506C75.8841 22.4521 76.0365 22.5622 76.1211 22.6807C76.2057 22.7822 76.2988 22.8923 76.4004 23.0107C76.5189 23.1123 76.5951 23.2223 76.6289 23.3408C76.6797 23.5609 76.6882 23.8148 76.6543 24.1025C76.6374 24.3903 76.6204 24.6527 76.6035 24.8896C76.5866 25.0251 76.5697 25.1689 76.5527 25.3213C76.5358 25.4567 76.5104 25.5752 76.4766 25.6768C76.4427 25.7952 76.4004 25.8968 76.3496 25.9814C76.3158 26.0661 76.2904 26.1507 76.2734 26.2354C76.2396 26.4046 76.2142 26.557 76.1973 26.6924C76.1973 26.8109 76.1803 26.9294 76.1465 27.0479C76.0618 27.3018 75.9349 27.5218 75.7656 27.708C75.6133 27.8942 75.4948 28.1143 75.4102 28.3682C75.3594 28.4867 75.3171 28.6221 75.2832 28.7744C75.2663 28.9268 75.2409 29.0706 75.207 29.2061C75.1055 29.5785 74.9954 30.0016 74.877 30.4756C74.7585 30.9495 74.7161 31.4066 74.75 31.8467C74.8854 31.8128 75.0039 31.7874 75.1055 31.7705C75.207 31.7536 75.3001 31.7451 75.3848 31.7451C75.4694 31.7282 75.5625 31.7282 75.6641 31.7451C75.7826 31.762 75.9264 31.7874 76.0957 31.8213C76.3496 31.889 76.6289 31.9736 76.9336 32.0752C77.2383 32.1768 77.5514 32.2445 77.873 32.2783C78.11 32.2952 78.347 32.2952 78.584 32.2783C78.8379 32.2614 79.0833 32.2699 79.3203 32.3037C79.5573 32.3376 79.7773 32.3799 79.9805 32.4307C80.2005 32.4645 80.4036 32.4645 80.5898 32.4307C80.6745 32.3968 80.7337 32.3714 80.7676 32.3545C80.8184 32.3206 80.8776 32.2952 80.9453 32.2783C81.2161 32.2275 81.5293 32.236 81.8848 32.3037C82.2402 32.3545 82.5703 32.3968 82.875 32.4307C82.9258 32.4307 83.002 32.4307 83.1035 32.4307C83.2051 32.4137 83.3066 32.4137 83.4082 32.4307C83.5098 32.4307 83.5944 32.4561 83.6621 32.5068C83.7298 32.5576 83.7637 32.6338 83.7637 32.7354C83.7467 32.8877 83.6283 33.0062 83.4082 33.0908C83.2051 33.1755 83.0358 33.2347 82.9004 33.2686C82.6973 33.3193 82.5026 33.3447 82.3164 33.3447C82.1471 33.3447 81.9609 33.3701 81.7578 33.4209C81.5716 33.4717 81.4023 33.5394 81.25 33.624C81.1146 33.6917 80.9707 33.7425 80.8184 33.7764C80.7676 33.8102 80.7168 33.8271 80.666 33.8271C80.6152 33.8102 80.556 33.8102 80.4883 33.8271C80.3867 33.861 80.2682 33.9202 80.1328 34.0049C79.9974 34.0726 79.8874 34.1149 79.8027 34.1318C79.498 34.1995 79.168 34.1826 78.8125 34.0811C78.474 33.9795 78.127 33.9456 77.7715 33.9795C77.6361 33.9964 77.5007 34.0303 77.3652 34.0811C77.2298 34.1149 77.0944 34.1488 76.959 34.1826C76.8236 34.2165 76.6882 34.2419 76.5527 34.2588C76.4173 34.2757 76.2988 34.3011 76.1973 34.335L75.4863 34.3857Z" fill="#181E3C"/>
<path d="M87.623 23.0361C87.9447 22.8161 88.224 22.5622 88.4609 22.2744C88.6979 21.9867 88.9264 21.6989 89.1465 21.4111C89.2819 21.4281 89.4004 21.4027 89.502 21.335C89.6035 21.2673 89.7135 21.2165 89.832 21.1826C90.069 21.1149 90.306 21.1234 90.543 21.208C90.7969 21.2757 91.0423 21.3011 91.2793 21.2842C91.5671 21.2503 91.8379 21.1742 92.0918 21.0557C92.3626 20.9372 92.6758 20.8779 93.0312 20.8779C93.1497 20.8779 93.2598 20.9202 93.3613 21.0049C93.4629 21.0726 93.5645 21.1149 93.666 21.1318C93.8014 21.1657 93.9199 21.1488 94.0215 21.0811C94.14 21.0133 94.2669 20.9795 94.4023 20.9795C94.6393 20.9795 94.8171 21.0557 94.9355 21.208C95.071 21.3604 95.2233 21.5127 95.3926 21.665C95.4772 22.0544 95.4857 22.4352 95.418 22.8076C95.3503 23.18 95.3333 23.5609 95.3672 23.9502C95.401 24.2041 95.4349 24.4495 95.4688 24.6865C95.5195 24.9235 95.5449 25.1689 95.5449 25.4229C95.5618 25.6429 95.5449 25.8799 95.4941 26.1338C95.4603 26.3708 95.4518 26.6077 95.4688 26.8447C95.4857 26.9294 95.5111 27.014 95.5449 27.0986C95.5788 27.1833 95.5872 27.2679 95.5703 27.3525C95.5365 27.5387 95.4603 27.6826 95.3418 27.7842C95.2233 27.8857 95.1556 28.0212 95.1387 28.1904C95.1048 28.4443 95.1556 28.6813 95.291 28.9014C95.4434 29.1214 95.5365 29.3499 95.5703 29.5869C95.5872 29.6885 95.5788 29.7985 95.5449 29.917C95.5111 30.0355 95.4941 30.1455 95.4941 30.2471C95.4603 30.6195 95.4603 31.0342 95.4941 31.4912C95.5449 31.9482 95.5788 32.3714 95.5957 32.7607C95.5957 32.8962 95.6042 33.0316 95.6211 33.167C95.6549 33.3024 95.6549 33.4124 95.6211 33.4971C95.6042 33.5817 95.5618 33.6494 95.4941 33.7002C95.4434 33.751 95.401 33.8102 95.3672 33.8779C95.3503 33.9626 95.3503 34.0811 95.3672 34.2334C95.401 34.3857 95.418 34.5296 95.418 34.665C95.418 34.7835 95.4095 34.8936 95.3926 34.9951C95.3757 35.1136 95.3672 35.2152 95.3672 35.2998C95.3841 35.3506 95.401 35.4014 95.418 35.4521C95.4518 35.5199 95.4603 35.5791 95.4434 35.6299C95.4095 35.7822 95.291 35.943 95.0879 36.1123C94.9017 36.2985 94.707 36.3831 94.5039 36.3662C94.4023 36.3493 94.25 36.2646 94.0469 36.1123C93.8607 35.9769 93.7253 35.8669 93.6406 35.7822C93.4883 35.596 93.3952 35.359 93.3613 35.0713C93.3275 34.7835 93.2513 34.5212 93.1328 34.2842C93.082 34.1995 93.0059 34.1234 92.9043 34.0557C92.8197 33.971 92.7435 33.8779 92.6758 33.7764C92.5742 33.5902 92.5065 33.404 92.4727 33.2178C92.4388 33.0146 92.4134 32.82 92.3965 32.6338C92.3965 32.4307 92.388 32.236 92.3711 32.0498C92.3542 31.8467 92.3118 31.6436 92.2441 31.4404C92.2103 31.3727 92.1595 31.3135 92.0918 31.2627C92.0241 31.2119 91.9648 31.1442 91.9141 31.0596C91.8125 30.8903 91.7448 30.7464 91.7109 30.6279C91.6771 30.5094 91.5671 30.4163 91.3809 30.3486C90.7884 30.3486 90.1875 30.3317 89.5781 30.2979C88.9857 30.264 88.4017 30.2809 87.8262 30.3486C87.6908 30.3656 87.5723 30.3994 87.4707 30.4502C87.3691 30.484 87.2507 30.5094 87.1152 30.5264C87.0475 30.5264 86.9798 30.5179 86.9121 30.501C86.8444 30.484 86.7852 30.4756 86.7344 30.4756C86.4974 30.5094 86.2689 30.6195 86.0488 30.8057C85.8288 30.9749 85.6595 31.1442 85.541 31.3135C85.4733 31.415 85.431 31.542 85.4141 31.6943C85.4141 31.8298 85.3887 31.9652 85.3379 32.1006C85.2871 32.236 85.2025 32.363 85.084 32.4814C84.9655 32.583 84.9232 32.7184 84.957 32.8877C84.7708 33.0231 84.61 33.1924 84.4746 33.3955C84.3561 33.5986 84.2376 33.8102 84.1191 34.0303C84.0007 34.2334 83.8652 34.4281 83.7129 34.6143C83.5775 34.8005 83.4082 34.9359 83.2051 35.0205C83.1204 35.0544 83.0358 35.0967 82.9512 35.1475C82.8835 35.1982 82.8073 35.2236 82.7227 35.2236C82.638 35.2067 82.5872 35.1813 82.5703 35.1475C82.5703 35.1136 82.5195 35.0628 82.418 34.9951C82.3164 34.9274 82.1979 34.8512 82.0625 34.7666C81.9102 34.682 81.7663 34.5889 81.6309 34.4873C81.4954 34.3857 81.377 34.2842 81.2754 34.1826C81.1569 34.0641 81.0723 33.9541 81.0215 33.8525C80.8861 33.5648 80.8607 33.3617 80.9453 33.2432C81.0299 33.1077 81.14 32.9469 81.2754 32.7607C81.4616 32.4899 81.6732 32.1852 81.9102 31.8467C82.1471 31.5081 82.3587 31.1865 82.5449 30.8818C82.6465 30.7126 82.7311 30.5518 82.7988 30.3994C82.8835 30.2471 82.985 30.1032 83.1035 29.9678C83.2389 29.7816 83.4082 29.6292 83.6113 29.5107C83.8314 29.3923 83.9837 29.2399 84.0684 29.0537C84.1022 28.9691 84.1191 28.8844 84.1191 28.7998C84.1191 28.6982 84.1361 28.5967 84.1699 28.4951C84.3053 28.1566 84.5169 27.8519 84.8047 27.5811C85.0924 27.3102 85.3125 27.0055 85.4648 26.667C85.4987 26.5824 85.5156 26.5062 85.5156 26.4385C85.5326 26.3538 85.5579 26.2692 85.5918 26.1846C85.8626 25.5583 86.1927 24.9997 86.582 24.5088C86.9883 24.0179 87.3353 23.527 87.623 23.0361ZM91.1777 22.96C90.9746 23.1123 90.7969 23.29 90.6445 23.4932C90.5091 23.6794 90.3229 23.8232 90.0859 23.9248C90.0182 24.0771 89.9336 24.221 89.832 24.3564C89.7474 24.4919 89.6289 24.6019 89.4766 24.6865C89.4258 24.9574 89.3242 25.1943 89.1719 25.3975C89.0195 25.5837 88.8757 25.7699 88.7402 25.9561C88.6725 26.0238 88.6133 26.0999 88.5625 26.1846C88.5117 26.2523 88.4525 26.3285 88.3848 26.4131C88.3001 26.4977 88.2155 26.5654 88.1309 26.6162C88.0462 26.6501 87.9701 26.7008 87.9023 26.7686C87.8008 26.904 87.6908 27.0902 87.5723 27.3271C87.4538 27.5641 87.3438 27.7588 87.2422 27.9111C87.1576 27.9958 87.0729 28.0804 86.9883 28.165C86.9036 28.2497 86.8783 28.3597 86.9121 28.4951C86.9629 28.6305 87.0645 28.7236 87.2168 28.7744C87.3691 28.8083 87.5384 28.8337 87.7246 28.8506C87.9277 28.8506 88.1224 28.8421 88.3086 28.8252C88.4948 28.8083 88.6471 28.7998 88.7656 28.7998C89.0026 28.7998 89.2396 28.8083 89.4766 28.8252C89.7305 28.8252 89.9674 28.8167 90.1875 28.7998C90.4245 28.7829 90.6276 28.7406 90.7969 28.6729C90.9831 28.6051 91.127 28.5036 91.2285 28.3682C91.3978 27.8265 91.4401 27.2848 91.3555 26.7432C91.2708 26.1846 91.1947 25.6344 91.127 25.0928C91.0931 24.9404 91.0677 24.7712 91.0508 24.585C91.0339 24.3988 91.0339 24.2295 91.0508 24.0771C91.0677 23.9079 91.1185 23.7471 91.2031 23.5947C91.3047 23.4255 91.3216 23.2308 91.2539 23.0107L91.1777 22.96Z" fill="#181E3C"/>
<path d="M106.438 24.001C106.59 24.0687 106.691 24.1618 106.742 24.2803C106.793 24.3818 106.827 24.4919 106.844 24.6104C106.878 24.7288 106.911 24.8473 106.945 24.9658C106.979 25.0843 107.064 25.1774 107.199 25.2451C107.233 25.279 107.292 25.3213 107.377 25.3721C107.462 25.4229 107.555 25.4821 107.656 25.5498C107.758 25.6006 107.851 25.6514 107.936 25.7021C108.037 25.736 108.113 25.7445 108.164 25.7275C108.266 25.7106 108.359 25.6344 108.443 25.499C108.528 25.3636 108.596 25.2113 108.646 25.042C108.714 24.8558 108.757 24.6696 108.773 24.4834C108.79 24.2972 108.782 24.1449 108.748 24.0264C108.714 23.9756 108.621 23.9079 108.469 23.8232C108.316 23.7217 108.198 23.654 108.113 23.6201C107.876 23.5355 107.656 23.4339 107.453 23.3154C107.25 23.1969 107.03 23.0954 106.793 23.0107C106.691 22.9769 106.581 22.9261 106.463 22.8584C106.361 22.7738 106.26 22.7314 106.158 22.7314C106.09 22.7145 106.014 22.7314 105.93 22.7822C105.845 22.8161 105.76 22.833 105.676 22.833C105.574 22.8499 105.447 22.8584 105.295 22.8584C105.16 22.8415 105.016 22.8415 104.863 22.8584C104.711 22.8753 104.55 22.9007 104.381 22.9346C104.229 22.9684 104.093 23.0277 103.975 23.1123C103.755 23.2985 103.594 23.5101 103.492 23.7471C103.408 23.9671 103.289 24.221 103.137 24.5088C103.103 24.5765 103.044 24.6527 102.959 24.7373C102.874 24.8219 102.832 24.9235 102.832 25.042C102.832 25.1097 102.857 25.1689 102.908 25.2197C102.976 25.2705 103.027 25.3467 103.061 25.4482C103.111 25.5498 103.145 25.6598 103.162 25.7783C103.179 25.8799 103.204 25.973 103.238 26.0576C103.289 26.1084 103.34 26.1592 103.391 26.21C103.441 26.2438 103.484 26.2777 103.518 26.3115C103.568 26.3623 103.602 26.4215 103.619 26.4893C103.653 26.557 103.695 26.6077 103.746 26.6416C103.831 26.6924 103.975 26.7855 104.178 26.9209C104.398 27.0394 104.601 27.1156 104.787 27.1494C105.109 27.2171 105.396 27.3271 105.65 27.4795C105.921 27.6149 106.184 27.7334 106.438 27.835C106.624 27.9196 106.768 28.0212 106.869 28.1396C106.988 28.2412 107.089 28.3512 107.174 28.4697C107.258 28.5713 107.343 28.6729 107.428 28.7744C107.529 28.876 107.665 28.9521 107.834 29.0029C107.919 29.0368 107.995 29.0537 108.062 29.0537C108.13 29.0537 108.206 29.0706 108.291 29.1045C108.376 29.1383 108.46 29.1976 108.545 29.2822C108.63 29.3499 108.723 29.4261 108.824 29.5107C108.892 29.5785 108.951 29.6546 109.002 29.7393C109.07 29.807 109.12 29.8747 109.154 29.9424C109.205 30.0439 109.239 30.1794 109.256 30.3486C109.273 30.501 109.281 30.6279 109.281 30.7295C109.298 31.1357 109.29 31.4574 109.256 31.6943C109.222 31.9313 109.163 32.1514 109.078 32.3545C108.993 32.5576 108.883 32.7607 108.748 32.9639C108.63 33.167 108.494 33.4294 108.342 33.751C108.122 33.8525 107.893 33.971 107.656 34.1064C107.419 34.2249 107.216 34.3519 107.047 34.4873C106.962 34.555 106.844 34.6396 106.691 34.7412C106.539 34.8428 106.404 34.9105 106.285 34.9443C106.048 35.029 105.76 35.0798 105.422 35.0967C105.083 35.1136 104.77 35.1729 104.482 35.2744C104.313 35.3252 104.11 35.3337 103.873 35.2998C103.653 35.266 103.45 35.2575 103.264 35.2744C103.044 35.3083 102.857 35.3421 102.705 35.376C102.553 35.4268 102.375 35.4352 102.172 35.4014C101.935 35.3675 101.673 35.2744 101.385 35.1221C101.097 34.9867 100.843 34.8512 100.623 34.7158C100.538 34.682 100.471 34.6396 100.42 34.5889C100.369 34.5212 100.301 34.4619 100.217 34.4111C100.098 34.3434 99.9798 34.3011 99.8613 34.2842C99.7428 34.2503 99.6328 34.1911 99.5312 34.1064C99.4297 34.0218 99.3366 33.9456 99.252 33.8779C99.1673 33.7933 99.0827 33.7087 98.998 33.624C98.7949 33.4886 98.5664 33.3532 98.3125 33.2178C98.0755 33.0654 97.9062 32.9131 97.8047 32.7607C97.737 32.6761 97.6947 32.5661 97.6777 32.4307C97.6777 32.2783 97.6439 32.1344 97.5762 31.999C97.5423 31.8805 97.4831 31.779 97.3984 31.6943C97.3138 31.6097 97.263 31.5251 97.2461 31.4404C97.1953 31.2035 97.2207 30.9411 97.3223 30.6533C97.4238 30.3656 97.5169 30.1201 97.6016 29.917C97.9232 29.8662 98.1855 29.9001 98.3887 30.0186C98.6087 30.1201 98.7949 30.264 98.9473 30.4502C99.0996 30.6364 99.235 30.848 99.3535 31.085C99.472 31.305 99.5905 31.4997 99.709 31.6689C99.8444 31.889 100.056 32.0583 100.344 32.1768C100.632 32.2952 100.911 32.4137 101.182 32.5322C101.283 32.583 101.376 32.6338 101.461 32.6846C101.562 32.7184 101.656 32.7523 101.74 32.7861C101.96 32.8708 102.146 32.9639 102.299 33.0654C102.468 33.1501 102.646 33.2008 102.832 33.2178C103.001 33.2178 103.162 33.2093 103.314 33.1924C103.484 33.1585 103.67 33.1247 103.873 33.0908C104.076 33.0231 104.279 32.9977 104.482 33.0146C104.686 33.0146 104.88 32.9723 105.066 32.8877C105.286 32.8031 105.413 32.7015 105.447 32.583C105.481 32.4645 105.557 32.3037 105.676 32.1006C105.608 31.779 105.532 31.5505 105.447 31.415C105.363 31.2796 105.21 31.1188 104.99 30.9326C104.906 30.8649 104.804 30.8141 104.686 30.7803C104.584 30.7295 104.491 30.6787 104.406 30.6279C104.051 30.4079 103.661 30.1878 103.238 29.9678C102.815 29.7477 102.35 29.5954 101.842 29.5107C101.52 29.4092 101.182 29.2738 100.826 29.1045C100.488 28.9183 100.242 28.6729 100.09 28.3682C100.039 28.3005 100.005 28.2327 99.9883 28.165C99.9883 28.0973 99.9714 28.0212 99.9375 27.9365C99.8021 27.598 99.6074 27.2764 99.3535 26.9717C99.1165 26.667 98.9557 26.32 98.8711 25.9307C98.8372 25.8122 98.8288 25.6937 98.8457 25.5752C98.8626 25.4398 98.8796 25.3128 98.8965 25.1943C98.9303 25.0758 98.9557 24.9489 98.9727 24.8135C98.9896 24.6781 98.9811 24.5342 98.9473 24.3818C99.015 24.3141 99.0573 24.2464 99.0742 24.1787C99.0911 24.111 99.1165 24.0433 99.1504 23.9756C99.2181 23.874 99.2604 23.7725 99.2773 23.6709C99.3112 23.5524 99.3874 23.4424 99.5059 23.3408C99.6243 23.2393 99.7174 23.1377 99.7852 23.0361C99.8698 22.9176 99.9544 22.8245 100.039 22.7568C100.09 22.723 100.149 22.7061 100.217 22.7061C100.285 22.6891 100.344 22.6637 100.395 22.6299C100.479 22.5791 100.555 22.5199 100.623 22.4521C100.691 22.3675 100.767 22.2913 100.852 22.2236C101.19 21.9697 101.571 21.7581 101.994 21.5889C102.417 21.4027 102.849 21.2588 103.289 21.1572C103.357 21.0726 103.467 21.0049 103.619 20.9541C103.771 20.8864 103.932 20.8441 104.102 20.8271C104.288 20.7933 104.465 20.7679 104.635 20.751C104.804 20.734 104.948 20.7171 105.066 20.7002C105.591 20.7679 106.006 20.8525 106.311 20.9541C106.632 21.0557 106.928 21.1657 107.199 21.2842C107.487 21.3857 107.792 21.4873 108.113 21.5889C108.435 21.6904 108.85 21.7751 109.357 21.8428C109.561 21.9951 109.772 22.1813 109.992 22.4014C110.229 22.6045 110.432 22.833 110.602 23.0869C110.771 23.3408 110.889 23.6117 110.957 23.8994C111.042 24.1702 111.025 24.4495 110.906 24.7373C110.822 24.9066 110.754 25.1012 110.703 25.3213C110.652 25.5244 110.576 25.7106 110.475 25.8799C110.39 26.0153 110.297 26.1761 110.195 26.3623C110.111 26.5485 110.009 26.7008 109.891 26.8193C109.654 27.0563 109.349 27.2256 108.977 27.3271C108.604 27.4287 108.24 27.4626 107.885 27.4287C107.783 27.2594 107.622 27.1156 107.402 26.9971C107.199 26.8786 106.988 26.7601 106.768 26.6416C106.564 26.5062 106.37 26.3623 106.184 26.21C106.014 26.0407 105.904 25.8376 105.854 25.6006C105.803 25.3128 105.811 25.0081 105.879 24.6865C105.964 24.3649 106.15 24.1364 106.438 24.001Z" fill="#181E3C"/>
<path d="M120.225 24.001C120.377 24.0687 120.479 24.1618 120.529 24.2803C120.58 24.3818 120.614 24.4919 120.631 24.6104C120.665 24.7288 120.699 24.8473 120.732 24.9658C120.766 25.0843 120.851 25.1774 120.986 25.2451C121.02 25.279 121.079 25.3213 121.164 25.3721C121.249 25.4229 121.342 25.4821 121.443 25.5498C121.545 25.6006 121.638 25.6514 121.723 25.7021C121.824 25.736 121.9 25.7445 121.951 25.7275C122.053 25.7106 122.146 25.6344 122.23 25.499C122.315 25.3636 122.383 25.2113 122.434 25.042C122.501 24.8558 122.544 24.6696 122.561 24.4834C122.577 24.2972 122.569 24.1449 122.535 24.0264C122.501 23.9756 122.408 23.9079 122.256 23.8232C122.104 23.7217 121.985 23.654 121.9 23.6201C121.663 23.5355 121.443 23.4339 121.24 23.3154C121.037 23.1969 120.817 23.0954 120.58 23.0107C120.479 22.9769 120.368 22.9261 120.25 22.8584C120.148 22.7738 120.047 22.7314 119.945 22.7314C119.878 22.7145 119.801 22.7314 119.717 22.7822C119.632 22.8161 119.548 22.833 119.463 22.833C119.361 22.8499 119.234 22.8584 119.082 22.8584C118.947 22.8415 118.803 22.8415 118.65 22.8584C118.498 22.8753 118.337 22.9007 118.168 22.9346C118.016 22.9684 117.88 23.0277 117.762 23.1123C117.542 23.2985 117.381 23.5101 117.279 23.7471C117.195 23.9671 117.076 24.221 116.924 24.5088C116.89 24.5765 116.831 24.6527 116.746 24.7373C116.661 24.8219 116.619 24.9235 116.619 25.042C116.619 25.1097 116.645 25.1689 116.695 25.2197C116.763 25.2705 116.814 25.3467 116.848 25.4482C116.898 25.5498 116.932 25.6598 116.949 25.7783C116.966 25.8799 116.992 25.973 117.025 26.0576C117.076 26.1084 117.127 26.1592 117.178 26.21C117.229 26.2438 117.271 26.2777 117.305 26.3115C117.355 26.3623 117.389 26.4215 117.406 26.4893C117.44 26.557 117.482 26.6077 117.533 26.6416C117.618 26.6924 117.762 26.7855 117.965 26.9209C118.185 27.0394 118.388 27.1156 118.574 27.1494C118.896 27.2171 119.184 27.3271 119.438 27.4795C119.708 27.6149 119.971 27.7334 120.225 27.835C120.411 27.9196 120.555 28.0212 120.656 28.1396C120.775 28.2412 120.876 28.3512 120.961 28.4697C121.046 28.5713 121.13 28.6729 121.215 28.7744C121.316 28.876 121.452 28.9521 121.621 29.0029C121.706 29.0368 121.782 29.0537 121.85 29.0537C121.917 29.0537 121.993 29.0706 122.078 29.1045C122.163 29.1383 122.247 29.1976 122.332 29.2822C122.417 29.3499 122.51 29.4261 122.611 29.5107C122.679 29.5785 122.738 29.6546 122.789 29.7393C122.857 29.807 122.908 29.8747 122.941 29.9424C122.992 30.0439 123.026 30.1794 123.043 30.3486C123.06 30.501 123.068 30.6279 123.068 30.7295C123.085 31.1357 123.077 31.4574 123.043 31.6943C123.009 31.9313 122.95 32.1514 122.865 32.3545C122.781 32.5576 122.671 32.7607 122.535 32.9639C122.417 33.167 122.281 33.4294 122.129 33.751C121.909 33.8525 121.68 33.971 121.443 34.1064C121.206 34.2249 121.003 34.3519 120.834 34.4873C120.749 34.555 120.631 34.6396 120.479 34.7412C120.326 34.8428 120.191 34.9105 120.072 34.9443C119.835 35.029 119.548 35.0798 119.209 35.0967C118.87 35.1136 118.557 35.1729 118.27 35.2744C118.1 35.3252 117.897 35.3337 117.66 35.2998C117.44 35.266 117.237 35.2575 117.051 35.2744C116.831 35.3083 116.645 35.3421 116.492 35.376C116.34 35.4268 116.162 35.4352 115.959 35.4014C115.722 35.3675 115.46 35.2744 115.172 35.1221C114.884 34.9867 114.63 34.8512 114.41 34.7158C114.326 34.682 114.258 34.6396 114.207 34.5889C114.156 34.5212 114.089 34.4619 114.004 34.4111C113.885 34.3434 113.767 34.3011 113.648 34.2842C113.53 34.2503 113.42 34.1911 113.318 34.1064C113.217 34.0218 113.124 33.9456 113.039 33.8779C112.954 33.7933 112.87 33.7087 112.785 33.624C112.582 33.4886 112.354 33.3532 112.1 33.2178C111.863 33.0654 111.693 32.9131 111.592 32.7607C111.524 32.6761 111.482 32.5661 111.465 32.4307C111.465 32.2783 111.431 32.1344 111.363 31.999C111.329 31.8805 111.27 31.779 111.186 31.6943C111.101 31.6097 111.05 31.5251 111.033 31.4404C110.982 31.2035 111.008 30.9411 111.109 30.6533C111.211 30.3656 111.304 30.1201 111.389 29.917C111.71 29.8662 111.973 29.9001 112.176 30.0186C112.396 30.1201 112.582 30.264 112.734 30.4502C112.887 30.6364 113.022 30.848 113.141 31.085C113.259 31.305 113.378 31.4997 113.496 31.6689C113.632 31.889 113.843 32.0583 114.131 32.1768C114.419 32.2952 114.698 32.4137 114.969 32.5322C115.07 32.583 115.163 32.6338 115.248 32.6846C115.35 32.7184 115.443 32.7523 115.527 32.7861C115.747 32.8708 115.934 32.9639 116.086 33.0654C116.255 33.1501 116.433 33.2008 116.619 33.2178C116.788 33.2178 116.949 33.2093 117.102 33.1924C117.271 33.1585 117.457 33.1247 117.66 33.0908C117.863 33.0231 118.066 32.9977 118.27 33.0146C118.473 33.0146 118.667 32.9723 118.854 32.8877C119.074 32.8031 119.201 32.7015 119.234 32.583C119.268 32.4645 119.344 32.3037 119.463 32.1006C119.395 31.779 119.319 31.5505 119.234 31.415C119.15 31.2796 118.997 31.1188 118.777 30.9326C118.693 30.8649 118.591 30.8141 118.473 30.7803C118.371 30.7295 118.278 30.6787 118.193 30.6279C117.838 30.4079 117.449 30.1878 117.025 29.9678C116.602 29.7477 116.137 29.5954 115.629 29.5107C115.307 29.4092 114.969 29.2738 114.613 29.1045C114.275 28.9183 114.029 28.6729 113.877 28.3682C113.826 28.3005 113.792 28.2327 113.775 28.165C113.775 28.0973 113.758 28.0212 113.725 27.9365C113.589 27.598 113.395 27.2764 113.141 26.9717C112.904 26.667 112.743 26.32 112.658 25.9307C112.624 25.8122 112.616 25.6937 112.633 25.5752C112.65 25.4398 112.667 25.3128 112.684 25.1943C112.717 25.0758 112.743 24.9489 112.76 24.8135C112.777 24.6781 112.768 24.5342 112.734 24.3818C112.802 24.3141 112.844 24.2464 112.861 24.1787C112.878 24.111 112.904 24.0433 112.938 23.9756C113.005 23.874 113.048 23.7725 113.064 23.6709C113.098 23.5524 113.174 23.4424 113.293 23.3408C113.411 23.2393 113.505 23.1377 113.572 23.0361C113.657 22.9176 113.742 22.8245 113.826 22.7568C113.877 22.723 113.936 22.7061 114.004 22.7061C114.072 22.6891 114.131 22.6637 114.182 22.6299C114.266 22.5791 114.342 22.5199 114.41 22.4521C114.478 22.3675 114.554 22.2913 114.639 22.2236C114.977 21.9697 115.358 21.7581 115.781 21.5889C116.204 21.4027 116.636 21.2588 117.076 21.1572C117.144 21.0726 117.254 21.0049 117.406 20.9541C117.559 20.8864 117.719 20.8441 117.889 20.8271C118.075 20.7933 118.253 20.7679 118.422 20.751C118.591 20.734 118.735 20.7171 118.854 20.7002C119.378 20.7679 119.793 20.8525 120.098 20.9541C120.419 21.0557 120.715 21.1657 120.986 21.2842C121.274 21.3857 121.579 21.4873 121.9 21.5889C122.222 21.6904 122.637 21.7751 123.145 21.8428C123.348 21.9951 123.559 22.1813 123.779 22.4014C124.016 22.6045 124.219 22.833 124.389 23.0869C124.558 23.3408 124.676 23.6117 124.744 23.8994C124.829 24.1702 124.812 24.4495 124.693 24.7373C124.609 24.9066 124.541 25.1012 124.49 25.3213C124.439 25.5244 124.363 25.7106 124.262 25.8799C124.177 26.0153 124.084 26.1761 123.982 26.3623C123.898 26.5485 123.796 26.7008 123.678 26.8193C123.441 27.0563 123.136 27.2256 122.764 27.3271C122.391 27.4287 122.027 27.4626 121.672 27.4287C121.57 27.2594 121.41 27.1156 121.189 26.9971C120.986 26.8786 120.775 26.7601 120.555 26.6416C120.352 26.5062 120.157 26.3623 119.971 26.21C119.801 26.0407 119.691 25.8376 119.641 25.6006C119.59 25.3128 119.598 25.0081 119.666 24.6865C119.751 24.3649 119.937 24.1364 120.225 24.001Z" fill="#181E3C"/>
<path d="M130.127 32.5576C130.296 32.5576 130.499 32.5915 130.736 32.6592C130.99 32.7269 131.21 32.7692 131.396 32.7861C131.6 32.82 131.76 32.8285 131.879 32.8115C131.997 32.7946 132.107 32.7777 132.209 32.7607C132.327 32.7269 132.438 32.7015 132.539 32.6846C132.658 32.6507 132.81 32.6338 132.996 32.6338C133.132 32.6169 133.275 32.6169 133.428 32.6338C133.597 32.6507 133.724 32.6423 133.809 32.6084C134.012 32.5407 134.206 32.4137 134.393 32.2275C134.596 32.0413 134.765 31.8636 134.9 31.6943C135.256 31.3389 135.569 31.0088 135.84 30.7041C136.128 30.3825 136.492 30.0778 136.932 29.79C137.033 29.6885 137.135 29.5615 137.236 29.4092C137.355 29.2399 137.473 29.096 137.592 28.9775C137.727 28.8421 137.863 28.7406 137.998 28.6729C138.15 28.6051 138.32 28.6221 138.506 28.7236C138.438 28.9098 138.404 29.096 138.404 29.2822C138.404 29.4515 138.328 29.6208 138.176 29.79C138.04 29.9593 137.888 30.1201 137.719 30.2725C137.566 30.4248 137.431 30.6195 137.312 30.8564C137.262 30.9919 137.228 31.1019 137.211 31.1865C137.194 31.2542 137.152 31.3558 137.084 31.4912C137.033 31.6097 136.982 31.7113 136.932 31.7959C136.898 31.8805 136.855 31.9906 136.805 32.126C136.618 32.5661 136.415 32.9977 136.195 33.4209C135.975 33.8271 135.747 34.2249 135.51 34.6143C135.324 34.6989 135.104 34.7327 134.85 34.7158C134.613 34.6989 134.41 34.6904 134.24 34.6904C133.851 34.6904 133.462 34.6989 133.072 34.7158C132.683 34.7497 132.277 34.7835 131.854 34.8174C131.735 34.8343 131.65 34.8512 131.6 34.8682C131.566 34.8851 131.532 34.902 131.498 34.9189C131.464 34.9359 131.422 34.9443 131.371 34.9443C131.32 34.9613 131.236 34.9697 131.117 34.9697C131.049 34.9528 130.973 34.9359 130.889 34.9189C130.821 34.902 130.745 34.8851 130.66 34.8682C130.017 34.8174 129.424 34.7751 128.883 34.7412C128.358 34.7074 127.799 34.682 127.207 34.665C126.885 34.665 126.598 34.7074 126.344 34.792C126.107 34.8936 125.819 34.9443 125.48 34.9443C125.311 34.9613 125.142 34.9359 124.973 34.8682C124.803 34.8174 124.634 34.8174 124.465 34.8682C124.363 34.8005 124.253 34.7412 124.135 34.6904C124.016 34.6396 123.932 34.5635 123.881 34.4619C123.949 34.208 124.067 33.9795 124.236 33.7764C124.406 33.5732 124.592 33.387 124.795 33.2178C124.998 33.0316 125.201 32.8538 125.404 32.6846C125.624 32.5153 125.819 32.3376 125.988 32.1514C126.005 32.0837 126.014 31.9567 126.014 31.7705C126.132 31.6859 126.208 31.5928 126.242 31.4912C126.293 31.3896 126.369 31.2881 126.471 31.1865C126.555 31.1019 126.64 31.0426 126.725 31.0088C126.826 30.958 126.911 30.8903 126.979 30.8057C127.029 30.738 127.063 30.6702 127.08 30.6025C127.114 30.5348 127.156 30.4671 127.207 30.3994C127.292 30.2809 127.402 30.1794 127.537 30.0947C127.689 30.0101 127.825 29.9001 127.943 29.7646C128.113 29.5785 128.273 29.3753 128.426 29.1553C128.578 28.9352 128.739 28.7321 128.908 28.5459C128.993 28.4613 129.086 28.3851 129.188 28.3174C129.306 28.2497 129.408 28.1735 129.492 28.0889C129.763 27.8688 130 27.6318 130.203 27.3779C130.406 27.124 130.618 26.9294 130.838 26.7939C130.939 26.7432 131.041 26.7008 131.143 26.667C131.261 26.6162 131.363 26.5654 131.447 26.5146C131.532 26.4469 131.591 26.3708 131.625 26.2861C131.676 26.1846 131.676 26.0492 131.625 25.8799C131.777 25.7783 131.896 25.6514 131.98 25.499C132.065 25.3467 132.158 25.2028 132.26 25.0674C132.344 24.9489 132.438 24.8558 132.539 24.7881C132.658 24.7204 132.759 24.6357 132.844 24.5342C133.047 24.3141 133.216 24.1025 133.352 23.8994C133.504 23.6794 133.648 23.4424 133.783 23.1885C133.631 23.1377 133.479 23.07 133.326 22.9854C132.801 23.0192 132.361 23.0277 132.006 23.0107C131.65 22.9938 131.337 23.0023 131.066 23.0361C130.796 23.0531 130.533 23.1123 130.279 23.2139C130.042 23.3154 129.78 23.5101 129.492 23.7979C129.374 23.9163 129.272 24.0179 129.188 24.1025C129.103 24.1872 128.993 24.3057 128.857 24.458C128.57 24.7288 128.333 24.9574 128.146 25.1436C127.96 25.3298 127.732 25.5837 127.461 25.9053C127.326 26.0407 127.173 26.1846 127.004 26.3369C126.835 26.4723 126.632 26.4893 126.395 26.3877C126.344 26.1676 126.386 25.9814 126.521 25.8291C126.657 25.6598 126.767 25.4821 126.852 25.2959C126.953 25.1266 127.012 24.9912 127.029 24.8896C127.046 24.7712 127.097 24.6273 127.182 24.458C127.249 24.3226 127.326 24.2295 127.41 24.1787C127.495 24.111 127.554 23.984 127.588 23.7979C127.605 23.7132 127.605 23.637 127.588 23.5693C127.571 23.4847 127.579 23.4001 127.613 23.3154C127.647 23.1462 127.689 23.0023 127.74 22.8838C127.808 22.7653 127.876 22.596 127.943 22.376C128.028 22.0374 128.13 21.7243 128.248 21.4365C128.383 21.1488 128.629 20.9795 128.984 20.9287C129.272 20.8779 129.56 20.9033 129.848 21.0049C130.135 21.1064 130.389 21.1742 130.609 21.208C130.745 21.2249 130.889 21.2249 131.041 21.208C131.193 21.1911 131.337 21.1826 131.473 21.1826C131.574 21.1995 131.617 21.2249 131.6 21.2588C131.6 21.2757 131.642 21.2926 131.727 21.3096C131.913 21.3265 132.082 21.318 132.234 21.2842C132.387 21.2334 132.548 21.1995 132.717 21.1826C132.971 21.2334 133.242 21.2503 133.529 21.2334C133.834 21.1995 134.088 21.1995 134.291 21.2334C134.376 21.2334 134.46 21.2588 134.545 21.3096C134.646 21.3434 134.74 21.3688 134.824 21.3857C134.909 21.3857 134.985 21.3773 135.053 21.3604C135.137 21.3265 135.239 21.3096 135.357 21.3096C135.798 21.2588 136.263 21.2249 136.754 21.208C137.245 21.1742 137.71 21.1234 138.15 21.0557C138.337 21.0387 138.506 21.0133 138.658 20.9795C138.827 20.9287 138.963 20.8949 139.064 20.8779C139.166 20.861 139.293 20.8441 139.445 20.8271C139.598 20.8102 139.742 20.8102 139.877 20.8271C140.012 20.8271 140.131 20.8525 140.232 20.9033C140.351 20.9541 140.419 21.0303 140.436 21.1318C140.452 21.318 140.359 21.5381 140.156 21.792C139.953 22.0459 139.775 22.2575 139.623 22.4268C139.42 22.613 139.217 22.7907 139.014 22.96C138.827 23.1123 138.65 23.2646 138.48 23.417C138.345 23.5186 138.227 23.637 138.125 23.7725C138.023 23.9079 137.922 24.0179 137.82 24.1025C137.719 24.1872 137.6 24.2633 137.465 24.3311C137.346 24.3818 137.236 24.4411 137.135 24.5088C136.949 24.6442 136.788 24.805 136.652 24.9912C136.517 25.1605 136.356 25.3382 136.17 25.5244C135.848 25.863 135.544 26.1846 135.256 26.4893C134.968 26.7939 134.689 27.1663 134.418 27.6064C134.299 27.7926 134.189 28.0042 134.088 28.2412C133.986 28.4782 133.868 28.6729 133.732 28.8252C133.648 28.8929 133.546 28.9437 133.428 28.9775C133.326 28.9945 133.233 29.0283 133.148 29.0791C132.861 29.2314 132.581 29.4769 132.311 29.8154C132.057 30.137 131.828 30.4333 131.625 30.7041C131.405 31.0426 131.151 31.3643 130.863 31.6689C130.576 31.9567 130.33 32.2529 130.127 32.5576Z" fill="#181E3C"/>
<path d="M144.727 32.5576C144.896 32.5576 145.099 32.5915 145.336 32.6592C145.59 32.7269 145.81 32.7692 145.996 32.7861C146.199 32.82 146.36 32.8285 146.479 32.8115C146.597 32.7946 146.707 32.7777 146.809 32.7607C146.927 32.7269 147.037 32.7015 147.139 32.6846C147.257 32.6507 147.41 32.6338 147.596 32.6338C147.731 32.6169 147.875 32.6169 148.027 32.6338C148.197 32.6507 148.324 32.6423 148.408 32.6084C148.611 32.5407 148.806 32.4137 148.992 32.2275C149.195 32.0413 149.365 31.8636 149.5 31.6943C149.855 31.3389 150.169 31.0088 150.439 30.7041C150.727 30.3825 151.091 30.0778 151.531 29.79C151.633 29.6885 151.734 29.5615 151.836 29.4092C151.954 29.2399 152.073 29.096 152.191 28.9775C152.327 28.8421 152.462 28.7406 152.598 28.6729C152.75 28.6051 152.919 28.6221 153.105 28.7236C153.038 28.9098 153.004 29.096 153.004 29.2822C153.004 29.4515 152.928 29.6208 152.775 29.79C152.64 29.9593 152.488 30.1201 152.318 30.2725C152.166 30.4248 152.031 30.6195 151.912 30.8564C151.861 30.9919 151.827 31.1019 151.811 31.1865C151.794 31.2542 151.751 31.3558 151.684 31.4912C151.633 31.6097 151.582 31.7113 151.531 31.7959C151.497 31.8805 151.455 31.9906 151.404 32.126C151.218 32.5661 151.015 32.9977 150.795 33.4209C150.575 33.8271 150.346 34.2249 150.109 34.6143C149.923 34.6989 149.703 34.7327 149.449 34.7158C149.212 34.6989 149.009 34.6904 148.84 34.6904C148.451 34.6904 148.061 34.6989 147.672 34.7158C147.283 34.7497 146.876 34.7835 146.453 34.8174C146.335 34.8343 146.25 34.8512 146.199 34.8682C146.165 34.8851 146.132 34.902 146.098 34.9189C146.064 34.9359 146.021 34.9443 145.971 34.9443C145.92 34.9613 145.835 34.9697 145.717 34.9697C145.649 34.9528 145.573 34.9359 145.488 34.9189C145.421 34.902 145.344 34.8851 145.26 34.8682C144.617 34.8174 144.024 34.7751 143.482 34.7412C142.958 34.7074 142.399 34.682 141.807 34.665C141.485 34.665 141.197 34.7074 140.943 34.792C140.706 34.8936 140.419 34.9443 140.08 34.9443C139.911 34.9613 139.742 34.9359 139.572 34.8682C139.403 34.8174 139.234 34.8174 139.064 34.8682C138.963 34.8005 138.853 34.7412 138.734 34.6904C138.616 34.6396 138.531 34.5635 138.48 34.4619C138.548 34.208 138.667 33.9795 138.836 33.7764C139.005 33.5732 139.191 33.387 139.395 33.2178C139.598 33.0316 139.801 32.8538 140.004 32.6846C140.224 32.5153 140.419 32.3376 140.588 32.1514C140.605 32.0837 140.613 31.9567 140.613 31.7705C140.732 31.6859 140.808 31.5928 140.842 31.4912C140.893 31.3896 140.969 31.2881 141.07 31.1865C141.155 31.1019 141.24 31.0426 141.324 31.0088C141.426 30.958 141.51 30.8903 141.578 30.8057C141.629 30.738 141.663 30.6702 141.68 30.6025C141.714 30.5348 141.756 30.4671 141.807 30.3994C141.891 30.2809 142.001 30.1794 142.137 30.0947C142.289 30.0101 142.424 29.9001 142.543 29.7646C142.712 29.5785 142.873 29.3753 143.025 29.1553C143.178 28.9352 143.339 28.7321 143.508 28.5459C143.592 28.4613 143.686 28.3851 143.787 28.3174C143.906 28.2497 144.007 28.1735 144.092 28.0889C144.363 27.8688 144.6 27.6318 144.803 27.3779C145.006 27.124 145.217 26.9294 145.438 26.7939C145.539 26.7432 145.641 26.7008 145.742 26.667C145.861 26.6162 145.962 26.5654 146.047 26.5146C146.132 26.4469 146.191 26.3708 146.225 26.2861C146.275 26.1846 146.275 26.0492 146.225 25.8799C146.377 25.7783 146.495 25.6514 146.58 25.499C146.665 25.3467 146.758 25.2028 146.859 25.0674C146.944 24.9489 147.037 24.8558 147.139 24.7881C147.257 24.7204 147.359 24.6357 147.443 24.5342C147.646 24.3141 147.816 24.1025 147.951 23.8994C148.104 23.6794 148.247 23.4424 148.383 23.1885C148.23 23.1377 148.078 23.07 147.926 22.9854C147.401 23.0192 146.961 23.0277 146.605 23.0107C146.25 22.9938 145.937 23.0023 145.666 23.0361C145.395 23.0531 145.133 23.1123 144.879 23.2139C144.642 23.3154 144.38 23.5101 144.092 23.7979C143.973 23.9163 143.872 24.0179 143.787 24.1025C143.702 24.1872 143.592 24.3057 143.457 24.458C143.169 24.7288 142.932 24.9574 142.746 25.1436C142.56 25.3298 142.331 25.5837 142.061 25.9053C141.925 26.0407 141.773 26.1846 141.604 26.3369C141.434 26.4723 141.231 26.4893 140.994 26.3877C140.943 26.1676 140.986 25.9814 141.121 25.8291C141.257 25.6598 141.367 25.4821 141.451 25.2959C141.553 25.1266 141.612 24.9912 141.629 24.8896C141.646 24.7712 141.697 24.6273 141.781 24.458C141.849 24.3226 141.925 24.2295 142.01 24.1787C142.094 24.111 142.154 23.984 142.188 23.7979C142.204 23.7132 142.204 23.637 142.188 23.5693C142.171 23.4847 142.179 23.4001 142.213 23.3154C142.247 23.1462 142.289 23.0023 142.34 22.8838C142.408 22.7653 142.475 22.596 142.543 22.376C142.628 22.0374 142.729 21.7243 142.848 21.4365C142.983 21.1488 143.229 20.9795 143.584 20.9287C143.872 20.8779 144.16 20.9033 144.447 21.0049C144.735 21.1064 144.989 21.1742 145.209 21.208C145.344 21.2249 145.488 21.2249 145.641 21.208C145.793 21.1911 145.937 21.1826 146.072 21.1826C146.174 21.1995 146.216 21.2249 146.199 21.2588C146.199 21.2757 146.242 21.2926 146.326 21.3096C146.512 21.3265 146.682 21.318 146.834 21.2842C146.986 21.2334 147.147 21.1995 147.316 21.1826C147.57 21.2334 147.841 21.2503 148.129 21.2334C148.434 21.1995 148.688 21.1995 148.891 21.2334C148.975 21.2334 149.06 21.2588 149.145 21.3096C149.246 21.3434 149.339 21.3688 149.424 21.3857C149.508 21.3857 149.585 21.3773 149.652 21.3604C149.737 21.3265 149.839 21.3096 149.957 21.3096C150.397 21.2588 150.863 21.2249 151.354 21.208C151.844 21.1742 152.31 21.1234 152.75 21.0557C152.936 21.0387 153.105 21.0133 153.258 20.9795C153.427 20.9287 153.562 20.8949 153.664 20.8779C153.766 20.861 153.893 20.8441 154.045 20.8271C154.197 20.8102 154.341 20.8102 154.477 20.8271C154.612 20.8271 154.73 20.8525 154.832 20.9033C154.951 20.9541 155.018 21.0303 155.035 21.1318C155.052 21.318 154.959 21.5381 154.756 21.792C154.553 22.0459 154.375 22.2575 154.223 22.4268C154.02 22.613 153.816 22.7907 153.613 22.96C153.427 23.1123 153.249 23.2646 153.08 23.417C152.945 23.5186 152.826 23.637 152.725 23.7725C152.623 23.9079 152.521 24.0179 152.42 24.1025C152.318 24.1872 152.2 24.2633 152.064 24.3311C151.946 24.3818 151.836 24.4411 151.734 24.5088C151.548 24.6442 151.387 24.805 151.252 24.9912C151.117 25.1605 150.956 25.3382 150.77 25.5244C150.448 25.863 150.143 26.1846 149.855 26.4893C149.568 26.7939 149.288 27.1663 149.018 27.6064C148.899 27.7926 148.789 28.0042 148.688 28.2412C148.586 28.4782 148.467 28.6729 148.332 28.8252C148.247 28.8929 148.146 28.9437 148.027 28.9775C147.926 28.9945 147.833 29.0283 147.748 29.0791C147.46 29.2314 147.181 29.4769 146.91 29.8154C146.656 30.137 146.428 30.4333 146.225 30.7041C146.005 31.0426 145.751 31.3643 145.463 31.6689C145.175 31.9567 144.93 32.2529 144.727 32.5576Z" fill="#181E3C"/>
<path d="M167.197 18.1357C167.163 18.0511 167.155 17.9919 167.172 17.958C167.189 17.9242 167.197 17.8564 167.197 17.7549C167.011 17.6533 166.825 17.6279 166.639 17.6787C166.469 17.7295 166.292 17.7633 166.105 17.7803C165.919 17.7803 165.699 17.7549 165.445 17.7041C165.208 17.6533 164.954 17.6025 164.684 17.5518C164.43 17.501 164.167 17.4671 163.896 17.4502C163.626 17.4163 163.363 17.4248 163.109 17.4756C162.974 17.5094 162.779 17.5941 162.525 17.7295C162.271 17.848 162.085 17.9411 161.967 18.0088C161.577 18.2458 161.298 18.5928 161.129 19.0498C160.96 19.5068 160.807 19.9723 160.672 20.4463C160.604 20.514 160.528 20.5732 160.443 20.624C160.376 20.6748 160.325 20.7425 160.291 20.8271C160.291 20.9456 160.333 21.0387 160.418 21.1064C160.52 21.1742 160.587 21.2588 160.621 21.3604C160.723 21.6143 160.816 21.8682 160.9 22.1221C160.985 22.376 161.095 22.613 161.23 22.833C161.451 23.1715 161.755 23.4424 162.145 23.6455C162.551 23.8486 162.957 24.0433 163.363 24.2295C163.651 24.3818 163.896 24.5003 164.1 24.585C164.32 24.6527 164.574 24.7542 164.861 24.8896C165.031 24.9743 165.183 25.0335 165.318 25.0674C165.454 25.1012 165.581 25.1436 165.699 25.1943C165.818 25.2451 165.928 25.3128 166.029 25.3975C166.131 25.4652 166.241 25.5667 166.359 25.7021C166.461 25.8037 166.554 25.9053 166.639 26.0068C166.74 26.1084 166.833 26.2015 166.918 26.2861C167.104 26.4723 167.231 26.6501 167.299 26.8193C167.383 26.9717 167.544 27.1071 167.781 27.2256C167.815 27.3949 167.891 27.5387 168.01 27.6572C168.128 27.7588 168.204 27.8773 168.238 28.0127C168.272 28.1989 168.247 28.3597 168.162 28.4951C168.077 28.6305 168.044 28.7829 168.061 28.9521C168.077 29.1045 168.128 29.2314 168.213 29.333C168.314 29.4176 168.382 29.5277 168.416 29.6631C168.45 29.7985 168.45 29.9508 168.416 30.1201C168.382 30.2894 168.331 30.4587 168.264 30.6279C168.179 30.8818 168.111 31.1273 168.061 31.3643C168.027 31.6012 167.976 31.8298 167.908 32.0498C167.84 32.2699 167.747 32.4814 167.629 32.6846C167.51 32.8708 167.333 33.04 167.096 33.1924C167.028 33.2262 166.952 33.2601 166.867 33.2939C166.799 33.3109 166.732 33.3363 166.664 33.3701C166.579 33.404 166.512 33.4463 166.461 33.4971C166.41 33.5479 166.359 33.5902 166.309 33.624C166.241 33.6579 166.165 33.6833 166.08 33.7002C166.012 33.7171 165.945 33.7425 165.877 33.7764C165.775 33.8271 165.682 33.8949 165.598 33.9795C165.513 34.0472 165.42 34.098 165.318 34.1318C165.149 34.2165 165.022 34.335 164.938 34.4873C164.853 34.6227 164.701 34.7327 164.48 34.8174C164.294 34.902 164.142 35.012 164.023 35.1475C163.905 35.2829 163.77 35.3675 163.617 35.4014C163.363 35.4521 163.101 35.4437 162.83 35.376C162.559 35.3083 162.288 35.2744 162.018 35.2744C161.747 35.2575 161.467 35.266 161.18 35.2998C160.892 35.3506 160.604 35.3844 160.316 35.4014C160.012 35.4352 159.682 35.4691 159.326 35.5029C158.988 35.5537 158.7 35.5537 158.463 35.5029C158.26 35.4691 157.997 35.4098 157.676 35.3252C157.354 35.2575 157.033 35.1729 156.711 35.0713C156.389 34.9867 156.085 34.8851 155.797 34.7666C155.526 34.665 155.331 34.555 155.213 34.4365C155.128 34.3519 155.052 34.2503 154.984 34.1318C154.934 33.9964 154.866 33.8864 154.781 33.8018C154.595 33.6156 154.375 33.4378 154.121 33.2686C153.867 33.0824 153.681 32.8877 153.562 32.6846C153.512 32.583 153.478 32.4814 153.461 32.3799C153.427 32.2614 153.393 32.1429 153.359 32.0244C153.326 31.9059 153.275 31.7959 153.207 31.6943C153.139 31.5928 153.097 31.4997 153.08 31.415C153.063 31.3135 153.08 31.2288 153.131 31.1611C153.182 31.0765 153.215 30.9919 153.232 30.9072C153.266 30.721 153.292 30.5348 153.309 30.3486C153.309 30.1624 153.376 29.9932 153.512 29.8408C153.664 29.807 153.876 29.7223 154.146 29.5869C154.417 29.4515 154.671 29.3499 154.908 29.2822C155.162 29.1976 155.357 29.1722 155.492 29.2061C155.645 29.2399 155.661 29.4092 155.543 29.7139C155.712 29.8154 155.831 29.9508 155.898 30.1201C155.966 30.2725 156.008 30.4417 156.025 30.6279C156.059 30.7972 156.085 30.9834 156.102 31.1865C156.135 31.3896 156.195 31.5843 156.279 31.7705C156.364 31.9736 156.533 32.1429 156.787 32.2783C157.058 32.4137 157.261 32.5576 157.396 32.71C157.65 32.693 157.887 32.7184 158.107 32.7861C158.327 32.8538 158.539 32.93 158.742 33.0146C158.962 33.0824 159.182 33.1501 159.402 33.2178C159.639 33.2686 159.893 33.277 160.164 33.2432C160.266 33.2262 160.367 33.1416 160.469 32.9893C160.587 32.82 160.697 32.7269 160.799 32.71C161.239 32.6084 161.645 32.5492 162.018 32.5322C162.39 32.5153 162.72 32.3799 163.008 32.126C163.228 31.9398 163.397 31.762 163.516 31.5928C163.651 31.4235 163.727 31.2204 163.744 30.9834C163.761 30.7126 163.727 30.501 163.643 30.3486C163.575 30.1794 163.473 30.0439 163.338 29.9424C163.202 29.8408 163.042 29.7477 162.855 29.6631C162.686 29.5785 162.517 29.4684 162.348 29.333C162.246 29.2653 162.145 29.1891 162.043 29.1045C161.958 29.0199 161.874 28.9606 161.789 28.9268C161.451 28.7744 161.078 28.6475 160.672 28.5459C160.283 28.4274 159.919 28.292 159.58 28.1396C159.411 28.055 159.267 27.9027 159.148 27.6826C159.03 27.4626 158.878 27.3356 158.691 27.3018C158.607 27.2679 158.514 27.2679 158.412 27.3018C158.311 27.3356 158.201 27.3441 158.082 27.3271C157.947 27.3102 157.76 27.234 157.523 27.0986C157.303 26.9632 157.151 26.8532 157.066 26.7686C157.016 26.7178 156.973 26.6501 156.939 26.5654C156.906 26.4639 156.855 26.3792 156.787 26.3115C156.669 26.1592 156.542 26.0238 156.406 25.9053C156.271 25.7868 156.178 25.6598 156.127 25.5244C156.093 25.4229 156.068 25.3298 156.051 25.2451C156.051 25.1605 156.034 25.0758 156 24.9912C155.966 24.9235 155.924 24.8643 155.873 24.8135C155.822 24.7627 155.771 24.7035 155.721 24.6357C155.687 24.5511 155.67 24.4665 155.67 24.3818C155.67 24.2803 155.653 24.1787 155.619 24.0771C155.518 23.7725 155.416 23.5101 155.314 23.29C155.213 23.0531 155.179 22.7314 155.213 22.3252C155.23 22.0544 155.213 21.8428 155.162 21.6904C155.128 21.5381 155.137 21.3688 155.188 21.1826C155.221 21.0472 155.255 20.9287 155.289 20.8271C155.323 20.7087 155.365 20.5817 155.416 20.4463C155.45 20.3278 155.467 20.2093 155.467 20.0908C155.484 19.9723 155.509 19.8708 155.543 19.7861C155.594 19.7015 155.661 19.6084 155.746 19.5068C155.848 19.4053 155.932 19.3037 156 19.2021C156.186 18.9144 156.372 18.6266 156.559 18.3389C156.745 18.0342 156.99 17.7803 157.295 17.5771C157.43 17.3063 157.676 17.0355 158.031 16.7646C158.387 16.4769 158.742 16.2568 159.098 16.1045C159.487 15.9183 159.919 15.7236 160.393 15.5205C160.867 15.3005 161.273 15.1566 161.611 15.0889C161.865 15.0381 162.111 15.0127 162.348 15.0127C162.585 15.0127 162.839 15.0127 163.109 15.0127C163.533 14.9958 163.863 14.9958 164.1 15.0127C164.337 15.0296 164.624 15.0635 164.963 15.1143C165.098 15.1481 165.242 15.1735 165.395 15.1904C165.564 15.2074 165.708 15.2327 165.826 15.2666C165.911 15.3005 165.979 15.3428 166.029 15.3936C166.08 15.4274 166.165 15.4528 166.283 15.4697C166.469 15.4867 166.656 15.4697 166.842 15.4189C167.045 15.3512 167.24 15.3258 167.426 15.3428C167.764 15.3766 168.035 15.4613 168.238 15.5967C168.458 15.7321 168.704 15.876 168.975 16.0283C169.127 16.113 169.279 16.1891 169.432 16.2568C169.584 16.3245 169.702 16.4007 169.787 16.4854C169.889 16.5869 169.99 16.7308 170.092 16.917C170.193 17.1032 170.286 17.3063 170.371 17.5264C170.456 17.7295 170.523 17.9411 170.574 18.1611C170.642 18.3812 170.676 18.5674 170.676 18.7197C170.676 18.8044 170.667 18.8805 170.65 18.9482C170.633 19.016 170.625 19.0921 170.625 19.1768C170.642 19.3122 170.693 19.4645 170.777 19.6338C170.862 19.8031 170.887 19.9808 170.854 20.167C170.837 20.3024 170.769 20.4124 170.65 20.4971C170.549 20.5648 170.456 20.6579 170.371 20.7764C170.303 20.8779 170.253 20.9964 170.219 21.1318C170.185 21.2503 170.134 21.3519 170.066 21.4365C169.982 21.555 169.897 21.6566 169.812 21.7412C169.745 21.8258 169.694 21.9274 169.66 22.0459C169.491 22.2321 169.229 22.4014 168.873 22.5537C168.535 22.6891 168.154 22.7992 167.73 22.8838C167.307 22.9684 166.876 23.0107 166.436 23.0107C166.012 23.0107 165.64 22.96 165.318 22.8584C165.234 22.8245 165.149 22.7738 165.064 22.7061C164.997 22.6383 164.912 22.5876 164.811 22.5537C164.709 22.5199 164.599 22.4945 164.48 22.4775C164.379 22.4606 164.294 22.4268 164.227 22.376C164.125 22.3083 163.973 22.1559 163.77 21.9189C163.583 21.665 163.473 21.4704 163.439 21.335C163.372 21.2165 163.338 21.0895 163.338 20.9541C163.355 20.8018 163.372 20.641 163.389 20.4717C163.423 20.3193 163.448 20.1331 163.465 19.9131C163.499 19.6761 163.566 19.5153 163.668 19.4307C163.702 19.3968 163.778 19.3545 163.896 19.3037C164.015 19.2529 164.142 19.2529 164.277 19.3037C164.413 19.3376 164.531 19.4307 164.633 19.583C164.734 19.7354 164.836 19.9046 164.938 20.0908C165.039 20.2601 165.141 20.4294 165.242 20.5986C165.361 20.751 165.488 20.861 165.623 20.9287C165.826 21.0472 166.072 21.1149 166.359 21.1318C166.664 21.1318 166.91 21.0895 167.096 21.0049C167.417 20.9033 167.654 20.734 167.807 20.4971C167.976 20.2601 168.061 19.9977 168.061 19.71C168.061 19.4222 167.984 19.1429 167.832 18.8721C167.697 18.5843 167.485 18.3389 167.197 18.1357Z" fill="#181E3C"/>
<path d="M184.793 35.3252C184.404 35.2913 184.031 35.2829 183.676 35.2998C183.337 35.3337 183.041 35.266 182.787 35.0967C182.753 35.0628 182.719 35.012 182.686 34.9443C182.669 34.8936 182.635 34.8258 182.584 34.7412C182.449 34.5719 182.347 34.4196 182.279 34.2842C182.212 34.1318 182.152 33.9287 182.102 33.6748C182.068 33.6071 182.034 33.5479 182 33.4971C181.966 33.4294 181.941 33.3617 181.924 33.2939C181.89 33.1924 181.882 33.0654 181.898 32.9131C181.915 32.7607 181.907 32.6169 181.873 32.4814C181.822 32.2614 181.746 32.0667 181.645 31.8975C181.56 31.7282 181.568 31.5251 181.67 31.2881C181.535 31.085 181.408 30.8057 181.289 30.4502C181.188 30.0778 181.12 29.6969 181.086 29.3076C181.069 29.0199 181.069 28.6559 181.086 28.2158C181.103 27.7588 181.077 27.3949 181.01 27.124C180.84 27.1917 180.688 27.3102 180.553 27.4795C180.434 27.6488 180.316 27.8265 180.197 28.0127C180.096 28.1989 179.986 28.3851 179.867 28.5713C179.749 28.7406 179.613 28.8675 179.461 28.9521C179.326 29.1383 179.199 29.4092 179.08 29.7646C178.979 30.1201 178.885 30.3994 178.801 30.6025C178.632 30.9919 178.378 31.305 178.039 31.542C177.717 31.762 177.413 32.0075 177.125 32.2783C176.973 32.4307 176.837 32.6084 176.719 32.8115C176.6 33.0146 176.482 33.2262 176.363 33.4463C176.262 33.6663 176.152 33.8779 176.033 34.0811C175.915 34.2842 175.771 34.4619 175.602 34.6143C175.5 34.6989 175.398 34.7581 175.297 34.792C175.195 34.8258 175.102 34.902 175.018 35.0205C174.662 35.139 174.34 35.1982 174.053 35.1982C173.765 35.2152 173.503 35.1305 173.266 34.9443C173.164 34.8766 173.062 34.7497 172.961 34.5635C172.876 34.3773 172.8 34.1742 172.732 33.9541C172.682 33.7171 172.639 33.4717 172.605 33.2178C172.589 32.9639 172.58 32.7438 172.58 32.5576C172.597 32.4222 172.631 32.2952 172.682 32.1768C172.749 32.0583 172.783 31.9313 172.783 31.7959C172.783 31.6943 172.749 31.6012 172.682 31.5166C172.631 31.415 172.597 31.3135 172.58 31.2119C172.58 31.0765 172.614 30.9665 172.682 30.8818C172.749 30.7803 172.783 30.6872 172.783 30.6025C172.783 30.484 172.732 30.374 172.631 30.2725C172.546 30.1709 172.495 30.0524 172.479 29.917C172.479 29.7139 172.453 29.4769 172.402 29.2061C172.368 28.9352 172.335 28.6644 172.301 28.3936C172.267 28.1058 172.233 27.8265 172.199 27.5557C172.182 27.2848 172.191 27.0563 172.225 26.8701C172.258 26.7516 172.301 26.6416 172.352 26.54C172.402 26.4385 172.428 26.3369 172.428 26.2354C172.445 25.9984 172.385 25.7614 172.25 25.5244C172.132 25.2705 172.072 25.0081 172.072 24.7373C172.072 24.4495 172.106 24.1533 172.174 23.8486C172.242 23.527 172.284 23.2223 172.301 22.9346C172.318 22.6807 172.318 22.4352 172.301 22.1982C172.284 21.9443 172.343 21.6989 172.479 21.4619C172.597 21.2757 172.749 21.1403 172.936 21.0557C173.139 20.9541 173.35 20.8779 173.57 20.8271C173.757 20.9287 173.926 21.0049 174.078 21.0557C174.23 21.1064 174.374 21.208 174.51 21.3604C174.628 21.4958 174.73 21.6566 174.814 21.8428C174.916 22.012 175.026 22.139 175.145 22.2236C175.314 22.3252 175.449 22.376 175.551 22.376C175.652 22.359 175.762 22.4352 175.881 22.6045C175.999 22.7738 176.076 22.9769 176.109 23.2139C176.143 23.4508 176.152 23.7048 176.135 23.9756C176.135 24.2295 176.118 24.4919 176.084 24.7627C176.067 25.0166 176.067 25.262 176.084 25.499C176.101 25.6344 176.109 25.7614 176.109 25.8799C176.109 25.9814 176.101 26.1423 176.084 26.3623C176.067 26.5485 176.101 26.7432 176.186 26.9463C176.27 27.1494 176.296 27.3187 176.262 27.4541C176.245 27.5557 176.194 27.6403 176.109 27.708C176.025 27.7588 175.974 27.8519 175.957 27.9873C175.94 28.1227 175.974 28.2497 176.059 28.3682C176.16 28.4697 176.219 28.5882 176.236 28.7236C176.304 29.0114 176.312 29.2738 176.262 29.5107C176.211 29.7308 176.211 29.9593 176.262 30.1963C176.499 30.0609 176.685 29.8831 176.82 29.6631C176.973 29.443 177.117 29.2399 177.252 29.0537C177.421 28.8675 177.514 28.6813 177.531 28.4951C177.548 28.292 177.624 28.0973 177.76 27.9111C177.878 27.7588 178.031 27.5472 178.217 27.2764C178.42 27.0055 178.589 26.8024 178.725 26.667C178.792 26.5824 178.86 26.4215 178.928 26.1846C179.012 25.9476 179.089 25.7868 179.156 25.7021C179.309 25.4821 179.478 25.2705 179.664 25.0674C179.85 24.8473 180.036 24.6442 180.223 24.458C180.46 24.5934 180.663 24.6019 180.832 24.4834C181.018 24.3649 181.052 24.1956 180.934 23.9756C181.018 23.8402 181.128 23.6794 181.264 23.4932C181.399 23.307 181.551 23.1462 181.721 23.0107C181.975 22.8415 182.245 22.7738 182.533 22.8076C182.838 22.8415 183.126 22.9515 183.396 23.1377C183.532 23.3747 183.591 23.6201 183.574 23.874C183.574 24.111 183.583 24.3564 183.6 24.6104C183.6 24.7627 183.625 24.915 183.676 25.0674C183.727 25.2197 183.752 25.389 183.752 25.5752C183.752 25.7445 183.743 25.9391 183.727 26.1592C183.727 26.3792 183.718 26.6077 183.701 26.8447C183.701 27.0648 183.693 27.2933 183.676 27.5303C183.676 27.7503 183.693 27.9535 183.727 28.1396C183.828 28.292 183.896 28.4782 183.93 28.6982C183.98 28.9183 184.014 29.1468 184.031 29.3838C184.048 29.6208 184.065 29.8577 184.082 30.0947C184.116 30.3148 184.175 30.5094 184.26 30.6787C184.463 30.6787 184.573 30.6364 184.59 30.5518C184.624 30.4671 184.683 30.3486 184.768 30.1963C184.852 30.0101 184.911 29.8747 184.945 29.79C184.996 29.7054 185.03 29.6292 185.047 29.5615C185.081 29.4938 185.115 29.4176 185.148 29.333C185.182 29.2484 185.242 29.113 185.326 28.9268C185.411 28.7406 185.495 28.5628 185.58 28.3936C185.682 28.2074 185.766 28.0212 185.834 27.835C185.902 27.6488 185.936 27.5049 185.936 27.4033C185.952 27.3018 186.046 27.1833 186.215 27.0479C186.316 26.9632 186.426 26.887 186.545 26.8193C186.663 26.7516 186.748 26.6501 186.799 26.5146C186.833 26.43 186.841 26.3538 186.824 26.2861C186.824 26.2184 186.841 26.1507 186.875 26.083C186.943 25.7952 187.036 25.5075 187.154 25.2197C187.273 24.932 187.366 24.6611 187.434 24.4072C187.484 24.1533 187.527 23.9079 187.561 23.6709C187.611 23.4339 187.738 23.2223 187.941 23.0361C188.043 22.7145 188.136 22.4691 188.221 22.2998C188.305 22.1305 188.398 21.9782 188.5 21.8428C188.602 21.7074 188.703 21.5635 188.805 21.4111C188.906 21.2419 189.016 21.0133 189.135 20.7256C189.473 20.7933 189.761 20.9202 189.998 21.1064C190.252 21.2757 190.447 21.5465 190.582 21.9189C190.633 22.1051 190.692 22.2744 190.76 22.4268C190.827 22.5791 190.819 22.7653 190.734 22.9854C190.684 23.1208 190.633 23.2139 190.582 23.2646C190.531 23.3154 190.472 23.3577 190.404 23.3916C190.354 23.4255 190.294 23.4847 190.227 23.5693C190.176 23.637 190.125 23.7725 190.074 23.9756C190.057 24.0602 190.057 24.1449 190.074 24.2295C190.091 24.3141 190.091 24.4072 190.074 24.5088C190.04 24.695 189.981 24.8896 189.896 25.0928C189.829 25.2959 189.778 25.4313 189.744 25.499C189.66 25.6175 189.541 25.7106 189.389 25.7783C189.253 25.8291 189.135 25.9053 189.033 26.0068C188.982 26.0915 188.915 26.1846 188.83 26.2861C188.762 26.3877 188.712 26.4893 188.678 26.5908C188.492 26.9801 188.356 27.3864 188.271 27.8096C188.187 28.2158 188.06 28.639 187.891 29.0791C187.789 29.333 187.679 29.5107 187.561 29.6123C187.442 29.7139 187.332 29.807 187.23 29.8916C187.129 29.9762 187.044 30.0947 186.977 30.2471C186.909 30.3825 186.875 30.6279 186.875 30.9834C186.706 31.3558 186.562 31.7451 186.443 32.1514C186.325 32.5407 186.181 32.9385 186.012 33.3447C185.842 33.734 185.665 34.0895 185.479 34.4111C185.309 34.7158 185.081 35.0205 184.793 35.3252Z" fill="#181E3C"/>
<path d="M195.432 23.0361C195.753 22.8161 196.033 22.5622 196.27 22.2744C196.507 21.9867 196.735 21.6989 196.955 21.4111C197.09 21.4281 197.209 21.4027 197.311 21.335C197.412 21.2673 197.522 21.2165 197.641 21.1826C197.878 21.1149 198.115 21.1234 198.352 21.208C198.605 21.2757 198.851 21.3011 199.088 21.2842C199.376 21.2503 199.646 21.1742 199.9 21.0557C200.171 20.9372 200.484 20.8779 200.84 20.8779C200.958 20.8779 201.068 20.9202 201.17 21.0049C201.271 21.0726 201.373 21.1149 201.475 21.1318C201.61 21.1657 201.729 21.1488 201.83 21.0811C201.949 21.0133 202.076 20.9795 202.211 20.9795C202.448 20.9795 202.626 21.0557 202.744 21.208C202.88 21.3604 203.032 21.5127 203.201 21.665C203.286 22.0544 203.294 22.4352 203.227 22.8076C203.159 23.18 203.142 23.5609 203.176 23.9502C203.21 24.2041 203.243 24.4495 203.277 24.6865C203.328 24.9235 203.354 25.1689 203.354 25.4229C203.37 25.6429 203.354 25.8799 203.303 26.1338C203.269 26.3708 203.26 26.6077 203.277 26.8447C203.294 26.9294 203.32 27.014 203.354 27.0986C203.387 27.1833 203.396 27.2679 203.379 27.3525C203.345 27.5387 203.269 27.6826 203.15 27.7842C203.032 27.8857 202.964 28.0212 202.947 28.1904C202.913 28.4443 202.964 28.6813 203.1 28.9014C203.252 29.1214 203.345 29.3499 203.379 29.5869C203.396 29.6885 203.387 29.7985 203.354 29.917C203.32 30.0355 203.303 30.1455 203.303 30.2471C203.269 30.6195 203.269 31.0342 203.303 31.4912C203.354 31.9482 203.387 32.3714 203.404 32.7607C203.404 32.8962 203.413 33.0316 203.43 33.167C203.464 33.3024 203.464 33.4124 203.43 33.4971C203.413 33.5817 203.37 33.6494 203.303 33.7002C203.252 33.751 203.21 33.8102 203.176 33.8779C203.159 33.9626 203.159 34.0811 203.176 34.2334C203.21 34.3857 203.227 34.5296 203.227 34.665C203.227 34.7835 203.218 34.8936 203.201 34.9951C203.184 35.1136 203.176 35.2152 203.176 35.2998C203.193 35.3506 203.21 35.4014 203.227 35.4521C203.26 35.5199 203.269 35.5791 203.252 35.6299C203.218 35.7822 203.1 35.943 202.896 36.1123C202.71 36.2985 202.516 36.3831 202.312 36.3662C202.211 36.3493 202.059 36.2646 201.855 36.1123C201.669 35.9769 201.534 35.8669 201.449 35.7822C201.297 35.596 201.204 35.359 201.17 35.0713C201.136 34.7835 201.06 34.5212 200.941 34.2842C200.891 34.1995 200.814 34.1234 200.713 34.0557C200.628 33.971 200.552 33.8779 200.484 33.7764C200.383 33.5902 200.315 33.404 200.281 33.2178C200.247 33.0146 200.222 32.82 200.205 32.6338C200.205 32.4307 200.197 32.236 200.18 32.0498C200.163 31.8467 200.12 31.6436 200.053 31.4404C200.019 31.3727 199.968 31.3135 199.9 31.2627C199.833 31.2119 199.773 31.1442 199.723 31.0596C199.621 30.8903 199.553 30.7464 199.52 30.6279C199.486 30.5094 199.376 30.4163 199.189 30.3486C198.597 30.3486 197.996 30.3317 197.387 30.2979C196.794 30.264 196.21 30.2809 195.635 30.3486C195.499 30.3656 195.381 30.3994 195.279 30.4502C195.178 30.484 195.059 30.5094 194.924 30.5264C194.856 30.5264 194.788 30.5179 194.721 30.501C194.653 30.484 194.594 30.4756 194.543 30.4756C194.306 30.5094 194.077 30.6195 193.857 30.8057C193.637 30.9749 193.468 31.1442 193.35 31.3135C193.282 31.415 193.24 31.542 193.223 31.6943C193.223 31.8298 193.197 31.9652 193.146 32.1006C193.096 32.236 193.011 32.363 192.893 32.4814C192.774 32.583 192.732 32.7184 192.766 32.8877C192.579 33.0231 192.419 33.1924 192.283 33.3955C192.165 33.5986 192.046 33.8102 191.928 34.0303C191.809 34.2334 191.674 34.4281 191.521 34.6143C191.386 34.8005 191.217 34.9359 191.014 35.0205C190.929 35.0544 190.844 35.0967 190.76 35.1475C190.692 35.1982 190.616 35.2236 190.531 35.2236C190.447 35.2067 190.396 35.1813 190.379 35.1475C190.379 35.1136 190.328 35.0628 190.227 34.9951C190.125 34.9274 190.007 34.8512 189.871 34.7666C189.719 34.682 189.575 34.5889 189.439 34.4873C189.304 34.3857 189.186 34.2842 189.084 34.1826C188.965 34.0641 188.881 33.9541 188.83 33.8525C188.695 33.5648 188.669 33.3617 188.754 33.2432C188.839 33.1077 188.949 32.9469 189.084 32.7607C189.27 32.4899 189.482 32.1852 189.719 31.8467C189.956 31.5081 190.167 31.1865 190.354 30.8818C190.455 30.7126 190.54 30.5518 190.607 30.3994C190.692 30.2471 190.794 30.1032 190.912 29.9678C191.048 29.7816 191.217 29.6292 191.42 29.5107C191.64 29.3923 191.792 29.2399 191.877 29.0537C191.911 28.9691 191.928 28.8844 191.928 28.7998C191.928 28.6982 191.945 28.5967 191.979 28.4951C192.114 28.1566 192.326 27.8519 192.613 27.5811C192.901 27.3102 193.121 27.0055 193.273 26.667C193.307 26.5824 193.324 26.5062 193.324 26.4385C193.341 26.3538 193.367 26.2692 193.4 26.1846C193.671 25.5583 194.001 24.9997 194.391 24.5088C194.797 24.0179 195.144 23.527 195.432 23.0361ZM198.986 22.96C198.783 23.1123 198.605 23.29 198.453 23.4932C198.318 23.6794 198.132 23.8232 197.895 23.9248C197.827 24.0771 197.742 24.221 197.641 24.3564C197.556 24.4919 197.438 24.6019 197.285 24.6865C197.234 24.9574 197.133 25.1943 196.98 25.3975C196.828 25.5837 196.684 25.7699 196.549 25.9561C196.481 26.0238 196.422 26.0999 196.371 26.1846C196.32 26.2523 196.261 26.3285 196.193 26.4131C196.109 26.4977 196.024 26.5654 195.939 26.6162C195.855 26.6501 195.779 26.7008 195.711 26.7686C195.609 26.904 195.499 27.0902 195.381 27.3271C195.262 27.5641 195.152 27.7588 195.051 27.9111C194.966 27.9958 194.882 28.0804 194.797 28.165C194.712 28.2497 194.687 28.3597 194.721 28.4951C194.771 28.6305 194.873 28.7236 195.025 28.7744C195.178 28.8083 195.347 28.8337 195.533 28.8506C195.736 28.8506 195.931 28.8421 196.117 28.8252C196.303 28.8083 196.456 28.7998 196.574 28.7998C196.811 28.7998 197.048 28.8083 197.285 28.8252C197.539 28.8252 197.776 28.8167 197.996 28.7998C198.233 28.7829 198.436 28.7406 198.605 28.6729C198.792 28.6051 198.936 28.5036 199.037 28.3682C199.206 27.8265 199.249 27.2848 199.164 26.7432C199.079 26.1846 199.003 25.6344 198.936 25.0928C198.902 24.9404 198.876 24.7712 198.859 24.585C198.842 24.3988 198.842 24.2295 198.859 24.0771C198.876 23.9079 198.927 23.7471 199.012 23.5947C199.113 23.4255 199.13 23.2308 199.062 23.0107L198.986 22.96Z" fill="#181E3C"/>
<path d="M210.209 30.7295C209.972 31.2204 209.777 31.7705 209.625 32.3799C209.49 32.9893 209.354 33.5394 209.219 34.0303C209.151 34.2673 209.016 34.445 208.812 34.5635C208.626 34.665 208.415 34.7327 208.178 34.7666C207.941 34.8174 207.704 34.8512 207.467 34.8682C207.23 34.8851 207.035 34.9189 206.883 34.9697C206.73 35.0205 206.561 35.0967 206.375 35.1982C206.206 35.3167 206.036 35.4183 205.867 35.5029C205.698 35.6045 205.537 35.6807 205.385 35.7314C205.249 35.7822 205.148 35.7738 205.08 35.7061C205.012 35.6383 205.004 35.4775 205.055 35.2236C205.105 34.9867 205.19 34.7074 205.309 34.3857C205.427 34.0641 205.562 33.734 205.715 33.3955C205.884 33.04 206.045 32.7184 206.197 32.4307C206.299 32.2275 206.367 31.9567 206.4 31.6182C206.434 31.2627 206.46 30.9665 206.477 30.7295C206.477 30.6449 206.46 30.5687 206.426 30.501C206.392 30.4163 206.383 30.3317 206.4 30.2471C206.417 30.1624 206.468 30.0524 206.553 29.917C206.654 29.7816 206.739 29.6462 206.807 29.5107C206.925 29.2061 206.993 28.859 207.01 28.4697C207.044 28.0635 207.111 27.7249 207.213 27.4541C207.247 27.3695 207.289 27.2933 207.34 27.2256C207.408 27.141 207.458 27.0563 207.492 26.9717C207.526 26.8701 207.535 26.7432 207.518 26.5908C207.501 26.4385 207.492 26.2946 207.492 26.1592C207.492 25.9391 207.535 25.6937 207.619 25.4229C207.721 25.1351 207.814 24.8643 207.898 24.6104C207.983 24.3395 208.042 24.0856 208.076 23.8486C208.127 23.5947 208.118 23.3747 208.051 23.1885C208 22.9346 207.975 22.7653 207.975 22.6807C207.975 22.596 207.958 22.5368 207.924 22.5029C207.839 22.4183 207.805 22.3675 207.822 22.3506C207.856 22.3167 207.822 22.266 207.721 22.1982C207.636 22.1136 207.551 22.0459 207.467 21.9951C207.399 21.9274 207.306 21.8512 207.188 21.7666C207.086 21.6989 206.976 21.6396 206.857 21.5889C206.756 21.5212 206.697 21.4111 206.68 21.2588C206.832 21.1234 206.959 21.0303 207.061 20.9795C207.179 20.9287 207.289 20.9033 207.391 20.9033C207.492 20.8864 207.602 20.8949 207.721 20.9287C207.839 20.9456 207.983 20.9626 208.152 20.9795C208.44 21.0133 208.694 21.0218 208.914 21.0049C209.151 20.988 209.439 20.9795 209.777 20.9795C209.997 20.9795 210.243 21.0049 210.514 21.0557C210.801 21.0895 211.055 21.1234 211.275 21.1572C211.495 21.1911 211.715 21.1995 211.936 21.1826C212.173 21.1488 212.384 21.1488 212.57 21.1826C212.723 21.2165 212.858 21.2588 212.977 21.3096C213.095 21.3434 213.239 21.3604 213.408 21.3604C213.882 21.3604 214.331 21.3096 214.754 21.208C215.194 21.1064 215.609 21.0895 215.998 21.1572C216.133 21.1911 216.277 21.2334 216.43 21.2842C216.599 21.335 216.76 21.3857 216.912 21.4365C217.064 21.4873 217.174 21.5296 217.242 21.5635C217.327 21.5804 217.437 21.6143 217.572 21.665C217.708 21.7158 217.843 21.8005 217.979 21.9189C218.131 22.0205 218.283 22.139 218.436 22.2744C218.673 22.4437 218.91 22.6214 219.146 22.8076C219.4 22.9938 219.57 23.2223 219.654 23.4932C219.688 23.5778 219.73 23.7132 219.781 23.8994C219.849 24.0856 219.883 24.221 219.883 24.3057C219.9 24.5257 219.84 24.7458 219.705 24.9658C219.84 25.1689 219.891 25.3975 219.857 25.6514C219.824 25.8883 219.739 26.1338 219.604 26.3877C219.485 26.6247 219.333 26.8532 219.146 27.0732C218.96 27.2933 218.791 27.4795 218.639 27.6318C218.385 27.8688 218.105 28.0804 217.801 28.2666C217.513 28.4359 217.2 28.6051 216.861 28.7744C216.675 28.859 216.497 28.9691 216.328 29.1045C216.159 29.223 215.998 29.3161 215.846 29.3838C215.761 29.4176 215.71 29.4261 215.693 29.4092C215.693 29.3923 215.643 29.3923 215.541 29.4092C215.202 29.4769 214.872 29.5954 214.551 29.7646C214.229 29.9339 213.891 30.0609 213.535 30.1455C213.451 30.1794 213.357 30.1963 213.256 30.1963C213.154 30.1794 213.061 30.1794 212.977 30.1963C212.723 30.2301 212.469 30.2979 212.215 30.3994C211.978 30.484 211.732 30.5433 211.479 30.5771C211.242 30.611 211.021 30.6279 210.818 30.6279C210.632 30.6279 210.429 30.6618 210.209 30.7295ZM211.453 25.1689C211.385 25.4059 211.326 25.6429 211.275 25.8799C211.242 26.1169 211.199 26.3538 211.148 26.5908C211.115 26.7432 211.055 26.9209 210.971 27.124C210.903 27.3271 210.844 27.5303 210.793 27.7334C210.742 27.9196 210.725 28.0889 210.742 28.2412C210.759 28.3936 210.844 28.4951 210.996 28.5459C211.081 28.5628 211.157 28.5544 211.225 28.5205C211.309 28.4867 211.402 28.4613 211.504 28.4443C211.572 28.4443 211.639 28.4613 211.707 28.4951C211.792 28.512 211.876 28.512 211.961 28.4951C212.587 28.4443 213.163 28.3343 213.688 28.165C214.229 27.9958 214.568 27.6488 214.703 27.124C214.771 27.0902 214.83 27.0648 214.881 27.0479C214.949 27.014 215.025 26.9801 215.109 26.9463C215.363 26.6755 215.575 26.3031 215.744 25.8291C215.93 25.3551 216.04 24.9235 216.074 24.5342C216.074 24.3988 216.015 24.2549 215.896 24.1025C215.795 23.9333 215.727 23.8063 215.693 23.7217C215.66 23.654 215.583 23.5863 215.465 23.5186C215.346 23.4339 215.211 23.3577 215.059 23.29C214.906 23.2054 214.745 23.1377 214.576 23.0869C214.424 23.0361 214.305 23.0023 214.221 22.9854C214.035 22.9515 213.882 22.96 213.764 23.0107C213.645 23.0446 213.501 23.07 213.332 23.0869C213.095 23.1038 212.875 23.1038 212.672 23.0869C212.469 23.07 212.291 23.1377 212.139 23.29C212.088 23.5947 211.978 23.9079 211.809 24.2295C211.656 24.5342 211.538 24.8473 211.453 25.1689Z" fill="#181E3C"/>
</svg>
