<svg width="24" height="24" fill="none" xmlns="http://www.w3.org/2000/svg"><circle cx="12" cy="12" r="12" fill="#E78613"/><path fill-rule="evenodd" clip-rule="evenodd" d="M16.836 10.519c-.188 1.015-.737 1.615-1.65 1.8.58.33.966.744 1.159 1.24.192.495.146 1.11-.14 1.845a3.247 3.247 0 01-.552.943c-.22.254-.46.447-.723.577-.263.13-.567.215-.912.254-.346.039-.697.04-1.052.002a9.835 9.835 0 01-1.198-.211l-.596 2.076-1.23-.353.585-2.044c-.426-.122-.75-.218-.973-.288l-.588 2.052-1.231-.353.595-2.076a3.51 3.51 0 00-.443-.083c-.2-.028-.35-.056-.452-.085l-1.599-.459.675-1.419.888.255c.266.076.46-.018.582-.283l.939-3.272.128.036a.83.83 0 00-.126-.044l.67-2.337c.037-.389-.148-.642-.553-.758l-.887-.254.383-1.335 1.692.494c.341.098.6.169.778.214l.588-2.052 1.232.353-.577 2.011c.44.115.767.203.98.264l.572-1.995 1.231.353-.588 2.052c.41.159.766.327 1.067.504.3.177.567.386.798.625.231.24.39.515.477.824.087.31.096.649.025 1.016l.026-.09zm-2.991 3.944c.055-.195.065-.38.029-.555a1.267 1.267 0 00-.188-.46 1.572 1.572 0 00-.389-.38 3.983 3.983 0 00-.48-.3 4.82 4.82 0 00-.571-.244 8.815 8.815 0 00-1.063-.322l-.382-.1-.789 2.751c.043.012.138.054.284.126.147.071.271.121.373.15a10.466 10.466 0 00.904.211c.134.024.293.045.475.062.183.017.342.021.477.013.135-.008.278-.03.428-.062.151-.033.28-.085.386-.154.107-.07.203-.159.29-.27a1.14 1.14 0 00.194-.393l.021-.073zm.58-4.543c.027.158.014.326-.037.505l-.02.073c-.037.128-.101.26-.192.395-.09.135-.193.22-.306.251a2.536 2.536 0 00-.358.135.693.693 0 01-.431.04 1.53 1.53 0 00-.438-.029 1.002 1.002 0 01-.452-.081 1.164 1.164 0 00-.405-.098.879.879 0 01-.371-.107 2.98 2.98 0 00-.265-.12l.717-2.5c.044-.013.153.004.327.05.174.048.32.086.434.116.116.03.268.082.458.154s.348.14.473.206c.126.065.26.152.402.26.142.108.248.221.318.338.07.117.119.254.146.412z" fill="#fff"/></svg>