<svg width="24" height="24" viewBox="0 0 24 24" fill="none" xmlns="http://www.w3.org/2000/svg">
<g clip-path="url(#clip0)">
<path d="M13.6667 7.14017C13.6667 3.80909 12.0879 0.94447 10.887 0.0117474C10.8821 0.00869407 10.7951 -0.0414176 10.8024 0.0916745C10.8026 0.0934707 10.801 0.0940095 10.801 0.095626C10.701 6.52733 7.50423 8.27046 5.74671 10.6187C1.69079 16.0376 5.4629 21.9788 9.30387 23.0767C11.4532 23.6912 8.80756 21.9895 8.46679 18.3957C8.05488 14.0518 13.6667 10.7362 13.6667 7.14017Z" fill="#2D3338"/>
<path d="M16.1833 9.69367C16.1066 10.483 15.1745 12.1707 13.993 13.7205C9.98586 18.9778 12.2694 21.5117 13.5535 22.873C14.299 23.6632 13.5535 22.873 15.417 22.0655C15.5632 22.0022 19.0531 20.3097 19.4312 16.4536C19.797 12.7196 17.2034 10.3659 16.2802 9.68197C16.2517 9.66517 16.2113 9.65362 16.1833 9.69367Z" fill="#01943F"/>
</g>
<defs>
<clipPath id="clip0">
<rect width="24" height="24" fill="white"/>
</clipPath>
</defs>
</svg>
