<svg width="50" height="50" viewBox="0 0 50 50" fill="none" xmlns="http://www.w3.org/2000/svg">
<path d="M27.8335 16.3487C27.8335 10.5093 25.0659 5.48768 22.9608 3.85262C22.9522 3.84727 22.7997 3.75943 22.8125 3.99274C22.8128 3.99588 22.81 3.99683 22.81 3.99966C22.6347 15.2744 17.0308 18.33 13.9499 22.4465C6.83992 31.9457 13.4524 42.3606 20.1856 44.2852C23.9533 45.3624 19.3155 42.3794 18.7182 36.0795C17.9961 28.4647 27.8335 22.6525 27.8335 16.3487Z" fill="white"/>
<path d="M32.2451 20.8247C32.1106 22.2084 30.4767 25.1669 28.4055 27.8837C21.3811 37.0997 25.3841 41.5416 27.6351 43.9279C28.9419 45.3131 27.6351 43.9279 30.9018 42.5124C31.1581 42.4014 37.2758 39.4345 37.9386 32.6748C38.5799 26.1291 34.0333 22.0031 32.415 20.8042C32.365 20.7748 32.2942 20.7545 32.2451 20.8247Z" fill="#01943F"/>
</svg>
