<svg width="24" height="24" viewBox="0 0 24 24" fill="none" xmlns="http://www.w3.org/2000/svg">
<path d="M12 24C18.6274 24 24 18.6274 24 12C24 5.37258 18.6274 0 12 0C5.37258 0 0 5.37258 0 12C0 18.6274 5.37258 24 12 24Z" fill="#3C3C3C"/>
<path d="M13.0833 9.23202C13.0833 6.79114 11.9265 4.69207 11.0465 4.00861C11.0429 4.00637 10.9791 3.96965 10.9845 4.06718C10.9847 4.06849 10.9835 4.06889 10.9835 4.07007C10.9102 8.78296 8.56776 10.0603 7.27991 11.781C4.30791 15.7517 7.07195 20.1052 9.88646 20.9097C11.4614 21.3599 9.52278 20.113 9.27308 17.4796C8.97125 14.2965 13.0833 11.867 13.0833 9.23202Z" fill="white"/>
<path d="M14.9266 11.1027C14.8704 11.681 14.1874 12.9177 13.3216 14.0534C10.3854 17.9057 12.0587 19.7625 12.9996 20.7599C13.5459 21.3389 12.9996 20.7599 14.3651 20.1682C14.4722 20.1219 17.0295 18.8817 17.3065 16.056C17.5746 13.32 15.6741 11.5952 14.9976 11.0941C14.9767 11.0818 14.9471 11.0733 14.9266 11.1027Z" fill="#01943F"/>
</svg>
