<svg width="254" height="190" viewBox="0 0 254 190" fill="none" xmlns="http://www.w3.org/2000/svg">
<path d="M170.255 146.249C183.671 147.885 195.181 156.158 204.653 157.292C215.181 158.551 231.101 151.634 247.337 159.775C251.516 161.871 254.947 164.389 253.669 167.518C251.441 172.972 246.752 175.109 236.481 176.591L235.386 176.743C227.446 177.799 218.912 178.054 197.279 178.197L189.887 178.253C163.516 178.483 148.266 179.718 128.518 181.295L126.505 181.458C90.1391 184.451 61.1112 183.971 39.4211 180.654L38.766 180.553C21.242 177.808 10.7062 173.268 5.56314 168.116C2.53547 165.084 0.791461 162.256 0.701442 159.233C0.611424 156.211 5.07688 152.889 7.61922 151.634C14.7014 148.14 17.0122 146.873 30.6275 145.084C36.4897 144.313 45.2724 144.375 55.4244 144.032C91.8431 142.802 148.105 143.548 170.255 146.249Z" fill="white"/>
<path fill-rule="evenodd" clip-rule="evenodd" d="M180.896 152.84C160.251 199.569 85.5394 198.064 33.5543 166.17C23.6262 160.079 -10.5013 131.37 23.0882 114.605C56.6776 97.8412 45.9189 72.0914 73.0268 41.3788C104.376 5.86111 162.756 -12.3556 203.814 35.4318C308.169 156.891 187.848 137.105 180.896 152.84Z" fill="#0000FF"/>
<path fill-rule="evenodd" clip-rule="evenodd" d="M42.8833 28.9307C41.022 25.94 39.1569 24.7925 37.3222 25.7851C35.769 26.6254 35.5107 28.8699 36.3371 32.4607L35.8419 32.7277C35.1613 33.0947 34.9071 33.9439 35.2741 34.6245C35.3058 34.6833 35.3417 34.7398 35.3816 34.7936L35.647 35.1487C39.5216 40.2885 42.5918 42.3936 44.9872 41.236C47.0005 40.263 47.3406 36.1187 46.3048 28.6192C46.2322 28.094 45.7641 27.7207 45.2428 27.7586L45.1774 27.7655C45.0591 27.7818 44.9447 27.8192 44.8396 27.8759L42.8833 28.9307ZM37.3896 31.6557L41.7092 29.3187L41.6991 29.3028C40.2137 26.999 38.9552 26.2661 37.8933 26.8406L37.8445 26.8686C37.0604 27.3472 36.8431 28.8508 37.3425 31.4205L37.3896 31.6557ZM45.1546 29.0691L36.4115 33.7839C36.3143 33.8363 36.2779 33.9576 36.3304 34.0548C36.3349 34.0633 36.34 34.0713 36.3457 34.079L36.6033 34.4236C40.1447 39.1212 42.8084 40.9561 44.4651 40.1555C45.7238 39.5472 46.0542 35.8527 45.1784 29.2438L45.1546 29.0691ZM43.368 36.6286C43.5737 36.4132 43.7 36.1213 43.7 35.8C43.7 35.1372 43.1627 34.6 42.5 34.6C41.8372 34.6 41.3 35.1372 41.3 35.8C41.3 36.4627 41.8372 37 42.5 37C42.5522 37 42.6036 36.9967 42.654 36.9902L43.3361 38.2424L43.3608 38.2821C43.4763 38.4457 43.6986 38.5004 43.8787 38.4023C44.0727 38.2966 44.1443 38.0537 44.0387 37.8597L43.368 36.6286Z" fill="#0000FF"/>
<path fill-rule="evenodd" clip-rule="evenodd" d="M170.255 146.249C183.671 147.885 195.181 156.158 204.653 157.292C215.181 158.551 231.101 151.634 247.337 159.775C251.516 161.871 254.947 164.389 253.669 167.518C251.441 172.972 246.752 175.109 236.481 176.591L235.386 176.743C227.446 177.799 218.912 178.054 197.279 178.197L189.887 178.253C163.516 178.483 148.266 179.718 128.518 181.295L126.505 181.458C90.1391 184.451 61.1112 183.971 39.4211 180.654L38.766 180.553C21.242 177.808 10.7062 173.268 5.56314 168.116C2.53547 165.084 0.791461 162.256 0.701442 159.233C0.611424 156.211 5.07688 152.889 7.61922 151.634C14.7014 148.14 17.0122 146.873 30.6275 145.084C36.4897 144.313 45.2724 144.375 55.4244 144.032C91.8431 142.802 148.105 143.548 170.255 146.249ZM30.327 147.615L29.4347 147.734C16.7467 149.454 8.63593 152.585 4.79373 155.705L4.55393 155.906C1.60366 158.448 1.32785 161.306 5.56863 165.532C10.2055 170.151 22.0319 175.363 39.0844 178.02C60.4328 181.347 89.1346 182.313 125.179 179.42L128.958 179.115C149.767 177.479 165.733 176.608 195.282 176.401L203.438 176.34C221.03 176.181 228.508 175.866 235.726 174.863L236.412 174.764C268.286 168.529 245.287 157.343 232.092 157.292C220.791 157.248 207.218 160.427 203.438 159.237C191.525 155.487 185.408 149.745 170.255 147.908L165.849 147.38L162.088 147.203C100.444 144.339 56.5115 144.193 30.327 147.615Z" fill="#00160A"/>
<path d="M70.2505 2.75121C70.0316 2.74416 69.8125 2.7444 69.5936 2.75193C64.1993 2.93742 59.965 7.41737 60.0627 12.7971L60.067 12.9604L60.1332 14.9763C60.3227 21.0312 60.4269 27.0622 60.4458 33.0692L60.4784 51.552C60.4857 58.2043 60.4816 64.2082 60.4621 70.0876L60.4354 76.3227C60.3306 96.1739 60.0478 110.106 59.523 116.17L59.4216 117.304C58.7882 124.716 58.657 135.361 59.0326 149.215C59.037 149.375 59.0451 149.535 59.0569 149.695C59.472 155.312 64.3171 159.543 69.9217 159.22L70.0918 159.209L71.9544 159.073C89.3649 157.831 106.776 157.21 124.187 157.21C141.228 157.21 158.401 157.805 175.704 158.995C176.204 159.029 176.706 159.033 177.207 159.004C183.768 158.633 188.8 153.066 188.537 146.523L188.527 146.325L188.396 143.965C187.235 122.707 186.633 101.449 186.592 80.1912L186.589 77.8292C186.589 62.3353 187.315 41.0859 188.765 14.0718C188.782 13.7692 188.785 13.466 188.776 13.1631C188.593 7.29904 183.739 2.68051 177.895 2.76739L177.717 2.77146L168.871 3.03967C148.773 3.63246 134.139 3.94221 124.958 3.96885L123.385 3.97061L121.766 3.96642C112.395 3.92617 97.8877 3.60479 78.2356 3.00234L70.2505 2.75121Z" fill="white"/>
<path fill-rule="evenodd" clip-rule="evenodd" d="M177.032 2.20007C176.323 2.58834 175.39 2.86146 174.23 3.01905C177.214 3.28407 179.56 3.22223 181.268 2.83372L180.898 2.78801C179.695 2.63614 178.407 2.44016 177.032 2.20007" fill="#E7EAEE"/>
<path fill-rule="evenodd" clip-rule="evenodd" d="M64.8215 145.247L64.9046 145.251C65.4202 145.286 65.7838 145.689 65.7364 146.133C65.6821 146.642 65.1384 147.136 64.5447 147.177C64.0729 147.209 63.7451 146.846 63.7975 146.283C63.8524 145.692 64.3155 145.25 64.8215 145.247Z" fill="#E7EAEE"/>
<path fill-rule="evenodd" clip-rule="evenodd" d="M74.264 152.973L74.3471 152.976C74.8627 153.012 75.2263 153.415 75.1789 153.859C75.1246 154.368 74.5809 154.861 73.9872 154.902C73.5154 154.935 73.1876 154.572 73.24 154.008C73.2949 153.417 73.758 152.975 74.264 152.973Z" fill="#E7EAEE"/>
<path fill-rule="evenodd" clip-rule="evenodd" d="M124.291 152.465C103.806 156.987 142.269 156.188 157.274 155.197C165.439 154.658 171.96 158.737 175.704 158.995C176.204 159.029 176.707 159.032 177.208 159.004C183.768 158.633 188.801 153.066 188.537 146.523L188.527 146.325L188.396 143.965C187.235 122.707 186.633 101.449 186.592 80.1911L186.59 77.8291C186.59 62.3353 187.315 41.0859 188.766 14.0717C188.782 13.7691 188.785 13.4659 188.776 13.163C188.594 7.29896 177.357 140.754 124.291 152.465Z" fill="#E7EAEE"/>
<path d="M185.048 147.001L185.12 147.003C185.493 147.033 185.799 147.422 185.755 147.897C185.706 148.422 185.253 148.895 184.801 148.93C184.483 148.955 184.214 148.614 184.262 148.027C184.31 147.426 184.687 147.01 185.048 147.001Z" fill="white"/>
<path fill-rule="evenodd" clip-rule="evenodd" d="M184.919 150.428C183.586 150.533 182.648 149.341 182.764 147.906C182.877 146.511 183.939 145.404 185.215 145.504C186.47 145.604 187.37 146.749 187.251 148.036C187.136 149.272 186.118 150.333 184.919 150.428ZM185.12 147.003L185.048 147.001C184.687 147.01 184.31 147.426 184.262 148.027C184.214 148.614 184.483 148.955 184.801 148.93C185.253 148.895 185.706 148.422 185.755 147.897C185.799 147.422 185.493 147.033 185.12 147.003Z" fill="white"/>
<path d="M172.36 11.4089C177.1 11.4089 180.944 15.2521 180.944 19.993C180.944 20.1704 180.938 20.3478 180.927 20.5249L180.801 22.6279C180.571 26.6192 180.34 31.358 180.111 36.8444L180.076 37.7228C179.515 52.4814 179.498 87.397 180.023 142.47C180.068 147.21 176.262 151.09 171.521 151.135C171.405 151.136 171.29 151.135 171.174 151.132L76.9973 148.226C72.6366 148.092 69.0704 144.708 68.7076 140.36L68.6277 139.378C67.3873 123.745 67.3135 103.782 68.4062 79.4918L68.5664 76.0083C69.1244 63.2257 69.1682 44.609 68.6978 20.1581C68.6075 15.4675 72.2971 11.5833 76.9674 11.4145L77.1978 11.4092L172.36 11.4089Z" fill="white"/>
<path fill-rule="evenodd" clip-rule="evenodd" d="M109.041 112.641C113.202 112.816 117.474 112.078 121.18 110.268C125.82 108 129.312 104.196 131.245 98.7411C133.791 91.5566 132.856 83.7878 129.196 76.9501C125.938 70.8642 120.817 66.2325 116.096 65.0871C116.096 65.0871 129.196 83.5144 127.319 93.588C124.45 108.991 109.041 112.641 109.041 112.641Z" fill="#E7EAEE"/>
<path fill-rule="evenodd" clip-rule="evenodd" d="M112.067 91C114.092 91.84 114.71 93.4006 113.921 95.6821L113.876 95.8096C108.749 109.889 102.702 110.017 107.876 95.8096C108.503 94.0884 108.348 92.768 107.41 91.8486C109.067 91.5121 110.619 91.2292 112.067 91" fill="#E7EAEE"/>
<path fill-rule="evenodd" clip-rule="evenodd" d="M79.952 74.5428C81.2786 70.601 83.2159 67.6379 86.8365 65.295L87.2964 65.0034C88.0777 64.513 89.0406 63.9578 89.8238 64.3371C90.8189 64.819 92.2598 66.5753 91.3831 67.2648C90.7887 67.7323 88.3415 68.2295 86.4968 69.8456C84.319 71.7534 82.7516 74.8277 82.7516 75.5805C82.7516 78.0364 79.1686 76.8704 79.952 74.5428Z" fill="#E7EAEE"/>
<path fill-rule="evenodd" clip-rule="evenodd" d="M75.8493 18.3608C71.295 30.8658 71.3261 33.347 71.0528 31.1916C70.1689 24.2209 69.5023 19.6402 70.5524 16.8577C71.8819 13.3349 75.2148 12.642 76.0733 13.0508C77.8883 13.9153 75.8493 18.3608 75.8493 18.3608Z" fill="#E7EAEE"/>
<path fill-rule="evenodd" clip-rule="evenodd" d="M150.779 82.6268L149.263 82.5804C147.466 82.5347 146.17 82.5454 145.083 82.6303C144.21 82.6985 143.559 82.8177 143.19 82.9343L143.117 82.9586L143.11 82.9931C143.069 83.197 143.04 83.47 143.027 83.7998L143.023 83.9261C142.999 84.9161 143.118 86.2386 143.356 87.7156C143.551 88.9267 143.817 90.1847 144.095 91.245L144.165 91.5058C144.272 91.9016 144.376 92.2456 144.467 92.5134L144.5 92.609L144.54 92.6238C145.098 92.8223 146.208 92.8457 148.348 92.6879L149.801 92.5745C150.781 92.5025 151.494 92.4714 152.198 92.4802L159.029 92.6233C159.985 92.6411 160.848 92.6551 161.694 92.6663L163.228 92.6837C167.06 92.9067 171.272 92.7394 171.796 91.7857C173.394 88.8764 174.147 82.8849 173.394 82.8448C172.038 82.7728 170.397 82.6877 169.618 82.698L167.818 82.7306L166.186 82.7436C165.441 82.748 164.663 82.7504 163.829 82.7511L154.467 82.7295C153.859 82.7253 153.263 82.7105 152.188 82.675L150.779 82.6268Z" fill="#E7EAEE"/>
<path fill-rule="evenodd" clip-rule="evenodd" d="M78.997 0.878522L70.3197 0.606222C70.0532 0.597642 69.7865 0.597934 69.52 0.607097C62.8867 0.835197 57.6942 6.39748 57.9223 13.0308L57.9884 15.0433C58.0661 17.5286 58.1844 20.0098 58.3025 22.4869C58.5031 26.6932 58.7031 30.8878 58.7031 35.0706L58.731 50.2413C58.7577 71.3977 58.6936 106.24 57.7539 116.332L57.6832 117.125C57.0724 124.275 56.5237 134.335 56.8371 147.306L56.8875 149.273C56.8928 149.467 56.9025 149.66 56.9168 149.853C57.4235 156.709 63.3918 161.856 70.2474 161.349L72.1073 161.214L72.4154 161.192C72.4771 161.295 72.5395 161.398 72.6012 161.5L72.6028 161.502C72.904 161.999 73.1855 162.464 73.2509 162.692C73.4159 163.267 73.4333 163.919 73.338 165.393L73.2415 166.775L73.2153 167.223C73.0746 169.977 73.3927 171.616 74.7363 172.85C76.4644 174.437 78.295 174.268 82.046 173.924L82.2146 173.908L83.1802 173.815C84.2963 173.707 85.5513 173.794 86.4064 173.853C86.6527 173.87 86.8658 173.885 87.0328 173.892L87.3486 173.908C89.5009 173.994 89.8426 173.286 90.031 171.534C90.1348 170.569 89.9996 169.81 89.4326 167.851L89.0083 166.407L88.8674 165.905C88.2051 163.457 88.2656 162.236 89.1285 161.645C89.3378 161.501 90.2122 161.241 91.2207 160.941L91.2209 160.941C92.2586 160.633 93.4381 160.282 94.1811 159.972C104.183 159.561 114.185 159.356 124.187 159.356C134.696 159.356 145.255 159.583 155.865 160.037C155.795 160.151 155.782 160.317 155.856 160.548C155.941 160.809 156.26 160.989 156.668 161.22C157.749 161.831 159.454 162.795 159.057 166.539L159.059 166.693C159.119 169.644 160.907 171.375 163.785 171.962C165.709 172.355 167.897 172.236 170.28 171.823C171.46 171.618 172.22 170.88 172.583 169.756C172.784 169.135 172.855 168.577 172.903 167.466C172.903 167.466 172.378 161.695 175.296 161.118C175.383 161.124 175.47 161.13 175.557 161.136C175.895 161.159 176.233 161.17 176.572 161.169C176.617 161.18 176.663 161.192 176.71 161.204C176.85 161.242 176.983 161.22 177.103 161.158C177.178 161.155 177.254 161.151 177.329 161.147C185.139 160.705 191.112 154.015 190.67 146.205L190.539 143.848C189.337 121.841 188.735 99.8353 188.735 77.8291C188.735 62.8435 189.417 42.4335 190.78 16.5994L190.909 14.1868C190.928 13.8236 190.932 13.4598 190.921 13.0963C190.7 5.98842 184.759 0.405446 177.651 0.626399L173.146 0.764748C150.822 1.44159 134.758 1.79426 124.956 1.82276L123.387 1.82452C114.235 1.81744 99.4385 1.50211 78.997 0.878522ZM172.366 160.923C167.406 160.603 162.457 160.331 157.518 160.109C159.883 161.257 160.726 163.4 160.773 166.364L160.774 166.539C160.774 168.457 162.266 169.709 164.273 170.118C164.483 170.161 164.698 170.208 164.919 170.256C166.305 170.557 167.89 170.9 169.647 170.612L169.914 170.567C171.129 170.118 171.129 165.752 171.129 165.752C171.143 165.397 171.155 165.165 171.176 164.883L171.202 164.566C171.354 162.977 171.686 161.789 172.366 160.923ZM75.3138 162.101C75.1972 161.694 75.0308 161.335 74.8158 161.026C79.0266 160.741 83.2373 160.492 87.4481 160.28C86.7902 161.013 86.7285 162.003 86.7042 163.187C86.6833 164.206 86.8893 165.29 87.3226 166.817L87.3486 166.908L87.7449 168.258C88.2303 169.925 88.3762 170.622 88.3353 171.206L88.3265 171.305C88.2682 171.847 87.572 172.459 86.3956 172.39L86.1851 172.379C85.6809 172.303 80.7122 172.39 80.7122 172.39C78.4179 172.622 77.3133 172.303 76.1878 171.269C75.4321 170.575 75.2295 169.343 75.3784 166.985L75.4713 165.661C75.5878 163.93 75.5781 163.12 75.3602 162.271L75.3138 162.101ZM69.5936 2.75192C69.8125 2.7444 70.0316 2.74416 70.2505 2.75121L78.2356 3.00234C97.8877 3.60479 112.395 3.92617 121.766 3.96642L123.385 3.97061L124.958 3.96885C134.139 3.94221 148.773 3.63246 168.871 3.03967L177.717 2.77146L177.895 2.76739C183.739 2.68051 188.593 7.29904 188.776 13.1631C188.785 13.466 188.782 13.7692 188.765 14.0718C187.315 41.0859 186.589 62.3353 186.589 77.8292L186.592 80.1912C186.633 101.449 187.235 122.707 188.396 143.965L188.527 146.325L188.537 146.523C188.801 153.066 183.768 158.633 177.207 159.004C176.706 159.033 176.204 159.029 175.704 158.995C158.401 157.805 141.228 157.21 124.187 157.21C106.776 157.21 89.3649 157.831 71.9545 159.073L70.0918 159.209L69.9217 159.22C64.3171 159.543 59.472 155.312 59.0569 149.695C59.0451 149.535 59.037 149.375 59.0327 149.215C58.657 135.361 58.7882 124.716 59.4216 117.304L59.523 116.17C60.0478 110.106 60.3306 96.1739 60.4354 76.3227L60.4621 70.0876C60.4816 64.2082 60.4857 58.2043 60.4784 51.552L60.4458 33.0692C60.4269 27.0622 60.3227 21.0312 60.1332 14.9763L60.067 12.9604L60.0628 12.7971C59.965 7.41737 64.1993 2.93742 69.5936 2.75192ZM180.944 19.993C180.944 15.2521 177.1 11.4089 172.36 11.4089L77.1978 11.4092L76.9674 11.4145C72.2971 11.5833 68.6076 15.4675 68.6978 20.1581C69.1683 44.609 69.1245 63.2257 68.5665 76.0083L68.4062 79.4918C67.3136 103.782 67.3874 123.745 68.6277 139.378L68.7076 140.36C69.0705 144.708 72.6366 148.092 76.9973 148.226L171.174 151.132C171.225 151.133 171.275 151.134 171.326 151.135C171.391 151.136 171.456 151.136 171.521 151.135C176.262 151.09 180.068 147.21 180.023 142.47C179.498 87.397 179.515 52.4814 180.076 37.7228L180.111 36.8444C180.341 31.358 180.571 26.6192 180.801 22.6279L180.927 20.5249C180.938 20.3478 180.944 20.1704 180.944 19.993ZM77.2803 13.555H172.359C175.915 13.555 178.798 16.4374 178.798 19.9931C178.798 20.1261 178.793 20.2592 178.785 20.392C178.56 24.0119 178.337 28.3333 178.113 33.3571L177.967 36.7548C177.4 50.3132 177.345 82.7816 177.801 134.212L177.877 142.49C177.911 146.046 175.056 148.955 171.5 148.989C171.414 148.99 171.327 148.989 171.24 148.987L77.0634 146.081L76.9216 146.075C73.7159 145.906 71.1143 143.395 70.8461 140.181C69.5246 124.346 69.4362 103.887 70.5849 78.8199L70.6927 76.5002C71.2344 64.4384 71.3114 47.1411 70.9249 24.5951L70.8434 20.1169C70.775 16.5619 73.6014 13.6245 77.1564 13.5561C77.1977 13.5554 77.239 13.555 77.2803 13.555ZM73.9911 6.97322C74.1267 8.43218 73.0694 9.60302 71.6449 9.50499C70.3422 9.41534 69.1963 8.37511 69.0627 7.12235L69.0548 7.03077C68.972 5.78433 69.9269 4.72475 71.2081 4.58884L71.3047 4.5804C72.6709 4.48638 73.8604 5.56619 73.9911 6.97322ZM71.4713 6.07702L71.3882 6.08016C70.8726 6.1159 70.509 6.51858 70.5564 6.96302C70.6107 7.47184 71.1544 7.96544 71.748 8.0063C72.2199 8.03877 72.5476 7.67578 72.4953 7.11216C72.4404 6.52122 71.9773 6.07916 71.4713 6.07702ZM63.8765 18.3523C62.3914 18.4841 61.3907 17.0553 61.5142 15.3419C61.6352 13.6624 62.7885 12.3126 64.2167 12.4393L64.3088 12.4494C65.6205 12.62 66.5267 13.9103 66.4524 15.3566L66.4456 15.4578C66.3233 16.9362 65.2146 18.2336 63.8765 18.3523ZM64.1064 13.9373L64.0334 13.9337C63.5779 13.9393 63.0769 14.5549 63.0125 15.4497C62.948 16.3438 63.3323 16.8924 63.7436 16.8559C64.3018 16.8064 64.8828 16.1264 64.9484 15.3338C65.0105 14.5834 64.5881 13.9803 64.1064 13.9373ZM175.076 6.97322C174.94 8.43218 175.997 9.60302 177.422 9.50499C178.725 9.41534 179.871 8.37511 180.004 7.12235L180.012 7.03077C180.095 5.78433 179.14 4.72475 177.859 4.58884L177.762 4.5804C176.396 4.48638 175.206 5.56619 175.076 6.97322ZM177.596 6.07702L177.679 6.08016C178.194 6.1159 178.558 6.51858 178.511 6.96302C178.456 7.47184 177.913 7.96544 177.319 8.0063C176.847 8.03877 176.519 7.67578 176.572 7.11216C176.627 6.52122 177.09 6.07916 177.596 6.07702ZM183.075 15.8969C182.277 14.7123 182.763 13.2113 184.094 12.5992C185.378 12.0089 186.908 12.4991 187.51 13.7292L187.551 13.8172C188.074 14.9947 187.633 16.3514 186.512 16.903L186.429 16.9419C185.277 17.4525 183.804 16.9803 183.075 15.8969ZM186.169 14.4068L186.13 14.3333C185.875 13.8961 185.261 13.7161 184.722 13.964C184.207 14.2005 184.057 14.6658 184.321 15.0582C184.653 15.5519 185.352 15.776 185.82 15.5686C186.229 15.3874 186.396 14.8712 186.169 14.4068ZM62.8157 144.468C61.7741 145.499 61.8313 147.075 62.9856 147.916C64.0412 148.685 65.5876 148.624 66.4952 147.75L66.5601 147.685C67.4248 146.784 67.3744 145.358 66.4803 144.431L66.4116 144.362C65.4255 143.412 63.8202 143.474 62.8157 144.468ZM65.322 145.401L65.3836 145.457C65.7556 145.816 65.7753 146.358 65.4533 146.668C65.0846 147.023 64.3508 147.052 63.8698 146.701C63.4875 146.423 63.4697 145.934 63.8721 145.536C64.294 145.119 64.933 145.078 65.322 145.401ZM72.4281 155.642C71.2739 154.801 71.2166 153.225 72.2582 152.194C73.2628 151.2 74.868 151.138 75.8542 152.088L75.9228 152.156C76.8169 153.084 76.8673 154.51 76.0027 155.411L75.9377 155.476C75.0301 156.35 73.4837 156.41 72.4281 155.642ZM74.8261 153.183L74.7645 153.127C74.3755 152.804 73.7366 152.845 73.3147 153.262C72.9123 153.66 72.93 154.149 73.3124 154.427C73.7934 154.777 74.5272 154.749 74.8958 154.394C75.2178 154.084 75.1981 153.542 74.8261 153.183ZM178.105 152.693C176.91 153.899 176.877 155.673 178.151 156.586C179.318 157.421 181.065 157.256 182.11 156.228C183.193 155.162 183.224 153.446 182.159 152.402C181.08 151.347 179.271 151.517 178.105 152.693ZM181.06 153.433L181.122 153.489C181.563 153.922 181.55 154.672 181.056 155.157C180.525 155.68 179.591 155.768 179.026 155.364C178.569 155.037 178.582 154.346 179.172 153.751C179.771 153.146 180.605 153.049 181.06 153.433ZM184.919 150.428C183.586 150.533 182.648 149.341 182.764 147.906C182.877 146.511 183.939 145.404 185.215 145.504C186.47 145.604 187.37 146.749 187.251 148.036C187.136 149.272 186.118 150.333 184.919 150.428ZM185.12 147.003L185.048 147.001C184.687 147.01 184.31 147.426 184.262 148.027C184.214 148.614 184.483 148.955 184.801 148.93C185.253 148.895 185.706 148.422 185.755 147.897C185.799 147.422 185.493 147.033 185.12 147.003Z" fill="#00160A"/>
<path fill-rule="evenodd" clip-rule="evenodd" d="M72.2582 152.194C71.2166 153.225 71.2739 154.801 72.4281 155.642C73.4837 156.41 75.0302 156.35 75.9378 155.476L76.0027 155.411C76.8673 154.51 76.8169 153.084 75.9228 152.156L75.8542 152.088C74.8681 151.138 73.2628 151.2 72.2582 152.194ZM74.7645 153.127L74.8261 153.183C75.1981 153.542 75.2178 154.084 74.8958 154.394C74.5272 154.749 73.7934 154.777 73.3124 154.427C72.9301 154.149 72.9123 153.66 73.3147 153.262C73.7366 152.845 74.3755 152.804 74.7645 153.127Z" fill="#00160A"/>
<path d="M181.06 153.433L181.122 153.489C181.563 153.922 181.55 154.672 181.056 155.157C180.525 155.68 179.59 155.768 179.026 155.364C178.569 155.037 178.582 154.346 179.172 153.751C179.771 153.146 180.605 153.049 181.06 153.433Z" fill="white"/>
<path fill-rule="evenodd" clip-rule="evenodd" d="M86.3328 61.3172C85.8374 61.4893 85.3905 61.7227 84.8381 62.0628L84.4142 62.3287L84.204 62.4627C81.0033 64.5286 78.8665 67.0979 77.3463 70.5771L77.2649 70.7654L77.204 70.7472C76.8005 70.6288 76.4347 70.5708 76.0437 70.6033C75.2101 70.6726 74.4331 71.1721 74.1556 72.1031C73.7221 73.5571 73.9011 75.22 74.4638 76.9224L74.5695 77.2341C75.1185 78.8121 75.7263 79.883 76.7367 80.1957C78.0798 80.6112 82.7206 78.7717 84.3388 77.1023C85.4931 75.9116 85.0308 74.4553 83.9322 73.6148L83.8313 73.5402L83.7251 73.4668L83.6047 73.3888L83.6852 73.2447C83.7414 73.1458 83.8003 73.0452 83.8615 72.9437C84.5177 71.8556 85.3382 70.8267 86.1695 70.0984C86.4896 69.818 86.8598 69.561 87.2817 69.3212C87.9346 68.95 90.5388 67.9278 90.9772 67.583C92.3853 66.4755 92.2223 64.8717 91.3318 63.4814C90.7779 62.6167 89.9072 61.8064 89.0656 61.3989C88.1815 60.9707 87.2564 60.9965 86.3328 61.3172ZM88.2238 63.1373C89.2189 63.6192 90.6598 65.3754 89.7831 66.0649C89.1887 66.5325 86.7415 67.0296 84.8968 68.6457C82.719 70.5535 81.1516 73.6278 81.1516 74.3806L81.4 74.4738C82.7579 74.9965 83.2753 75.4246 82.952 75.7581C81.5118 77.2437 77.5974 78.4403 77.3076 78.3506C77.0223 78.2623 75.3334 74.9125 76.0065 72.6549C76.0965 72.3531 76.8783 72.5825 78.352 73.343C79.6786 69.4012 81.6159 66.438 85.2365 64.0952L85.6964 63.8036C86.4777 63.3132 87.4406 62.758 88.2238 63.1373Z" fill="#00160A"/>
<path fill-rule="evenodd" clip-rule="evenodd" d="M89.263 105.763C81.3125 97.0745 80.8523 82.2525 89.4414 72.7074C94.7776 66.7773 107.32 62.9577 116.096 65.087C120.817 66.2323 125.938 70.8641 129.196 76.95C132.856 83.7877 133.791 91.5565 131.245 98.741C129.312 104.196 125.82 108 121.18 110.268C117.474 112.078 113.202 112.816 109.041 112.641C101.533 112.325 92.1965 108.969 89.263 105.763ZM127.304 77.9628C124.312 72.3737 119.651 68.1577 115.59 67.1726L115.349 67.1159C107.343 65.3001 95.7946 68.8553 91.0367 74.1429C83.2037 82.8476 83.6252 96.423 90.8462 104.314C93.3383 107.038 102.143 110.202 109.131 110.497C112.957 110.658 116.879 109.98 120.237 108.339C124.383 106.314 127.481 102.939 129.222 98.0243C131.554 91.4445 130.693 84.2951 127.304 77.9628ZM123.17 98.5244C127.919 90.1873 121.481 72.1856 112.489 70.6833C104.037 69.2712 100.833 71.3214 97.1878 74.4823L96.483 75.1006C89.3489 81.4081 89.3489 94.958 96.3186 101.245C98.07 102.824 105.776 106.877 111.689 105.637C115.61 104.815 121.067 102.216 123.17 98.5244ZM103.324 73.0349C103.772 72.8744 104.244 72.7421 104.747 72.6391C104.679 72.7954 104.622 72.9612 104.574 73.1365C104.307 74.1165 104.335 74.955 104.622 76.9959L104.819 78.3483C104.836 78.4676 104.85 78.5769 104.865 78.6888L104.908 79.0329C105.214 81.6167 104.937 82.9644 103.781 83.7077C102.724 84.388 101.684 84.6449 99.3096 84.9213L98.4201 85.0219C97.3246 85.1482 96.7491 85.2356 96.057 85.3918L95.7437 85.4549C94.7848 85.6566 93.9886 85.9071 93.3706 86.2224C93.7781 82.5313 95.2895 79.0203 97.9045 76.7083C100.371 74.5276 101.615 73.6478 103.324 73.0349ZM112.136 72.8C111.788 72.742 111.451 72.69 111.122 72.644C111.191 72.8185 111.249 73.004 111.297 73.2C111.498 74.0186 111.532 74.7452 111.484 76.401L111.46 77.1153C111.435 77.8028 111.423 78.2118 111.42 78.6047L111.42 79.0758C111.44 81.1702 111.768 82.5626 112.574 83.5055L112.663 83.6061L112.699 83.6212C112.749 83.6412 112.812 83.664 112.887 83.689L112.966 83.7148C113.151 83.7736 113.382 83.8391 113.679 83.917L114.174 84.0435L116.289 84.5614C116.704 84.6646 117.074 84.7588 117.428 84.8522L118.01 85.0091C119.758 85.4907 121.098 85.96 122.074 86.4835C120.617 79.9646 116.609 73.5473 112.136 72.8ZM122.308 91.2782C122.429 91.2014 122.543 91.1232 122.651 91.0439C122.703 93.4754 122.295 95.7237 121.305 97.4621C119.883 99.9581 115.934 102.335 112.077 103.342C112.175 103.095 112.254 102.828 112.315 102.542C112.502 101.662 112.532 100.654 112.459 99.2256L112.412 98.4574L112.342 97.4468C112.21 95.4282 112.242 94.5836 112.418 94.3813C113.21 93.4712 114.306 93.1229 117.098 92.7224L117.745 92.6301C120.079 92.2893 121.173 92.0013 122.308 91.2782ZM105.905 102.296C105.935 102.658 106.055 103.028 106.25 103.377C105.26 103.168 104.23 102.867 103.181 102.483C100.834 101.624 98.5577 100.374 97.756 99.6509C95.2105 97.3549 93.7454 93.8893 93.3606 90.2404C94.0199 90.5442 94.892 90.8011 95.9748 91.0574L96.1413 91.0964C96.5784 91.1979 97.0254 91.2922 97.5528 91.3963L99.06 91.689C102.434 92.3823 104.176 93.1858 104.972 94.259L105.052 94.371C105.579 95.1399 105.725 96.0101 105.767 98.2698L105.791 99.8792C105.81 100.843 105.84 101.482 105.905 102.296ZM108.443 72.7303L108.54 72.7389C109.451 72.8477 109.644 73.6924 109.536 76.8787L109.5 77.9833C109.491 78.3164 109.487 78.5846 109.487 78.8785C109.488 80.8765 109.728 82.4286 110.37 83.6716C110.25 83.6077 110.113 83.5715 109.968 83.5715L109.822 83.5734L109.785 83.5744L109.769 83.5676C109.522 83.4762 109.253 83.5051 109.035 83.6332L109.013 83.6469L108.938 83.6591C107.066 83.9712 105.205 85.0893 104.208 86.5703C103.138 88.1589 103.191 89.8931 104.411 91.3783C103.25 90.7655 101.708 90.274 99.6748 89.8442L99.0184 89.7124C98.6321 89.6374 98.1502 89.5451 98.1504 89.5452L97.7625 89.4688C97.3877 89.3938 97.0557 89.3237 96.7368 89.2514L96.5783 89.2151C95.6095 88.9901 94.8447 88.7595 94.3099 88.5185L94.2249 88.4792C94.0604 88.4009 93.9298 88.3257 93.8368 88.2585L93.8246 88.2488L93.8481 88.2245C93.9143 88.1588 94.0143 88.0843 94.1511 88.0053C94.6202 87.7345 95.3928 87.4865 96.4527 87.2821L96.7207 87.2243C97.1923 87.1272 97.6546 87.0579 98.376 86.9718L99.547 86.8382C102.21 86.5281 103.443 86.2221 104.827 85.332C106.844 84.0339 107.229 82.0041 106.804 78.6184L106.757 78.2612C106.733 78.0859 106.707 77.9036 106.673 77.6703L106.539 76.7556C106.3 75.0546 106.266 74.3246 106.423 73.6998L106.438 73.6432C106.629 72.939 107.117 72.6476 108.443 72.7303ZM106.449 93.0104C106.474 93.0428 106.499 93.0756 106.523 93.1085C107.436 94.339 107.645 95.426 107.698 98.2012L107.719 99.6673C107.735 100.585 107.759 101.189 107.811 101.889L107.831 102.141C107.871 102.637 108.717 103.425 109.653 103.247C110.381 103.108 110.663 101.914 110.526 99.2576L110.507 98.9249L110.4 97.3657C110.232 94.8132 110.285 93.9651 110.868 93.2256C109.472 93.7513 107.847 93.7261 106.449 93.0104ZM113.121 91.6136C113.987 91.2859 115.09 91.0643 116.621 90.8399L117.451 90.7211C119.391 90.4377 120.328 90.206 121.123 89.7396L121.27 89.6493C122.169 89.0766 122.255 88.9626 121.856 88.6398L121.726 88.5396C121.019 88.0073 119.654 87.4758 117.688 86.9245L117.273 86.8101C116.825 86.6888 116.364 86.5702 115.821 86.4354L113.562 85.8815C113.136 85.774 112.794 85.6844 112.516 85.602C114.262 87.4481 114.551 89.5258 113.351 91.3008L113.283 91.3985C113.231 91.4719 113.177 91.5436 113.121 91.6136ZM109.282 85.3425L109.404 85.3251L109.49 85.3772C112.298 87.0842 112.923 88.9439 111.884 90.4033C110.852 91.855 108.583 92.3565 106.956 91.3252C105.069 90.1297 104.756 88.8295 105.632 87.5293C106.371 86.4313 107.85 85.5626 109.282 85.3425Z" fill="#00160A"/>
<path d="M139.037 82.0438C139.043 81.8205 139.056 81.6366 139.072 81.4886C139.237 81.4479 139.461 81.4021 139.758 81.36C140.566 81.2456 141.601 81.1976 142.807 81.1952C144.003 81.1927 145.282 81.2344 146.572 81.2791C146.65 81.2818 146.728 81.2845 146.807 81.2873C147.999 81.3287 149.207 81.3707 150.28 81.3719C151.505 81.3733 152.752 81.3775 154.011 81.3818C157.099 81.3923 160.255 81.4031 163.301 81.3718C163.449 81.3703 163.654 81.366 163.906 81.3607C164.884 81.3403 166.564 81.3052 168.297 81.361C169.382 81.3959 170.405 81.4651 171.212 81.5819C171.525 81.6272 171.773 81.6752 171.961 81.7211C172.032 81.9323 172.109 82.2416 172.169 82.656C172.314 83.6533 172.321 84.9509 172.168 86.2604C172.013 87.5854 171.715 88.7344 171.366 89.4901C171.271 89.6956 171.191 89.8345 171.132 89.9252C165.862 90.4437 157.21 90.2547 150.168 90.1009C149.368 90.0834 148.589 90.0664 147.838 90.0509C146.852 90.0306 145.842 90.0967 144.931 90.1674C144.698 90.1855 144.473 90.2037 144.255 90.2214C143.579 90.2761 142.966 90.3257 142.368 90.351C141.581 90.3842 140.989 90.365 140.552 90.2917C140.492 90.2818 140.44 90.2715 140.393 90.2611C140.323 90.0451 140.245 89.78 140.16 89.4695C139.884 88.4551 139.585 87.1094 139.364 85.7349C139.139 84.3409 139.013 83.0288 139.037 82.0438ZM172.258 81.8109C172.258 81.8109 172.257 81.8103 172.254 81.8092C172.257 81.8103 172.258 81.8108 172.258 81.8109ZM171.863 81.4851C171.858 81.4781 171.856 81.4742 171.856 81.474C171.856 81.4738 171.859 81.4774 171.863 81.4851ZM171.014 90.075C171.014 90.0739 171.022 90.065 171.039 90.0516C171.023 90.0693 171.015 90.0761 171.014 90.075ZM139.146 81.0708C139.153 81.0494 139.157 81.0401 139.157 81.0407C139.157 81.0414 139.154 81.0521 139.146 81.0708Z" stroke="#E0E0E0" stroke-width="5.36509"/>
<path fill-rule="evenodd" clip-rule="evenodd" d="M150.26 78.8972C151.497 78.8986 152.753 78.9028 154.016 78.9071C156.614 78.916 159.244 78.925 161.82 78.9089L163.25 78.8972C163.373 78.8959 163.554 78.8921 163.784 78.8872C165.934 78.8419 172.278 78.7081 173.673 79.767C175.956 81.4992 175.047 92.4054 171.784 92.76C166.368 93.3484 157.267 93.1485 150.103 92.9912H150.103L150.102 92.9911C149.294 92.9734 148.51 92.9562 147.759 92.9407C146.716 92.9192 145.593 93.0102 144.485 93.1L144.485 93.1H144.484C141.998 93.3016 139.584 93.4973 138.299 92.4054C137.636 91.8423 135.084 81.1234 137.072 79.6513C138.591 78.5262 142.947 78.6776 146.861 78.8136C147.833 78.8474 148.777 78.8802 149.644 78.8923L149.646 78.8912L149.647 78.8924C149.856 78.8953 150.06 78.897 150.26 78.8972ZM147.642 80.9875C147.853 80.9944 148.046 81.0006 148.224 81.0061C148.368 81.8948 148.385 83.4564 148.281 85.7573L148.205 87.4199C148.137 88.974 148.112 90.0316 148.157 90.8032L147.652 90.7926C146.948 90.7838 146.235 90.815 145.255 90.8869L143.802 91.0004C141.662 91.1582 140.552 91.1347 139.994 90.9363L139.954 90.9214L139.921 90.8258C139.83 90.558 139.726 90.214 139.619 89.8183L139.549 89.5575C139.271 88.4972 139.005 87.2392 138.81 86.0281C138.572 84.551 138.453 83.2286 138.477 82.2385L138.481 82.1123C138.494 81.7825 138.523 81.5095 138.564 81.3056L138.571 81.2711L138.644 81.2468C139.013 81.1302 139.664 81.011 140.537 80.9428C141.624 80.8579 142.92 80.8472 144.717 80.8929L146.233 80.9393L147.642 80.9875ZM154.483 90.9358L150.334 90.8488C150.312 90.6055 150.296 90.3066 150.29 89.9603L150.289 89.886C150.282 89.3424 150.293 88.8233 150.331 87.9112L150.452 85.229C150.525 83.3862 150.527 82.0484 150.405 81.0431L159.283 81.0636C159.758 81.0632 160.215 81.0622 160.658 81.0607C160.522 83.7308 160.738 88.401 161.016 91.0091C160.267 91.008 159.49 91.0037 158.682 90.9962L157.148 90.9787C156.302 90.9675 155.439 90.9536 154.483 90.9358ZM163.196 91.002C166.494 90.9744 169.141 90.8675 171.194 90.6637L171.386 90.6437L171.412 90.617C171.521 90.4929 171.649 90.2935 171.78 90.0264L171.829 89.9231C172.214 89.0896 172.519 87.875 172.677 86.5306C172.832 85.2002 172.831 83.8519 172.676 82.7867C172.605 82.2953 172.504 81.8921 172.391 81.6101L172.358 81.5342L172.335 81.484L172.249 81.4574C172.019 81.3894 171.704 81.3241 171.318 81.2666C170.558 81.1533 169.578 81.0777 168.433 81.0374C167.367 81 166.284 80.9944 165.072 81.0105L163.272 81.0431L162.761 81.0472C162.744 81.3374 162.732 81.6824 162.727 82.0691L162.725 82.1947C162.717 83.2409 162.754 84.5586 162.829 86.0179L162.844 86.3116C162.905 87.4564 162.987 88.639 163.074 89.6793L163.127 90.2849C163.15 90.5438 163.173 90.7844 163.196 91.002ZM153.745 84.6679L153.941 84.9485C154.164 85.2633 154.375 85.542 154.576 85.7878C154.307 86.3758 154.165 87.0365 154.121 87.8865C154.104 88.1957 154.342 88.4594 154.651 88.4756C154.96 88.4917 155.224 88.2542 155.24 87.945C155.266 87.4552 155.325 87.0513 155.432 86.6929C156.053 87.2357 156.596 87.4372 157.167 87.4477L157.277 87.4478C157.587 87.4478 157.838 87.1968 157.838 86.8872C157.838 86.597 157.617 86.3583 157.334 86.3296L157.277 86.3267L157.183 86.3267C156.817 86.3184 156.449 86.1642 155.947 85.6577C156.11 85.4291 156.307 85.2022 156.543 84.9602L157.144 84.3654C157.364 84.1475 157.365 83.7926 157.147 83.5727C156.929 83.3528 156.575 83.3513 156.355 83.5692L155.851 84.0649C155.607 84.3094 155.392 84.5447 155.205 84.7803L155.001 84.5039C154.895 84.3584 154.785 84.2017 154.669 84.0333C154.494 83.7781 154.145 83.7133 153.89 83.8885C153.635 84.0638 153.57 84.4127 153.745 84.6679ZM169.051 84.1342L169.057 83.7921C169.059 83.4825 168.81 83.2295 168.501 83.2269C168.191 83.2244 167.938 83.4732 167.936 83.7828C167.933 84.1233 167.924 84.4284 167.91 84.7013C167.623 84.6109 167.313 84.5359 166.974 84.4699L166.279 84.3404C165.975 84.2827 165.682 84.4825 165.624 84.7866C165.566 85.0907 165.766 85.3841 166.07 85.4418L166.901 85.5987C167.232 85.6676 167.522 85.7454 167.785 85.8436C167.652 86.5443 167.433 86.8781 167.134 87.0897L167.056 87.1423L167.01 87.1767C166.792 87.3586 166.743 87.6798 166.905 87.9204C167.078 88.1771 167.427 88.2448 167.683 88.0717L167.775 88.01C168.242 87.682 168.58 87.2112 168.791 86.4142C169.08 86.6517 169.355 86.953 169.65 87.3448C169.836 87.5921 170.188 87.6415 170.435 87.4553C170.682 87.269 170.732 86.9176 170.546 86.6703C170.033 85.9904 169.546 85.5219 168.994 85.1854C169.023 84.8691 169.042 84.5201 169.051 84.1342Z" fill="#00160A"/>
<path fill-rule="evenodd" clip-rule="evenodd" d="M144.596 84.0864L144.508 84.417C144.406 84.7893 144.303 85.1233 144.198 85.4231C144.653 85.8833 145.012 86.4557 145.344 87.2393C145.465 87.5243 145.332 87.8533 145.047 87.9742C144.762 88.0952 144.433 87.9621 144.312 87.6772C144.12 87.2256 143.926 86.8666 143.703 86.5663C143.306 87.2885 142.864 87.6637 142.331 87.8688L142.228 87.9066C141.937 88.0125 141.615 87.8625 141.509 87.5716C141.41 87.2989 141.536 86.9991 141.791 86.8755L141.844 86.8532L141.933 86.821C142.274 86.688 142.567 86.4171 142.866 85.7694C142.634 85.6104 142.371 85.4647 142.067 85.3179L141.299 84.9646C141.018 84.835 140.895 84.502 141.024 84.2209C141.154 83.9397 141.487 83.8169 141.768 83.9465L142.411 84.2401C142.724 84.3863 143.006 84.5339 143.263 84.6912C143.343 84.4298 143.425 84.1359 143.51 83.8062C143.588 83.5065 143.893 83.3262 144.193 83.4036C144.493 83.4809 144.673 83.7867 144.596 84.0864Z" fill="#0000FF"/>
</svg>
