<svg width="191" height="65" viewBox="0 0 191 65" fill="none" xmlns="http://www.w3.org/2000/svg">
<path fill-rule="evenodd" clip-rule="evenodd" d="M18.3331 18H37.6665V28.0082L28.3099 37.6667H37.6665V41H23.9998V37.3251L34.3331 26.6584V21.3333H18.3331V18Z" fill="#181E3C"/>
<path fill-rule="evenodd" clip-rule="evenodd" d="M18.3331 23.3333H31.9998V26.66L21.6665 37.66V42.9999H37.6665V46.3333H18.3331V36.3399L27.4202 26.6666H18.3331V23.3333Z" fill="#181E3C" fill-opacity="0.24"/>
<path fill-rule="evenodd" clip-rule="evenodd" d="M56 16.0263L28 0L0 16.0263V48.1188L28 64.1452L56 48.1188V40H50.6667V45.0263L28 58L5.33333 45.0263V19.1188L28 6.14516L50.6667 19.1188V24.6667H56V16.0263Z" fill="#181E3C"/>
<path d="M81.7862 45C79.1472 45 77.1191 44.5375 75.7019 43.6124C74.2847 42.6873 73.3073 41.324 72.7697 39.5225C72.2566 37.6966 72 35.2743 72 32.2556C72 28.9448 72.281 26.3642 72.843 24.514C73.4294 22.6639 74.3946 21.3371 75.7385 20.5337C77.0825 19.706 78.9639 19.2921 81.383 19.2921C83.6066 19.2921 86.0867 19.6208 88.8234 20.2781L88.6768 24.2949C86.2578 23.9298 84.2907 23.7472 82.7758 23.7472C81.2364 23.7472 80.0757 23.9906 79.2938 24.4775C78.5119 24.9644 77.9621 25.7678 77.6445 26.8876C77.3512 27.9831 77.2046 29.5412 77.2046 31.5618V32.9129C77.2535 35.0066 77.4001 36.5768 77.6445 37.6236C77.9132 38.6461 78.4264 39.3886 79.1839 39.8511C79.9413 40.3137 81.102 40.5449 82.6658 40.5449C84.3274 40.5449 86.3311 40.3745 88.6768 40.0337L88.7868 44.1601C86.1234 44.72 83.7898 45 81.7862 45Z" fill="#181E3C"/>
<path d="M92.6708 19H97.5822V44.5618H92.6708V19Z" fill="#181E3C"/>
<path d="M106.801 45C103.014 45 101.12 43.0037 101.12 39.0112C101.12 37.1124 101.621 35.7491 102.623 34.9213C103.649 34.0693 105.286 33.5702 107.534 33.4242L111.456 33.132V32C111.456 31.2697 111.285 30.7584 110.943 30.4663C110.625 30.1742 110.076 30.0281 109.294 30.0281C108.487 30.0281 107.376 30.0646 105.958 30.1376C104.541 30.1863 103.356 30.2472 102.403 30.3202L102.256 26.9242C104.895 26.2182 107.388 25.8652 109.734 25.8652C112.079 25.8652 113.765 26.3521 114.792 27.3258C115.842 28.2996 116.368 29.8577 116.368 32V39.5955C116.416 40.2041 116.514 40.618 116.661 40.8371C116.832 41.0562 117.137 41.2144 117.577 41.3118L117.431 45C116.16 45 115.146 44.9148 114.388 44.7444C113.655 44.574 112.922 44.2331 112.189 43.7219C110.406 44.574 108.61 45 106.801 45ZM107.864 41.0197C108.793 41.0197 109.807 40.8736 110.906 40.5815L111.456 40.4354V36.5281L108.121 36.8202C106.753 36.9419 106.068 37.6723 106.068 39.0112C106.068 40.3502 106.667 41.0197 107.864 41.0197Z" fill="#181E3C"/>
<path d="M127.464 45C125.851 45 123.884 44.7809 121.563 44.3427L120.39 44.1236L120.537 40.0337C123.493 40.4232 125.643 40.618 126.987 40.618C127.891 40.618 128.6 40.5206 129.113 40.3258C129.651 40.1311 129.92 39.7659 129.92 39.2303C129.92 38.7434 129.663 38.3904 129.15 38.1713C128.661 37.9522 127.83 37.7453 126.657 37.5506C126.218 37.5019 125.912 37.4532 125.741 37.4045C124.519 37.1854 123.518 36.9176 122.736 36.6011C121.954 36.2603 121.318 35.7369 120.83 35.0309C120.341 34.3006 120.097 33.2903 120.097 32C120.097 29.9307 120.732 28.397 122.003 27.3989C123.273 26.4007 125.02 25.9017 127.244 25.9017C128.563 25.9017 130.506 26.133 133.072 26.5955L134.281 26.8146L134.208 30.868C131.251 30.4785 129.064 30.2837 127.647 30.2837C126.816 30.2837 126.157 30.3689 125.668 30.5393C125.204 30.7097 124.971 31.0384 124.971 31.5253C124.971 32.0365 125.216 32.4017 125.705 32.6208C126.193 32.8155 126.987 33.0103 128.087 33.2051L129.37 33.4242C131.325 33.8137 132.717 34.3979 133.548 35.177C134.379 35.9316 134.794 37.161 134.794 38.8652C134.794 40.9588 134.196 42.5047 132.998 43.5028C131.801 44.5009 129.956 45 127.464 45Z" fill="#181E3C"/>
<path d="M144.752 45C143.139 45 141.172 44.7809 138.851 44.3427L137.678 44.1236L137.825 40.0337C140.781 40.4232 142.932 40.618 144.275 40.618C145.18 40.618 145.888 40.5206 146.401 40.3258C146.939 40.1311 147.208 39.7659 147.208 39.2303C147.208 38.7434 146.951 38.3904 146.438 38.1713C145.949 37.9522 145.118 37.7453 143.946 37.5506C143.506 37.5019 143.2 37.4532 143.029 37.4045C141.808 37.1854 140.806 36.9176 140.024 36.6011C139.242 36.2603 138.607 35.7369 138.118 35.0309C137.629 34.3006 137.385 33.2903 137.385 32C137.385 29.9307 138.02 28.397 139.291 27.3989C140.561 26.4007 142.308 25.9017 144.532 25.9017C145.852 25.9017 147.794 26.133 150.36 26.5955L151.569 26.8146L151.496 30.868C148.539 30.4785 146.352 30.2837 144.935 30.2837C144.104 30.2837 143.445 30.3689 142.956 30.5393C142.492 30.7097 142.26 31.0384 142.26 31.5253C142.26 32.0365 142.504 32.4017 142.993 32.6208C143.481 32.8155 144.275 33.0103 145.375 33.2051L146.658 33.4242C148.613 33.8137 150.005 34.3979 150.836 35.177C151.667 35.9316 152.082 37.161 152.082 38.8652C152.082 40.9588 151.484 42.5047 150.286 43.5028C149.089 44.5009 147.244 45 144.752 45Z" fill="#181E3C"/>
<path d="M154.856 40.2163L165.266 24.7697V24.1124H154.856V19.7303H171.35V24.1124L160.941 39.5225V40.1798H171.35V44.5618H154.856V40.2163Z" fill="#181E3C"/>
<path d="M174.364 40.2163L184.773 24.7697V24.1124H174.364V19.7303H190.857V24.1124L180.448 39.5225V40.1798H190.857V44.5618H174.364V40.2163Z" fill="#181E3C"/>
</svg>
