<svg width="173" height="65" viewBox="0 0 173 65" fill="none" xmlns="http://www.w3.org/2000/svg">
<path fill-rule="evenodd" clip-rule="evenodd" d="M18.3331 18H37.6665V28.0082L28.3099 37.6667H37.6665V41H23.9998V37.3251L34.3331 26.6584V21.3333H18.3331V18Z" fill="#181E3C"/>
<path fill-rule="evenodd" clip-rule="evenodd" d="M18.3331 23.3333H31.9998V26.66L21.6665 37.66V42.9999H37.6665V46.3333H18.3331V36.3399L27.4202 26.6666H18.3331V23.3333Z" fill="#181E3C" fill-opacity="0.24"/>
<path fill-rule="evenodd" clip-rule="evenodd" d="M56 16.0263L28 0L0 16.0263V48.1188L28 64.1452L56 48.1188V40H50.6667V45.0263L28 58L5.33333 45.0263V19.1188L28 6.14516L50.6667 19.1188V24.6667H56V16.0263Z" fill="#181E3C"/>
<path d="M80.2806 43C78.0476 43 76.3316 42.6086 75.1324 41.8258C73.9332 41.0431 73.1061 39.8895 72.6513 38.3652C72.2171 36.8202 72 34.7706 72 32.2163C72 29.4148 72.2378 27.2313 72.7133 25.6657C73.2095 24.1002 74.0262 22.9775 75.1634 22.2978C76.3005 21.5974 77.8926 21.2472 79.9395 21.2472C81.8209 21.2472 83.9195 21.5253 86.2352 22.0815L86.1111 25.4803C84.0643 25.1713 82.3999 25.0169 81.118 25.0169C79.8154 25.0169 78.8333 25.2228 78.1717 25.6348C77.5101 26.0468 77.0449 26.7266 76.7761 27.6742C76.528 28.6011 76.4039 29.9195 76.4039 31.6292V32.7725C76.4453 34.544 76.5693 35.8727 76.7761 36.7584C77.0035 37.6236 77.4377 38.2519 78.0786 38.6433C78.7196 39.0346 79.7017 39.2303 81.0249 39.2303C82.4309 39.2303 84.1263 39.0861 86.1111 38.7978L86.2042 42.2893C83.9505 42.7631 81.976 43 80.2806 43Z" fill="#181E3C"/>
<path d="M89.4906 21H93.6465V42.6292H89.4906V21Z" fill="#181E3C"/>
<path d="M101.447 43C98.2426 43 96.6402 41.3109 96.6402 37.9326C96.6402 36.3258 97.0641 35.1723 97.9118 34.4719C98.7802 33.7509 100.165 33.3287 102.068 33.2051L105.386 32.9579V32C105.386 31.382 105.241 30.9494 104.952 30.7022C104.683 30.4551 104.218 30.3315 103.556 30.3315C102.874 30.3315 101.933 30.3624 100.734 30.4242C99.5348 30.4654 98.532 30.5169 97.7257 30.5787L97.6016 27.7051C99.8346 27.1077 101.944 26.809 103.928 26.809C105.913 26.809 107.34 27.221 108.208 28.0449C109.097 28.8689 109.542 30.1873 109.542 32V38.427C109.583 38.9419 109.666 39.2921 109.79 39.4775C109.935 39.6629 110.193 39.7968 110.565 39.8792L110.441 43C109.366 43 108.508 42.9279 107.867 42.7837C107.247 42.6395 106.627 42.3511 106.006 41.9185C104.497 42.6395 102.977 43 101.447 43ZM102.347 39.632C103.132 39.632 103.99 39.5084 104.921 39.2612L105.386 39.1376V35.8315L102.564 36.0787C101.406 36.1816 100.827 36.7996 100.827 37.9326C100.827 39.0655 101.334 39.632 102.347 39.632Z" fill="#181E3C"/>
<path d="M118.931 43C117.566 43 115.902 42.8146 113.938 42.4438L112.945 42.2584L113.069 38.7978C115.571 39.1273 117.391 39.2921 118.528 39.2921C119.293 39.2921 119.892 39.2097 120.327 39.0449C120.781 38.8801 121.009 38.5712 121.009 38.118C121.009 37.706 120.792 37.4073 120.358 37.2219C119.944 37.0365 119.241 36.8614 118.249 36.6966C117.876 36.6554 117.618 36.6142 117.473 36.573C116.44 36.3876 115.592 36.161 114.93 35.8933C114.269 35.6049 113.731 35.162 113.317 34.5646C112.904 33.9466 112.697 33.0918 112.697 32C112.697 30.2491 113.235 28.9513 114.31 28.1067C115.385 27.2622 116.863 26.8399 118.745 26.8399C119.861 26.8399 121.505 27.0356 123.676 27.427L124.699 27.6124L124.637 31.0421C122.136 30.7125 120.285 30.5478 119.086 30.5478C118.383 30.5478 117.825 30.6199 117.411 30.764C117.018 30.9082 116.822 31.1863 116.822 31.5983C116.822 32.0309 117.029 32.3399 117.442 32.5253C117.856 32.6901 118.528 32.8549 119.458 33.0197L120.544 33.2051C122.198 33.5346 123.376 34.029 124.079 34.6882C124.782 35.3268 125.134 36.367 125.134 37.809C125.134 39.5805 124.627 40.8886 123.614 41.7331C122.601 42.5777 121.04 43 118.931 43Z" fill="#181E3C"/>
<path d="M133.559 43C132.195 43 130.53 42.8146 128.566 42.4438L127.574 42.2584L127.698 38.7978C130.2 39.1273 132.019 39.2921 133.156 39.2921C133.921 39.2921 134.521 39.2097 134.955 39.0449C135.41 38.8801 135.637 38.5712 135.637 38.118C135.637 37.706 135.42 37.4073 134.986 37.2219C134.572 37.0365 133.869 36.8614 132.877 36.6966C132.505 36.6554 132.246 36.6142 132.102 36.573C131.068 36.3876 130.22 36.161 129.559 35.8933C128.897 35.6049 128.359 35.162 127.946 34.5646C127.532 33.9466 127.326 33.0918 127.326 32C127.326 30.2491 127.863 28.9513 128.938 28.1067C130.013 27.2622 131.492 26.8399 133.373 26.8399C134.49 26.8399 136.133 27.0356 138.304 27.427L139.328 27.6124L139.266 31.0421C136.764 30.7125 134.914 30.5478 133.714 30.5478C133.011 30.5478 132.453 30.6199 132.04 30.764C131.647 30.9082 131.45 31.1863 131.45 31.5983C131.45 32.0309 131.657 32.3399 132.071 32.5253C132.484 32.6901 133.156 32.8549 134.087 33.0197L135.172 33.2051C136.826 33.5346 138.005 34.029 138.708 34.6882C139.411 35.3268 139.762 36.367 139.762 37.809C139.762 39.5805 139.256 40.8886 138.242 41.7331C137.229 42.5777 135.668 43 133.559 43Z" fill="#181E3C"/>
<path d="M142.109 38.9522L150.917 25.882V25.3258H142.109V21.618H156.065V25.3258L147.257 38.3652V38.9213H156.065V42.6292H142.109V38.9522Z" fill="#181E3C"/>
<path d="M158.615 38.9522L167.423 25.882V25.3258H158.615V21.618H172.571V25.3258L163.764 38.3652V38.9213H172.571V42.6292H158.615V38.9522Z" fill="#181E3C"/>
</svg>
