<svg width="493" height="479" viewBox="0 0 493 479" fill="none" xmlns="http://www.w3.org/2000/svg">
<path fill-rule="evenodd" clip-rule="evenodd" d="M188.029 278.384C117.444 249.74 117.879 285.697 86.4182 232.674C54.9576 179.651 84.0381 101.529 176.36 77.3957C268.682 53.2624 396.97 -60.6182 465.455 128.751C484.7 181.966 447.615 323.705 314.377 323.422C218.999 323.218 235.734 297.205 188.029 278.384Z" fill="#0000FF"/>
<path fill-rule="evenodd" clip-rule="evenodd" d="M278.963 262C278.466 261.609 278.594 260.411 278.742 259.606C279.679 254.494 284.198 251.071 288.183 247.878C292.169 244.684 296.292 240.394 295.878 235.209C295.319 228.204 298.548 221.561 300.519 214.832C302.489 208.103 302.839 199.813 297.816 195.057C296.075 193.409 293.856 192.376 292.103 190.742C290.35 189.109 289.09 186.457 290.087 184.249C289.237 184.758 288.388 185.267 287.538 185.776C287.302 182.361 283.421 180.841 280.501 179.204C275.494 176.398 271.832 170.729 272.234 164.87C272.636 159.011 277.746 153.615 283.437 153.945C285.88 154.087 289.019 154.86 290.233 152.67C294.717 144.581 306.346 143.649 311.628 136.088C312.779 134.44 318.331 129.52 317.783 133C316.564 140.735 323.34 138.491 326.013 141.729C337.663 155.843 338.56 177.23 336.459 197.5C331.962 240.872 305.155 282.606 278.963 262Z" fill="white"/>
<path fill-rule="evenodd" clip-rule="evenodd" d="M310.586 145.643C313.299 142.725 317.252 141 321.236 141C327.821 144.413 334.333 149.03 340.772 154.851C344.811 153.253 347.657 152.928 349.309 153.877C351.788 155.3 353.307 158 354.026 160.767C356.332 169.641 351.428 178.822 345.396 185.725C342.766 188.735 339.834 191.611 338.223 195.271C336.612 198.93 336.684 203.703 339.616 206.421C346.947 213.215 349.393 223.933 348.984 233.922C348.575 243.91 345.727 253.618 344.132 263.486C342.362 274.439 342.141 285.641 343.477 296.654C343.89 300.056 344.485 303.537 346.261 306.467C348.037 309.397 351.252 311.686 354.668 311.434C353.458 313.165 350.541 313.285 349.193 311.659C350.521 313.04 351.849 314.42 353.176 315.801C351.57 315.464 349.964 315.127 348.358 314.791C361.785 322.425 375.691 329.219 389.966 335.118C389.132 332.313 386.19 330.787 383.53 329.57C376.099 326.172 368.667 322.773 361.236 319.375C372.4 320.387 383.18 325.236 391.345 332.918C401.181 342.172 417.101 341.654 427.767 349.937C430.053 351.713 432.112 353.981 432.879 356.773C433.958 360.697 432.232 364.988 429.39 367.899C426.547 370.811 422.743 372.569 418.939 374.01C407.572 378.317 395.349 380.349 383.2 379.951C382.169 378.139 383.2 375.725 384.878 374.488C386.555 373.251 388.691 372.872 390.729 372.434C399.398 370.569 407.698 367.008 415.023 362.01C416.668 360.887 418.455 358.871 417.399 357.182C417.006 356.554 416.309 356.196 415.642 355.878C404.139 350.387 391.29 347.747 378.555 348.258C382.314 347.578 386.073 346.899 389.833 346.22C379.897 340.292 369.451 335.219 358.65 331.075C355.291 329.786 351.203 328.677 348.349 330.867C341.381 336.21 334.414 341.553 327.447 346.896C336.43 347.054 345.372 349.264 353.396 353.309C351.56 357.322 347.433 360.185 343.033 360.499C345.115 358.363 347.197 356.228 349.279 354.092C334.449 344.897 313.296 354.507 298.444 345.347C291.82 341.261 287.429 333.898 280.247 330.898C273.396 328.036 265.592 329.781 258.385 331.563C253.658 332.732 248.692 334.029 245.204 337.428C245.301 334.009 248.549 331.535 251.744 330.317C254.939 329.099 258.487 328.536 261.176 326.424C263.904 324.281 265.298 320.895 267.45 318.174C269.601 315.452 273.415 313.307 276.454 314.978C275.518 307.752 281.656 301.859 285.818 295.878C290.557 289.068 293.09 280.746 292.95 272.449C287.669 275.255 285.295 282.491 287.885 287.882C289.036 290.276 286.744 293.297 284.095 293.486C281.446 293.674 279.016 291.725 277.818 289.354C276.621 286.983 276.403 284.254 276.224 281.604C275.971 277.859 275.761 274.036 276.725 270.409C278.551 263.536 284.284 258.425 290.232 254.53C296.18 250.635 302.711 247.449 307.697 242.38C313.198 236.789 316.458 229.051 316.617 221.208C318.911 231.658 313.738 144.93 310.586 145.643ZM286.393 289.448C286.448 287.287 285.777 285.113 284.513 283.36C284.073 285.53 284.805 287.903 286.393 289.448Z" fill="white"/>
<path fill-rule="evenodd" clip-rule="evenodd" d="M211.924 286.038C207.59 289.083 203.106 292.293 200.584 296.941C198.063 301.589 198.179 308.116 202.293 311.449C212.362 319.608 209.141 335.852 215.151 347.313C218.449 353.602 224.797 359.561 223.017 366.431C221.622 371.816 215.831 374.627 210.671 376.748C208.248 377.743 205.686 378.759 203.087 378.421C200.489 378.082 197.942 375.849 198.263 373.258C198.836 368.622 206.98 367.783 207.126 363.114C207.167 361.803 206.495 360.588 205.843 359.449C201.435 351.747 197.027 344.045 192.619 336.343C187.462 347.107 185.392 359.318 186.714 371.173C187.128 374.893 184.345 378.378 180.961 380.003C177.576 381.629 173.699 381.802 169.945 381.945C166.87 382.063 163.596 382.133 160.956 380.559C158.315 378.984 156.834 375.101 158.822 372.76C160.611 370.653 163.891 370.936 166.5 370.011C173.43 367.554 173.727 358.03 172.742 350.768C170.838 336.736 168.934 322.704 167.031 308.672C166.067 301.566 164.989 294.16 160.875 288.277C146.723 268.043 165.238 237.186 151.858 216.438C147.751 210.068 143.619 203.457 142.243 196.011C140.868 188.565 142.863 180.002 149.036 175.588C153.67 172.275 154.226 165.782 154.86 160.135C156.021 149.792 158.859 139.639 163.228 130.187C153.263 122.944 141.183 118.626 128.869 117.904C129.25 120.147 130.062 122.317 131.249 124.26C124.161 121.606 118.699 115.037 117.401 107.605C116.266 110.231 115.132 112.858 113.997 115.484C104.239 95.6019 111.262 71.9818 118.405 51.0251C120.485 44.923 122.565 38.821 124.645 32.719C127.148 25.3771 130.726 16.9953 138.267 15.08C142.909 13.9012 149.165 18.3574 146.715 22.4586C140.629 20.9342 143.93 27.0591 146.223 24.4674C151.424 18.589 155.664 11.6034 161.89 6.78395C173.758 -2.40457 191.418 -1.81934 204.302 5.89195C217.187 13.6032 225.629 27.2792 229.807 41.6643C230.412 43.7463 230.924 46.0464 230.028 48.0215C229.132 49.9965 226.2 51.1014 224.718 49.5147C222.653 47.3042 219.786 51.483 219.922 54.4995C220.617 69.9597 230.481 83.3616 235.069 98.1466C239.545 112.566 238.908 128 238.228 143.078C237.283 164.046 234.668 222.058 233.819 230.056C232.219 245.125 228.892 260.077 229.096 275.228C229.358 294.697 235.428 313.58 241.828 331.977C244.491 339.632 247.331 347.456 252.629 353.602C257.928 359.749 266.288 363.942 274.204 362.084C268.588 367.697 258.999 367.499 252.028 363.682C245.058 359.865 240.151 353.234 235.692 346.671C232.847 342.484 225.113 350.816 221.754 347.026C225.886 346.161 229.794 344.252 233.011 341.527C225.982 323.031 218.953 304.535 211.924 286.038ZM175.826 66.0369C175.107 65.3092 173.984 64.5879 173.147 65.177C174.069 66.1076 173.795 67.9049 172.637 68.5207C171.259 68.0181 171.75 65.9819 171.364 64.5712C170.867 62.7562 168.764 61.9673 166.925 61.5387C157.489 59.3384 146.517 58.9633 140.247 51.6011C139.663 50.9158 139.113 50.1624 138.322 49.731C136.704 48.8493 134.572 49.6661 133.424 51.1031C132.275 52.5401 131.89 54.4254 131.622 56.2427C130.265 65.4455 131.054 74.9556 133.909 83.8115C134.425 85.4098 135.034 87.034 136.183 88.2625C139.322 91.621 144.749 90.6777 149.29 89.9069C153.515 89.1898 157.805 88.8559 162.091 88.9108C164.077 88.9362 166.035 88.4844 167.969 88.0352C173.082 86.8482 178.195 85.6611 183.307 84.4741C183.371 77.6712 180.618 70.8842 175.826 66.0369Z" fill="white"/>
<path fill-rule="evenodd" clip-rule="evenodd" d="M363.999 465.055L376.165 466.854C378.392 467.184 380.851 467.644 382.204 469.412C381.58 469.956 380.635 469.871 379.81 469.752C375.103 469.078 370.396 468.403 365.689 467.729L371.289 474.163C372.253 475.27 373.293 476.429 374.708 476.87C375.948 477.256 377.726 477.378 377.874 478.647C376.168 479.362 374.143 478.921 372.571 477.955C370.999 476.989 369.788 475.561 368.607 474.157C366.707 471.901 364.807 469.646 362.907 467.39C362.411 466.8 361.908 465.926 362.415 465.345C362.781 464.926 363.443 464.973 363.999 465.055ZM429.15 415C429.526 416.622 427.847 417.877 426.467 418.753C415.396 425.777 409.921 439.04 405.11 451.464C404.738 452.425 404.64 453.933 405.635 454.088C407.564 450.458 411.347 447.94 415.359 447.618C412.313 449.741 411.095 453.778 410.904 457.555C410.713 461.332 411.331 465.127 410.985 468.893C409.092 468.709 408.605 466.126 408.628 464.172C408.673 460.304 408.719 456.437 408.765 452.57C401.772 456.876 400.091 466.348 399.106 474.666C398.717 475.257 397.73 475.002 397.387 474.382C397.044 473.761 397.146 472.992 397.265 472.289C400.126 455.36 406.636 439.093 416.19 424.994C406.959 429.941 399.081 437.519 393.668 446.659C392.281 444.075 394.258 440.99 396.215 438.832C405.433 428.663 416.727 420.491 429.15 415ZM343.286 406C348.161 409.389 353.036 412.778 357.911 416.167C365.642 421.542 373.451 426.985 379.718 434.01C379.287 427.591 380.9 421.051 384.266 415.568C384.664 414.919 385.362 414.193 386.056 414.508C386.547 414.73 386.688 415.347 386.768 415.879C388.149 425.092 389.53 434.305 390.911 443.518C386.942 436.14 384.998 427.686 385.346 419.317C382.93 423.199 380.95 427.681 381.561 432.212C383.052 443.268 398.587 448.633 399.204 459.773C385.662 443.09 371.571 426.033 352.686 415.77C361.48 428.255 371.519 439.864 382.606 450.368C385.735 453.332 389.21 456.813 388.987 461.116C381.611 452.45 369.022 448.61 358.061 451.683C364.358 454.021 370.496 456.791 376.416 459.965C379.889 461.828 383.584 464.199 384.621 468C374.626 460.522 363.035 455.184 350.853 452.449C360.076 447.076 372.103 446.879 381.497 451.947C367.307 439.157 355.688 423.824 344.161 408.593C343.586 407.834 342.979 406.901 343.286 406ZM284.254 355.008C307.045 359.377 329.447 365.764 351.111 374.069C353.679 375.054 356.317 376.116 358.252 378.068C360.562 380.398 361.571 383.68 362.5 386.824C366.401 400.019 370.302 413.215 374.204 426.41C367.187 412.635 362.171 397.846 359.361 382.649C342.086 389.537 322.835 388.563 304.243 388.021C275.595 387.185 246.91 387.625 218.302 389.34C220.213 389.768 222.124 390.196 224.035 390.623C219.672 392.084 214.958 391.964 210.359 391.802C175.649 390.576 140.994 387.808 106.531 383.51C99.1836 382.594 91.4605 381.453 85.6242 376.903L69.8364 423.757C68.9356 426.431 65.9522 429.667 64.0228 427.606C61.758 425.188 57.8404 427.707 55.6022 430.15C47.0973 439.433 38.5925 448.717 30.0876 458C35.0708 449.379 41.3695 441.517 48.6993 434.77C40.5901 434.624 32.4904 438.249 27.2036 444.39C29.2339 432.108 41.8814 422.587 54.2659 424.017C46.0071 425.155 38.23 429.479 32.9102 435.888C41.8869 434.722 50.5353 431.128 57.6899 425.59C60.2675 423.595 64.2892 423.778 66.6739 426C71.6482 411.131 76.6225 396.263 81.5968 381.395C82.3173 379.241 82.9195 376.543 81.283 374.967C109.276 365.7 138.689 360.72 168.177 360.256C144.738 363.895 121.298 367.534 97.8588 371.174C94.2545 371.733 89.9092 372.937 89.06 376.479C93.1033 377.504 97.147 378.53 101.214 379.459C163.447 393.675 228.298 384.896 292.134 385.664C314.2 385.93 336.828 387.271 357.79 380.384C326.101 365.699 291.726 356.816 256.881 354.305C265.764 351.871 275.208 353.274 284.254 355.008ZM20.8891 368.727C30.9428 371.128 39.9813 376.508 48.8415 381.815C55.3878 385.735 62.6812 390.829 63.3184 398.345L63.336 398.608L63.153 398.4C56.1284 390.497 47.824 383.724 38.6558 378.43C44.9561 385.54 51.2564 392.65 57.5567 399.759C59.1859 401.598 60.8792 403.907 61.3186 406.196C61.4057 406.09 61.5415 406.02 61.6966 406.033L61.6484 406C62.1098 406.122 62.3495 406.639 62.1083 406.992C61.8611 407.022 61.5882 406.965 61.4049 406.83C61.4907 407.796 61.3265 408.752 60.8139 409.659C58.6166 406.093 55.8531 402.873 52.6576 400.157C55.1852 405.611 57.7128 411.066 60.2404 416.52C57.6694 415.669 55.4058 413.926 53.9311 411.662C53.5942 413.541 54.4276 415.58 55.9868 416.69C53.4131 417.982 50.5021 418.6 47.6231 418.466C48.7828 419.306 49.9426 420.146 51.1023 420.986L27.0842 422C27.8233 420.707 28.8474 419.577 30.0631 418.712C11.3395 416.706 -2.34575 401.039 6.04363 406.698C19.7723 415.96 37.3682 419.328 53.5654 415.795C44.5998 413.184 36.1748 408.747 28.9617 402.835C34.0755 401.579 39.742 402.813 43.8738 406.062L44.172 406.302L33.0057 390.769C29.2831 385.59 25.5606 380.412 21.838 375.234C32.8985 386.73 43.959 398.226 55.0195 409.722C49.1702 392.529 36.7704 377.635 20.8891 368.727ZM45.7721 418.611L45.6583 418.739C45.2935 418.47 44.9282 419.226 45.2537 419.541C45.6571 419.668 46.1265 419.56 46.4327 419.269C46.2125 419.05 45.9923 418.83 45.7721 418.611ZM448.573 367.033C457.051 368.875 465.529 370.717 474.007 372.559C476.606 373.123 479.895 374.638 479.459 377.297C479.281 378.381 478.472 379.234 477.675 379.979C474.784 382.684 471.514 384.972 467.994 386.754L476.837 388.97C479.182 389.558 481.648 390.212 483.367 391.933C485.085 393.653 485.65 396.811 483.887 398.485C486.412 402.864 488.765 407.345 490.937 411.914C492.016 414.183 492.969 417.137 491.297 419C488.42 412.471 485.544 405.942 482.667 399.413C478.89 401.731 474.268 402.596 469.923 401.799C471.136 400.131 473.377 399.687 475.409 399.464C477.441 399.241 479.654 399.037 481.142 397.616C482.63 396.196 482.55 393.082 480.576 392.542C475.042 391.027 469.507 389.512 463.973 387.998C468.103 384.195 472.517 380.708 477.163 377.576C477.404 376.346 475.917 375.573 474.722 375.25C461.741 371.742 448.529 369.111 435.204 367.38C439.201 365.155 444.114 366.064 448.573 367.033ZM19.3552 403.011C19.9228 403.103 20.3726 403.553 20.7963 403.969C24.375 407.48 28.8295 409.952 33.5667 411.056C35.935 411.608 38.5815 411.942 40.2036 413.875C32.1826 414.725 23.8641 411.181 18.5687 404.656C18.4139 404.465 18.2559 404.26 18.2139 404.011C18.1117 403.405 18.7877 402.92 19.3552 403.011ZM35.7225 405.283C39.7884 408.495 44.5528 410.825 49.5907 412.066C45.5728 408.785 40.786 406.443 35.7225 405.283ZM44.9564 402.885C46.4604 406.711 49.6297 409.854 53.4775 411.335C51.1459 408.064 48.2506 405.193 44.9564 402.885ZM122.575 188.745C116.941 191.488 111.782 195.196 107.394 199.657C97.525 209.69 84.7924 216.898 71.0878 220.208L105.784 200.573C105.233 196.761 99.4942 197.327 96.0444 199.067C90.0631 202.082 84.2378 205.443 78.8791 209.455C75.6989 211.836 72.6889 214.442 69.8795 217.248C58.8905 228.223 51.1571 242.058 45.3273 256.429C36.9498 277.08 32.2318 299.511 34.2416 321.694C36.2514 343.877 45.3708 365.786 61.5702 381.14C62.1382 379.393 62.7061 377.645 63.274 375.898C65.7697 377.138 68.7275 377.428 71.418 376.696C68.1906 374.825 64.7958 372.783 63.0886 369.475C61.3813 366.168 62.2864 361.248 65.8081 360.011C62.3747 356.943 60.0153 352.704 59.2211 348.177C63.0953 347.466 66.9694 346.754 70.8436 346.042C67.0445 337.356 67.8042 326.836 72.8122 318.781C73.5976 317.518 74.8645 316.158 76.311 316.522C78.6208 317.102 79.2965 321.57 81.5011 320.671L90.1137 308.489L98.453 296.693L98.3158 296.896C95.0215 301.883 94.8913 308.801 98.0666 313.879C102.492 309.211 108.511 306.069 114.884 305.101C115.407 307.997 115.929 310.893 116.452 313.789C118.799 311.846 121.321 309.824 124.348 309.434C127.374 309.044 130.919 311.075 130.934 314.115C130.945 316.617 128.749 319.396 130.356 321.319C132.676 319.826 135.17 318.279 137.932 318.288C140.695 318.297 143.624 320.612 143.172 323.327C142.483 327.468 141.794 331.609 141.105 335.75C145.788 334.223 152.174 333.305 154.529 337.616C156.224 340.718 154.46 344.592 152.165 347.284C149.869 349.975 146.94 352.339 145.843 355.698C144.322 352.571 147.185 349.209 149.597 346.698C152.009 344.187 154.174 339.998 151.665 337.583C148.318 334.361 142.556 339.592 138.266 337.79C139.202 332.218 140.137 326.646 141.072 321.074C136.218 321.056 131.368 322.468 127.287 325.086C126.906 320.683 127.174 316.226 128.081 311.9C123.336 312.894 118.672 314.265 114.145 315.996C113.094 313.203 112.657 310.182 112.872 307.207L97.0904 316.401C96.6789 314.843 95.6069 313.47 94.1925 312.688C95.6273 320.978 97.0621 329.268 98.4969 337.558C94.0112 329.378 91.9203 319.913 92.5445 310.612C87.6341 313.75 84.0993 318.949 82.9961 324.655C79.8729 323.942 77.1165 321.776 75.6942 318.917C69.9524 326.966 69.2009 338.265 73.8264 346.998C70.0792 348.629 66.1052 349.742 62.0538 350.294L69.2556 361.679C67.375 361.924 65.5828 362.798 64.2355 364.128C65.6007 370.292 70.7199 375.472 76.887 376.929C73.9981 378.733 70.549 379.633 67.1431 379.471C71.3759 380.694 75.3619 382.758 78.7975 385.507C73.9175 384.732 69.1924 383.001 64.9703 380.443C67.0844 384.904 70.9361 388.519 75.5315 390.357C72.7895 390.467 70.021 389.821 67.6126 388.511C70.2366 391.986 71.5622 396.411 71.2789 400.75C69.4212 397.11 67.5634 393.47 65.7057 389.83C65.502 393.437 65.2983 397.044 65.0945 400.652C64.6707 400.145 64.2418 399.642 63.8077 399.144L63.374 398.651L63.4745 398.412C65.0893 394.354 63.8552 389.587 61.4562 385.908C58.9956 382.134 55.4541 379.216 52.1705 376.125C38.211 362.986 28.432 346.149 18.8531 329.568C15.2491 323.33 11.6451 317.092 8.04106 310.853C3.20187 302.477 -1.81213 292.961 0.645502 283.612C0.996928 282.275 1.55292 280.903 2.66991 280.083C0.934998 282.047 2.25043 285.174 4.03239 287.096C5.81436 289.018 8.14094 290.788 8.51458 293.378C12.5293 321.2 29.826 345.063 46.5898 367.675C25.8889 332.389 29.256 286.958 46.0098 249.652C55.1244 229.356 68.8684 209.888 89.0747 200.439C93.5743 198.334 98.3052 196.769 103.023 195.21C109.54 193.055 116.058 190.9 122.575 188.745ZM383.106 385.771C383.67 385.903 384.333 386.158 384.438 386.74C384.526 387.231 384.154 387.674 383.797 388.017C381.969 389.77 379.786 391.136 377.427 392.004C376.683 392.278 376.704 393.473 377.294 394.011C377.884 394.549 378.743 394.608 379.533 394.64C408.757 395.835 437.98 397.03 467.204 398.225C466.92 399.734 464.962 400.039 463.458 399.996C435.77 399.208 408.089 398.159 380.42 396.851C377.557 396.715 373.675 395.358 374.231 392.486C374.758 389.76 378.627 389.728 380.713 387.943L368.204 386.168C373.033 384.76 378.211 384.622 383.106 385.771ZM213.449 389.686L213.614 389.8C214.404 390.345 215.589 390.218 216.244 389.516C215.407 388.969 214.213 389.041 213.449 389.686ZM204.302 5.89195C217.187 13.6032 225.629 27.2792 229.807 41.6643C230.412 43.7463 230.924 46.0464 230.028 48.0215C229.157 49.9431 226.357 51.0411 224.841 49.6375L224.718 49.5147C222.653 47.3042 219.786 51.483 219.922 54.4995C220.617 69.9597 230.481 83.3616 235.069 98.1466C239.545 112.566 238.908 128 238.228 143.078C237.283 164.046 236.338 185.014 235.393 205.982C235.031 214.017 234.668 222.058 233.819 230.056C232.219 245.125 228.892 260.077 229.096 275.228C229.358 294.697 235.428 313.58 241.828 331.977C244.491 339.632 247.331 347.456 252.629 353.602C257.928 359.749 266.288 363.942 274.204 362.084C268.588 367.697 258.999 367.499 252.028 363.682C245.058 359.865 240.151 353.234 235.692 346.671C232.847 342.484 225.113 350.816 221.754 347.026C225.886 346.161 229.794 344.252 233.011 341.527C225.982 323.031 218.953 304.535 211.924 286.038C207.59 289.083 203.106 292.293 200.584 296.941C198.063 301.589 198.179 308.116 202.293 311.449C212.362 319.608 209.141 335.852 215.151 347.313C218.449 353.602 224.797 359.561 223.017 366.431C221.622 371.816 215.831 374.627 210.671 376.748C208.248 377.743 205.686 378.759 203.087 378.421C200.489 378.082 197.942 375.849 198.263 373.258C198.836 368.622 206.98 367.783 207.126 363.114C207.167 361.803 206.495 360.588 205.843 359.449C201.435 351.747 197.027 344.045 192.619 336.343C187.462 347.107 185.392 359.318 186.714 371.173C187.128 374.893 184.345 378.378 180.961 380.003C177.576 381.629 173.699 381.802 169.945 381.945C166.87 382.063 163.596 382.133 160.956 380.559C158.315 378.984 156.834 375.101 158.822 372.76C160.611 370.653 163.891 370.936 166.5 370.011C173.43 367.554 173.727 358.03 172.742 350.768L167.031 308.672C166.067 301.566 164.989 294.16 160.875 288.277C146.723 268.043 165.238 237.186 151.858 216.438C147.751 210.068 143.619 203.457 142.243 196.011C140.868 188.565 142.863 180.002 149.036 175.588C153.67 172.275 154.226 165.782 154.86 160.135C156.021 149.792 158.859 139.639 163.228 130.187C153.263 122.944 141.183 118.626 128.869 117.904C129.25 120.147 130.062 122.317 131.249 124.26C124.161 121.606 118.699 115.037 117.401 107.605C116.266 110.231 115.132 112.858 113.997 115.484C104.239 95.6019 111.262 71.9818 118.405 51.0251C120.485 44.923 122.565 38.821 124.645 32.719C127.148 25.3771 130.726 16.9953 138.267 15.08C142.909 13.9012 149.165 18.3574 146.715 22.4586C140.629 20.9342 134.149 24.2308 130.135 29.037C126.121 33.8432 124.064 39.9324 122.092 45.8682C115.475 65.7796 108.789 86.9931 113.794 107.366C114.556 105.949 116.008 104.921 117.603 104.671C119.248 109.284 121.774 113.584 125.006 117.271C131.841 114.765 139.381 114.205 146.513 115.673C145.97 116.34 145.427 117.008 144.884 117.675C150.55 121.528 157.111 124.063 163.903 125.024C167.554 118.847 171.206 112.67 174.857 106.493L175.53 105.353C178.779 99.8314 181.943 94.1258 182.959 87.8251C171.857 90.5993 160.491 92.328 149.063 92.9808C144.082 93.2653 138.542 93.1525 134.872 89.785C132.642 87.7388 131.484 84.796 130.633 81.8971C127.558 71.4236 127.604 60.0614 130.763 49.6128C126.272 49.3454 125.008 42.6936 127.614 39.0391C130.22 35.3847 134.754 33.7511 138.532 31.3164C148.07 25.1697 152.92 13.7283 161.89 6.78395C173.758 -2.40457 191.418 -1.81934 204.302 5.89195ZM321.236 141C331.113 146.119 339.975 153.187 347.162 161.679C347.532 166.259 348.259 170.811 349.333 175.278C350.807 170.986 352.299 166.423 351.317 161.992C350.335 157.561 345.836 153.584 341.493 154.9C343.3 152.683 346.83 152.453 349.309 153.877C351.788 155.3 353.307 158 354.026 160.767C356.332 169.641 351.428 178.822 345.396 185.725C342.766 188.735 339.834 191.611 338.223 195.271C336.612 198.93 336.684 203.703 339.616 206.421C346.947 213.215 349.393 223.933 348.984 233.922C348.575 243.91 345.727 253.618 344.132 263.486C342.362 274.439 342.141 285.641 343.477 296.654C343.89 300.056 344.485 303.537 346.261 306.467C348.037 309.397 351.252 311.686 354.668 311.434C353.571 313.003 351.073 313.249 349.611 312.071L349.482 311.959L351.185 313.73C351.849 314.42 352.512 315.11 353.176 315.801C351.57 315.464 349.964 315.127 348.358 314.791C361.785 322.425 375.691 329.219 389.966 335.118C389.132 332.313 386.19 330.787 383.53 329.57C376.099 326.172 368.667 322.773 361.236 319.375C372.4 320.387 383.18 325.236 391.345 332.918C401.181 342.172 417.101 341.654 427.767 349.937C430.053 351.713 432.112 353.981 432.879 356.773C433.958 360.697 432.232 364.988 429.39 367.899C426.547 370.811 422.743 372.569 418.939 374.01C407.572 378.317 395.349 380.349 383.2 379.951C382.169 378.139 383.2 375.725 384.878 374.488C386.555 373.251 388.691 372.872 390.729 372.434C399.398 370.569 407.698 367.008 415.023 362.01C416.668 360.887 418.455 358.871 417.399 357.182C417.006 356.554 416.309 356.196 415.642 355.878C404.139 350.387 391.29 347.747 378.555 348.258L389.833 346.22C379.897 340.292 369.451 335.219 358.65 331.075C355.291 329.786 351.203 328.677 348.349 330.867C341.381 336.21 334.414 341.553 327.447 346.896C336.43 347.054 345.372 349.264 353.396 353.309C351.56 357.322 347.433 360.185 343.033 360.499C345.115 358.363 347.197 356.228 349.279 354.092C334.449 344.897 313.296 354.507 298.444 345.347C291.82 341.261 287.429 333.898 280.247 330.898C273.396 328.036 265.592 329.781 258.385 331.563C253.658 332.732 248.692 334.029 245.204 337.428C245.301 334.009 248.549 331.535 251.744 330.317C254.939 329.099 258.487 328.536 261.176 326.424C263.904 324.281 265.298 320.895 267.45 318.174C269.601 315.452 273.415 313.306 276.454 314.978C275.518 307.752 281.656 301.859 285.818 295.878C290.557 289.068 293.09 280.746 292.95 272.449C287.669 275.255 285.295 282.491 287.885 287.882C289.036 290.276 286.744 293.297 284.095 293.486C281.446 293.674 279.016 291.725 277.818 289.354C276.621 286.983 276.403 284.254 276.224 281.604C275.971 277.859 275.761 274.036 276.725 270.409C278.551 263.536 284.284 258.425 290.232 254.53C296.18 250.635 302.711 247.449 307.697 242.38C313.198 236.789 316.458 229.051 316.617 221.208C318.911 231.658 313.499 243.319 304.038 248.311C295.672 252.725 287.165 257.729 281.925 265.606C276.685 273.483 275.756 285.015 282.261 291.883C281.194 286.302 282.686 280.283 286.236 275.847C289.11 272.256 293.127 269.792 297.098 267.471C306.307 262.09 315.732 257.08 325.344 252.458C324.692 249.979 326.745 247.165 329.305 247.031C326.412 242.424 329.157 235.37 334.402 233.932C332.856 235.905 331.264 237.974 330.751 240.428C330.237 242.883 331.161 245.834 333.469 246.814C328.928 246.844 328.144 254.082 323.973 255.88C315.387 259.582 307.067 263.902 299.1 268.797C298.511 269.159 297.905 269.559 297.336 270.001C297.446 270 297.561 270.03 297.681 270.098C298.289 274.265 298.367 278.508 297.912 282.693C297.849 283.277 297.59 284.027 297 283.999C296.398 283.971 296.223 283.177 296.222 282.579L296.204 271.964C296.203 271.566 296.31 271.098 296.496 270.719C295.389 271.764 294.592 273.013 294.659 274.499C295.01 282.319 292.724 290.235 288.258 296.663C293.189 292.368 298.121 288.074 303.053 283.779C304.639 282.398 308.034 281.74 307.993 283.843C300.44 288.867 292.765 294 287.043 301.04C281.321 308.079 277.746 317.446 279.736 326.298C277.527 325.473 277.333 322.523 276.811 320.223C276.289 317.924 273.49 315.519 271.92 317.278C268.199 321.445 264.479 325.612 260.759 329.779C268.993 324.681 280.651 326.011 287.526 332.833C296.638 341.873 309.056 350.477 321.365 346.845C332.486 343.563 338.987 331.405 349.856 327.368C339.92 303.318 337.823 276.1 343.957 250.811C345.678 243.715 348.047 236.546 347.275 229.285C346.078 218.033 337.625 208.847 334.812 197.887C333.61 201.059 330.498 203.417 327.119 203.716C330.988 198.759 334.857 193.801 338.725 188.844C344.645 181.258 345.975 170.34 342.009 161.573C338.042 152.805 328.936 146.592 319.325 146.143C320.537 147.317 321.748 148.49 322.96 149.663C320.752 150.431 318.544 151.199 316.336 151.967C315.922 150.48 315.507 148.993 315.093 147.505C316.743 146.171 318.394 144.837 320.044 143.503C316.891 144.216 313.738 144.93 310.586 145.643C313.299 142.725 317.252 141 321.236 141ZM157.843 15.8415C148.578 22.4884 140.97 31.1253 133.448 39.6827C131.56 41.9023 135.121 44.6645 137.965 45.3287C150.734 48.3115 163.995 49.1886 177.048 47.9135C173.56 52.8401 166.455 53.4371 160.471 52.5405C154.488 51.6438 148.34 49.7434 142.522 51.3981C154.419 56.5778 167.151 59.8478 180.079 61.0439L175.718 63.5959C184.484 68.3105 187.177 80.0342 185.011 89.7214C182.845 99.4087 177.015 107.799 172.318 116.551C163.877 132.279 158.891 149.836 157.811 167.638C169.791 163.295 173.879 148.613 175.004 135.961C176.129 123.309 176.642 109.072 186.01 100.458C178.89 116.505 176.339 134.536 178.731 151.919C168.749 160.984 158.767 170.048 148.785 179.112C141.474 185.751 145.115 197.681 149.267 206.626C149.771 207.715 150.334 208.868 151.369 209.479C153.934 210.994 157.077 207.939 157.345 204.98C157.612 202.02 156.327 199.114 156.378 196.142C156.428 193.171 158.945 189.776 161.779 190.701C158.705 187.99 162.441 183.174 166.037 181.2C175.587 175.958 186.373 172.965 197.268 172.533C200.553 172.403 202.026 168.496 203.07 165.391C204.115 162.285 206.95 158.701 209.937 160.07C204.534 141.142 215.467 121.44 215.207 101.763C221.84 120.332 204.459 142.018 213.147 159.726C209.766 161.885 206.384 164.045 203.003 166.205C205.839 167.357 208.254 169.509 209.717 172.189C193.16 173.749 176.901 178.395 162.031 185.815C165.146 187.852 164.134 193.611 160.51 194.473C155.137 216.938 157.635 241.192 167.476 262.101C169.108 253.318 175.253 245.491 183.415 241.798C174.935 248.5 169.953 258.864 167.941 269.461C165.929 280.058 166.628 290.972 167.798 301.694C169.07 313.343 170.89 324.934 173.251 336.414C174.859 344.232 176.722 352.297 175.057 360.104C173.392 367.91 167.006 375.382 158.996 375.375C164.318 378.491 170.72 379.737 176.828 378.846C182.601 378.003 185.078 370.885 184.673 365.085C184.267 359.286 182.242 353.356 183.956 347.799C184.809 345.034 186.532 342.616 187.579 339.917C189.455 335.077 189.042 329.71 189.137 324.523C189.35 312.871 192.312 301.279 197.715 290.944C198.65 292.781 198.312 295.184 196.906 296.694C219.754 278.273 233.403 249.038 232.823 219.76L230.882 222.872C232.624 192.767 234.366 162.663 236.107 132.559C236.538 125.113 236.965 117.594 235.739 110.236C232.255 89.3382 215.71 70.8402 218.15 49.796C213.269 48.1417 208.389 46.4873 203.508 44.833C210.214 45.3652 216.921 45.8974 223.627 46.4295C224.724 46.5166 225.982 46.5466 226.742 45.7534C227.521 44.9405 227.406 43.6463 227.167 42.5479C224.154 28.7101 210.69 20.0759 198.394 12.9748C205.177 13.9934 211.564 17.4576 216.104 22.581C211.96 12.3057 200.807 5.92766 189.712 5.28172C178.314 4.61821 167.108 9.19461 157.843 15.8415ZM406.247 369.639C401.239 373.689 394.38 374.243 388.037 375.357C386.948 375.548 385.634 375.981 385.457 377.073C386.614 377.789 388.066 377.762 389.424 377.683C400.565 377.041 411.596 374.522 421.912 370.265C421.332 368.932 419.412 369.103 418.014 369.499C416.968 369.795 415.922 370.091 414.876 370.387C413.683 370.725 412.38 371.058 411.238 370.576C410.096 370.095 409.443 368.402 410.376 367.586C408.805 367.372 407.48 368.641 406.247 369.639ZM195.072 306.229C193.003 313.231 192.069 320.676 193.347 327.863C195.216 338.374 201.568 347.444 207.255 356.491C209.001 359.268 210.767 362.431 210.106 365.641C209.39 369.119 206.108 371.38 203.093 373.273C208.093 375.686 213.781 372.041 218.12 368.584C218.779 368.06 219.483 367.461 219.626 366.634C219.758 365.875 219.38 365.131 219.014 364.452C214.831 356.705 210.648 348.958 206.465 341.211L206.37 335.763C206.314 332.596 206.255 329.395 205.479 326.323C203.629 318.988 197.959 313.223 195.072 306.229ZM80.6592 369.363C81.0166 369.688 81.2058 370.175 81.5751 370.485C82.1429 370.963 82.9592 370.904 83.6896 371.001C84.42 371.098 85.2636 371.581 85.2002 372.327C83.1274 373.46 80.3765 373.137 78.6119 371.553C78.0756 371.002 78.0662 370.011 78.5919 369.449C79.1176 368.887 80.0904 368.846 80.6592 369.363ZM380.211 365.012C380.685 365.092 381.297 365.367 381.192 365.838C381.139 366.072 380.916 366.222 380.709 366.342C378.25 367.773 375.458 368.625 372.621 368.809C371.593 368.875 370.719 369.533 369.929 370.211L369.748 370.367C368.911 371.097 368.005 371.871 366.902 371.99C365.799 372.108 364.532 371.198 364.742 370.105C364.929 369.139 366.035 368.705 366.98 368.438C368.69 367.955 370.4 367.472 372.11 366.989C372.338 366.687 372.422 366.279 372.332 365.911L360.021 366.092C359.553 366.098 359.054 366.097 358.657 365.848C358.259 365.599 358.042 365.003 358.347 364.645C365.599 363.676 372.995 363.799 380.211 365.012ZM350.471 319.869C349.179 321.65 349.964 324.311 351.594 325.789C353.224 327.267 355.449 327.857 357.581 328.399C359.606 328.914 361.632 329.428 363.657 329.943C364.206 330.083 364.84 330.208 365.299 329.875C365.58 329.672 365.633 329.236 365.504 328.942L365.484 328.905L366.59 329.549C383.096 339.079 400.49 347.068 418.473 353.377C421.293 354.366 421.933 358.388 420.443 360.978C418.952 363.569 416.123 365.037 413.436 366.344C412.375 366.86 411.477 368.711 412.653 368.801C416.035 367.166 419.937 366.629 423.635 367.29C427.013 367.894 430.316 364.883 430.8 361.485C431.284 358.087 429.487 354.679 426.934 352.386C424.38 350.093 421.149 348.723 417.958 347.463C398.144 339.636 377.061 334.32 359.171 322.752C357.011 321.355 353.772 320.021 352.244 322.089L350.471 319.869ZM242.611 352.343C246.502 357.541 252.05 361.489 258.248 363.469C260.137 364.073 262.159 364.5 264.099 364.085C264.063 363.138 262.855 362.798 261.919 362.636C258.388 362.023 255.081 360.202 252.681 357.55C251.476 356.218 250.479 354.67 249.034 353.6C247.226 352.259 244.8 351.808 242.611 352.343ZM113.811 345.008C115.57 345.107 114.532 348.465 116.021 349.409C116.615 349.785 117.383 349.607 118.074 349.482C122.177 348.744 126.632 350.629 128.966 354.092C129.551 354.962 128.982 356.232 128.064 356.736C127.147 357.24 126.034 357.181 124.995 357.06C123.372 356.871 122.244 358.617 121.682 360.154C121.12 361.692 120.458 363.521 118.876 363.926C117.663 364.236 116.427 363.526 115.475 362.712C114.522 361.897 113.641 360.919 112.452 360.524C111.264 360.13 109.648 360.656 109.447 361.895C109.229 363.238 107.392 363.416 106.045 363.253L101.234 362.67C100.942 361.342 102.826 360.672 104.171 360.85C105.516 361.027 107.23 361.297 107.918 360.125C108.275 359.519 108.188 358.703 108.627 358.153C109.353 357.246 110.794 357.737 111.811 358.297C112.898 358.897 113.986 359.496 115.073 360.096C116.069 360.645 117.146 361.211 118.277 361.097C119.408 360.983 120.499 359.849 120.121 358.774C119.638 357.401 121.095 356.081 122.505 355.731C123.914 355.381 125.475 355.504 126.726 354.764C124.263 351.621 119.377 350.72 115.96 352.78C114.934 353.399 113.98 351.8 113.988 350.6C113.996 349.399 113.937 347.777 112.763 347.54C111.869 347.36 111.154 348.219 110.512 348.868C109.869 349.517 108.648 349.962 108.164 349.187C108.775 346.718 111.278 344.865 113.811 345.008ZM154.648 352.431C156.322 353.053 158.141 353.797 158.944 355.336C159.746 356.875 158.593 359.279 156.825 358.974C156.545 358.591 156.532 358.046 156.795 357.653C157.011 357.329 157.403 357.073 157.414 356.689C157.425 356.297 157.032 356.019 156.683 355.814C154.857 354.741 153.03 353.668 151.204 352.595C151.965 351.661 153.495 352.002 154.648 352.431ZM217.394 356.244L217.402 356.591C217.43 357.248 217.865 357.871 218.474 358.127C218.909 357.371 218.269 356.254 217.394 356.244ZM92.2036 351.198C90.7591 352.708 88.8166 353.634 86.8231 353.764C87.3591 354.387 87.798 355.111 88.1151 355.893C86.7725 356.4 85.5115 355.003 84.6597 353.759C84.3294 353.276 83.9996 352.581 84.361 352.126C84.5038 351.946 84.7213 351.864 84.9295 351.793C87.2731 351.005 89.7789 350.8 92.2036 351.198ZM226.683 263.722C223.039 270.356 218.729 276.628 213.838 282.412C212.937 283.477 213.544 285.084 214.163 286.334C223.756 305.731 228.177 327.384 238.191 346.568C239.054 348.221 240.121 349.993 241.904 350.554C243.687 351.115 246.064 349.443 245.367 347.714C234.543 320.876 224.889 292.59 226.683 263.722ZM91.7981 330.137C92.2655 330.462 92.2625 331.178 92.2292 331.771C92.0166 335.562 92.7267 339.407 94.2712 342.829C94.7905 343.98 96.4713 343.608 97.3552 342.746C98.2391 341.884 98.9663 340.656 100.148 340.443C101.398 340.218 102.582 341.336 102.976 342.62C103.37 343.905 103.174 345.299 102.974 346.634C102.852 347.446 102.68 348.348 102.047 348.818C101.413 349.288 100.254 348.79 100.433 347.989L101.139 344.832C101.231 344.423 101.319 343.975 101.148 343.596C100.858 342.951 99.9793 342.889 99.3772 343.206C98.7752 343.523 98.3262 344.094 97.7601 344.479C95.9471 345.712 93.3914 344.647 92.123 342.796C90.8545 340.945 90.541 338.565 90.2663 336.292C89.1518 340.097 88.789 344.15 89.2083 348.111C88.6444 348.697 87.8511 347.683 87.6804 346.864C86.5834 341.597 87.3994 335.905 89.922 331.227C90.3217 330.486 91.1266 329.67 91.7981 330.137ZM125.204 338.967C122.537 340.038 120.3 342.11 119.052 344.664C118.775 345.232 117.797 345.026 117.538 344.45C117.28 343.874 117.518 343.205 117.812 342.646C118.579 341.193 119.744 339.945 121.15 339.07C119.501 338.948 117.853 338.825 116.204 338.703C118.559 336.327 122.996 336.457 125.204 338.967ZM104.527 335.02C105.727 335.2 106.643 336.136 107.404 337.058C106.64 337.132 105.906 337.469 105.359 337.995C106.307 338.988 107.255 339.982 108.204 340.976C105.609 341.23 102.958 339.468 102.252 337.021C101.924 335.881 103.327 334.841 104.527 335.02ZM386.165 239.035C394.177 263.841 398.533 289.791 399.055 315.819C404.087 311.376 410.604 308.596 417.333 308.023C413.797 309.264 411.529 312.708 410.272 316.196C409.016 319.684 408.504 323.413 407.062 326.83C418.098 323.45 430.176 323.465 441.204 326.871C431.749 329.569 422.821 334.05 415.045 340C413.693 339.248 414.871 337.225 416.114 336.308C421.133 332.608 426.706 329.638 432.595 327.527C423.226 325.684 413.362 326.355 404.338 329.447C405.993 323.843 407.409 318.169 408.58 312.447C402.124 315.449 396.226 319.611 391.262 324.667C389.973 323.512 391.847 321.703 393.178 320.594C396.754 317.612 396.903 312.314 396.667 307.703C395.753 289.851 393.37 271.972 387.908 254.928C388.42 274.14 384.474 293.455 376.457 310.973C376.084 311.787 374.809 312.599 374.527 311.75C374.777 310.78 375.026 309.81 375.275 308.84C372.925 305.853 371.813 301.947 372.241 298.19C368.045 303.151 364.397 308.562 361.383 314.298C360.054 314.642 359.938 312.415 360.589 311.223C364.139 304.719 368.63 298.714 373.882 293.447C374.455 298.049 375.027 302.651 375.6 307.253C384.843 286.246 388 262.677 384.606 240.025C384.724 239.35 385.493 238.862 386.165 239.035ZM119.74 329.222C120.283 329.547 120.402 330.459 119.81 330.699C118.853 331.088 119.009 332.382 119.242 333.337C119.474 334.291 119.296 335.673 118.254 335.73C117.349 335.78 116.893 334.714 116.843 333.865C116.793 333.016 116.768 331.983 115.974 331.572C113.478 333.048 110.983 334.524 108.487 336C107.767 335.201 108.55 334.004 109.372 333.297C111.753 331.247 114.711 329.793 117.861 329.122C118.49 328.988 119.196 328.897 119.74 329.222ZM344.147 325.247C344.366 325.612 343.891 326.293 343.743 325.861L343.739 325.818C343.482 325.808 343.246 325.512 343.204 325.149C343.52 324.987 343.928 324.881 344.147 325.247ZM3.39249 290.418C3.21882 293.142 3.22304 295.877 3.40511 298.6C3.57521 301.144 4.05065 303.957 6.071 305.523C6.71351 306.021 7.85816 306.232 8.17717 305.486C8.2551 305.303 8.25955 305.099 8.26102 304.901C8.2928 300.636 7.48364 296.366 5.89309 292.405C5.4535 291.311 4.50993 290.029 3.39249 290.418ZM158.932 245.985L157.529 257.658C157.085 261.352 156.641 265.074 156.92 268.784C157.289 273.681 158.905 278.388 160.554 283.015C161.591 285.923 162.735 288.958 165.076 290.979C163.703 283.379 164.035 275.479 166.04 268.02C166.217 267.36 166.409 266.692 166.397 266.009C166.379 264.957 165.884 263.98 165.425 263.032C162.687 257.379 160.871 251.285 160.07 245.06C159.719 244.521 159.009 245.346 158.932 245.985ZM284.513 283.36C284.073 285.53 284.805 287.903 286.393 289.448C286.448 287.287 285.777 285.113 284.513 283.36ZM316.204 133.265C314.565 140.473 306.612 143.584 300.362 147.238C295.92 149.835 291.915 153.225 288.578 157.211C287.786 158.158 286.33 157.445 285.2 156.991C281.666 155.571 277.385 157.824 275.78 161.365C274.175 164.907 274.929 169.249 277.006 172.519C279.082 175.79 282.309 178.118 285.699 179.87C286.764 179.354 286.438 177.59 285.51 176.846C284.582 176.101 283.337 175.91 282.351 175.25C281.433 174.635 280.806 173.662 280.257 172.686C278.619 169.771 277.444 166.182 278.708 163.075C279.972 159.968 284.647 158.498 286.582 161.213C289.526 165.346 282.858 171.803 285.906 175.855C285.616 173.867 286.737 171.75 288.515 170.925C288.398 174.642 288.28 178.358 288.163 182.074C289.054 181.129 290.292 180.539 291.568 180.453C291.694 183.864 292.083 187.264 292.73 190.611C293.507 190.104 293.869 189.013 293.555 188.122L315.642 208.371C310.831 206.127 306.34 203.155 302.358 199.582C306.332 207.116 302.455 216.225 300.089 224.447C298.086 231.407 297.217 238.713 297.528 245.966C296.103 244.446 293.627 245.569 291.993 246.847C286.742 250.953 282.287 256.134 278.963 262C278.557 261.295 278.594 260.412 278.742 259.606C279.679 254.494 284.198 251.071 288.183 247.878C292.169 244.684 296.292 240.394 295.878 235.209C295.319 228.204 298.548 221.561 300.519 214.832C302.489 208.103 302.839 199.813 297.816 195.057C296.075 193.409 293.856 192.376 292.103 190.742C290.35 189.109 289.09 186.458 290.087 184.249C289.237 184.758 288.388 185.268 287.538 185.777C287.302 182.361 283.421 180.841 280.501 179.205C275.494 176.398 271.832 170.729 272.234 164.87C272.636 159.011 277.746 153.615 283.437 153.945C285.88 154.087 289.019 154.86 290.233 152.67C294.717 144.581 306.346 143.649 311.628 136.088C312.779 134.44 314.507 132.233 316.204 133.265ZM152.284 213.396L152.149 213.678C152.581 213.78 153.013 213.882 153.445 213.985C154.011 213.383 153.886 212.193 153.1 211.936C152.313 211.679 151.564 212.991 152.284 213.396ZM297.418 184C297.501 185.222 297.892 186.424 298.551 187.478C298.546 186.723 299.813 186.521 300.361 187.07C300.91 187.618 300.912 188.462 300.881 189.216C303.421 188.951 305.231 191.34 307.133 192.954C311.567 196.713 318.18 196.716 324.124 196.396C325.766 196.307 327.951 196.595 328.204 198.132C325.412 199.077 322.37 199.075 319.409 198.928C314.78 198.699 310.087 198.123 305.863 196.315C301.64 194.506 297.903 191.316 296.425 187.159C296.002 185.97 296.109 184.207 297.418 184ZM300.73 179.001C302.41 183.44 308.503 185.758 312.914 183.637C313.704 183.257 314.452 182.757 315.32 182.601C316.781 182.338 318.199 183.093 319.561 183.662C321.479 184.464 323.623 184.936 325.673 184.532C327.722 184.127 329.634 182.703 330.12 180.757C330.246 180.256 330.291 179.705 330.638 179.312C330.986 178.919 331.794 178.875 331.965 179.363C332.948 182.175 330.759 185.331 327.866 186.402C324.974 187.472 321.69 186.902 318.792 185.846C317.818 185.491 316.819 185.075 315.78 185.15C314.735 185.225 313.808 185.784 312.852 186.195C308.415 188.101 302.651 186.507 299.965 182.63C299.522 181.991 299.146 181.256 299.211 180.491C299.276 179.727 299.929 178.967 300.73 179.001ZM346.367 175.454C346.106 176.705 346.275 178.042 346.838 179.19C347.714 178.785 348.242 177.74 348.048 176.794L348.055 176.79C348.041 175.969 347.169 175.278 346.367 175.454ZM315.374 173.015C316.116 173.119 316.717 173.75 317.244 174.372C318.311 175.629 319.301 176.977 320.204 178.4C317.576 179.138 314.812 179.196 312.163 178.57C311.347 178.376 311.011 177.111 311.313 176.201C311.614 175.292 312.327 174.674 313.005 174.107C313.713 173.515 314.51 172.895 315.374 173.015ZM313.872 176.821L314.125 176.948L315.872 176.554C316.068 176.234 316.142 175.817 316.072 175.432C315.199 174.927 313.993 175.689 313.872 176.821ZM281.077 162.766C280.092 163.777 279.898 165.388 280.218 166.782C280.78 169.227 282.683 171.22 283.01 173.71C283.693 173.518 283.995 172.666 283.949 171.938C283.903 171.21 283.621 170.513 283.591 169.784C283.491 167.347 286.12 164.828 284.743 162.844C283.935 161.678 282.062 161.754 281.077 162.766ZM331.95 154.012C334.744 154.206 336.919 156.644 338.43 159.142C339.651 161.16 340.671 163.617 339.98 165.9C339.049 168.971 335.621 170.159 332.66 170.91L329.544 171.7C328.717 171.91 327.853 172.121 327.023 171.917C325.876 171.636 325.034 170.63 324.273 169.679C322.73 167.751 321.098 165.56 321.209 163.035C321.338 160.094 323.762 157.912 326.08 156.289C327.851 155.05 329.832 153.865 331.95 154.012ZM309.398 158.029C312.061 159.909 313.77 163.216 313.031 166.302C312.291 169.389 308.692 171.76 305.547 170.773C302.666 169.869 299.684 168.874 297.538 166.823C295.392 164.772 294.368 161.342 296.026 158.912C296.954 157.552 298.556 156.723 300.201 156.318C303.327 155.549 306.8 156.195 309.398 158.029ZM332.186 157.459C330.436 157.691 328.643 157.806 326.997 158.479C325.352 159.153 323.834 160.522 323.481 162.354C323.025 164.726 324.578 166.955 326.036 168.819C326.72 169.693 327.971 169.691 329.032 169.533C332.257 169.054 335.38 167.817 338.112 165.938C336.729 165.599 335.347 165.261 333.964 164.922C334.15 164.042 335.294 164.001 336.145 164.034C336.996 164.067 338.158 163.499 337.85 162.658C336.541 162.244 335.168 162.058 333.803 162.111C333.402 162.126 332.93 162.21 332.752 162.591C332.613 162.888 332.714 163.239 332.775 163.563C333.186 165.735 331.249 168.025 329.167 167.83C327.086 167.635 325.558 165.02 326.322 162.959C327.086 160.898 329.884 160.082 331.535 161.44C331.904 161.09 331.867 160.375 331.464 160.069C332.681 159.184 334.276 158.911 335.693 159.347C335.86 158.545 335.225 157.757 334.49 157.495C333.755 157.234 332.955 157.357 332.186 157.459ZM301.324 158.66C299.283 158.918 296.875 160.257 297.244 162.195C297.503 163.556 299.156 164.351 300.588 164.162C302.02 163.972 303.228 163.058 304.241 162.071L300.002 162.406C299.448 162.45 298.634 162.192 298.834 161.696C298.89 161.557 299.022 161.461 299.151 161.378C300.988 160.199 303.643 160.354 305.317 161.738C306.953 162.256 308.531 163.416 308.815 165.042C309.098 166.668 307.425 168.499 305.796 167.964C305.652 169.171 307.59 169.546 308.693 168.942C311.346 167.488 311.595 163.551 309.664 161.283C307.733 159.014 304.355 158.279 301.324 158.66ZM300.263 164.874C300.049 166.492 301.848 168.035 303.505 167.655C303.018 166.407 301.924 165.389 300.607 164.958L300.263 164.874ZM304.365 165.678L306.125 167.081L306.177 166.827C306.922 166.442 306.978 165.254 306.272 164.807C305.566 164.359 304.445 164.871 304.365 165.678ZM329.452 163.212C328.522 163.304 327.981 164.697 328.596 165.442L328.418 165.457C328.983 166.245 330.34 166.122 330.75 165.233C331.159 164.343 330.382 163.12 329.452 163.212ZM133.424 51.1031C132.275 52.5401 131.89 54.4254 131.622 56.2427C130.265 65.4455 131.054 74.9556 133.909 83.8115C134.425 85.4098 135.034 87.034 136.183 88.2625C139.322 91.621 144.749 90.6777 149.29 89.9069C153.515 89.1898 157.805 88.8559 162.091 88.9108C164.077 88.9362 166.035 88.4844 167.969 88.0352C173.082 86.8482 178.195 85.6611 183.307 84.4741C183.371 77.6712 180.618 70.8842 175.826 66.0369C175.107 65.3092 173.984 64.5879 173.147 65.177C174.069 66.1076 173.795 67.9049 172.637 68.5207C171.259 68.0181 171.75 65.9819 171.364 64.5712C170.867 62.7562 168.764 61.9673 166.925 61.5387C157.489 59.3384 146.517 58.9633 140.247 51.6011C139.663 50.9158 139.113 50.1624 138.322 49.731C136.704 48.8493 134.572 49.6661 133.424 51.1031ZM201.249 23.0744C206.715 25.6268 211.572 29.6014 215.262 34.542C215.76 35.2095 216.262 35.9766 216.198 36.8218C216.082 38.3577 214.32 39.0218 212.88 39.3277C210.331 39.8692 207.781 40.4108 205.232 40.9524C204.3 41.1504 202.832 40.7239 203.213 39.8102C206.284 37.8429 209.967 36.9473 213.549 37.2965C213.836 36.6748 213.493 35.9437 213.114 35.3792C211.861 33.5145 210.145 32.0567 208.453 30.6245C205.703 28.2977 202.953 25.9709 200.204 23.6441C200.262 23.1646 200.841 22.8487 201.249 23.0744ZM181.164 15.5221C183.566 16.63 184.435 19.5018 184.871 22.0644C185.141 23.6564 185.346 25.2866 185.079 26.8791C184.611 29.6666 182.693 32.1007 180.258 33.6193C177.824 35.1379 174.917 35.8108 172.035 35.9653C165.358 36.3229 158.572 33.9031 153.696 29.426C151.573 27.4773 151.86 23.8923 153.644 21.6422C155.428 19.3921 158.283 18.2292 161.089 17.4736C164.267 16.6181 167.541 16.163 170.804 15.71C173.044 15.3991 175.289 15.0876 177.551 15.0121C178.779 14.9711 180.053 15.0093 181.164 15.5221ZM154.528 24.5842C153.793 25.8655 155.005 27.3517 156.116 28.3397C158.294 30.2753 161.024 32.3559 163.867 31.614C165.773 31.1166 167.82 29.4212 169.411 30.5638C169.277 31.1801 168.553 31.4772 167.914 31.5575C167.275 31.6378 166.579 31.6177 166.057 31.9871C165.535 32.3565 165.459 33.3295 166.077 33.5067C168.093 34.0847 169.973 32.3859 171.407 30.8838C172.842 29.3816 174.902 27.7978 176.827 28.6227C177.082 28.7322 177.348 28.9281 177.351 29.201C177.356 29.5991 176.849 29.7696 176.452 29.8567C174.334 30.3214 172.44 31.6891 171.362 33.5323C174.183 33.1294 176.712 31.6695 179.159 30.2391C180.889 29.2275 182.79 27.9846 183.139 26.0421C180.721 26.7412 178.207 27.1199 175.686 27.1647C170.41 27.2585 165.28 30.4369 160.136 29.2844C158.835 28.9928 157.94 27.8603 157.156 26.8031C157.968 26.0414 159.268 26.6693 160.329 27.036C161.39 27.4026 163.093 26.8418 162.697 25.8112C161.453 25.2928 160.208 24.7744 158.963 24.2561C157.461 23.6306 155.328 23.1917 154.528 24.5842ZM166.373 25.081C166.004 25.1312 165.595 25.2286 165.4 25.539C165.118 25.9877 165.502 26.6076 166.011 26.7788C166.52 26.95 167.078 26.812 167.598 26.6734C168.881 26.3308 170.165 25.9883 171.448 25.6457C169.841 25.0449 168.077 24.8487 166.373 25.081ZM178.123 22.874C176.154 23.598 174.101 24.3782 172.719 25.9301C175.799 25.4066 178.933 25.1934 182.057 25.2948C183.163 24.813 182.751 22.988 181.641 22.5147C180.531 22.0414 179.256 22.4572 178.123 22.874ZM179.698 18.5383C178.605 18.6252 177.63 19.2121 176.608 19.6029C173.704 20.7131 170.461 20.2309 167.348 20.0667C164.614 19.9224 161.856 20.0393 159.172 20.5675C157.729 20.8515 156.041 21.539 155.859 22.9684C158.32 21.838 161.185 22.2415 163.896 22.4372C170.033 22.8804 176.259 22.1155 182.093 20.2013C182.069 19.1277 180.792 18.4514 179.698 18.5383ZM136.423 18.8872C135.696 19.208 134.947 19.6527 134.658 20.39C134.368 21.1273 134.84 22.1671 135.635 22.1452C138.043 20.4661 141.087 19.716 144.003 20.0829C144.927 20.1991 145.871 19.4507 145.964 18.5277C142.892 17.4394 139.403 17.5708 136.423 18.8872ZM168.207 6.287L168.214 6.39503C167.307 6.07234 166.188 6.57078 165.823 7.45994C167.32 7.35591 168.802 7.03462 170.206 6.50936C170.202 5.68647 168.903 5.84311 168.207 6.287ZM187.355 2.98975C186.745 3.26692 187.461 4.40477 187.977 3.97819L187.992 4.02563C188.454 3.65712 187.895 2.74706 187.355 2.98975Z" fill="#00160A"/>
</svg>
