<?xml version="1.0" encoding="UTF-8"?>
<svg width="50px" height="50px" viewBox="0 0 50 50" version="1.1" xmlns="http://www.w3.org/2000/svg" xmlns:xlink="http://www.w3.org/1999/xlink">
    <title>SOL</title>
    <g id="Pro" stroke="none" stroke-width="1" fill="none" fill-rule="evenodd">
        <g id="Landing-page-2.0" transform="translate(-201.000000, -786.000000)">
            <g id="SOL" transform="translate(201.000000, 786.000000)">
                <rect id="矩形备份-17" x="0" y="0" width="50" height="50" rx="10"></rect>
                <g id="icon-chains-solana" transform="translate(12.000000, 15.000000)" fill="#CCCCCC" fill-rule="nonzero">
                    <path d="M4.17130351,15.2630032 C4.32679233,15.1076038 4.53761022,15.0203195 4.75741853,15.0203195 L25.0384026,15.0203195 C25.4078594,15.0203195 25.5928435,15.4670927 25.3314377,15.7282428 L21.3239617,19.732524 C21.1684984,19.8879233 20.9576997,19.9751438 20.7378914,19.9751438 L0.456874121,19.9751438 C0.0874178914,19.9751438 -0.0975316294,19.5284345 0.163817891,19.2672843 L4.17130351,15.2630032 Z" id="路径"></path>
                    <path d="M4.17130351,0.303198083 C4.32679233,0.147832588 4.53761022,0.060559361 4.75741853,0.060559361 L25.0384026,0.060559361 C25.4078594,0.060559361 25.5928435,0.507316294 25.3314377,0.768460064 L21.3239617,4.77275399 C21.1684984,4.92811502 20.9576997,5.01539297 20.7378914,5.01539297 L0.456874121,5.01539297 C0.0874178914,5.01539297 -0.0975316294,4.56863259 0.163817891,4.30749521 L4.17130351,0.303198083 Z" id="路径"></path>
                    <path d="M21.3239617,7.73546326 C21.1684984,7.5800639 20.9576997,7.49277955 20.7378914,7.49277955 L0.456874121,7.49277955 C0.0874172524,7.49277955 -0.0975316294,7.93955272 0.163817891,8.20070288 L4.17130351,12.204984 C4.32679233,12.3603834 4.53761022,12.4476677 4.75741853,12.4476677 L25.0384026,12.4476677 C25.4078594,12.4476677 25.5928435,12.0008946 25.3314377,11.7397444 L21.3239617,7.73546326 Z" id="路径"></path>
                </g>
            </g>
        </g>
    </g>
</svg>