<svg width="750" height="750" viewBox="0 0 750 750" fill="none" xmlns="http://www.w3.org/2000/svg">
<path fill-rule="evenodd" clip-rule="evenodd" d="M405.618 653C541.417 653 560.667 592.641 581.258 581.549C601.848 570.458 589.047 548.199 602.551 531.411C624.122 504.593 637.196 518.413 644.335 483.623C651.474 448.835 638.495 438.992 638.495 407.932C638.495 345.702 668.333 316.245 630.229 283.684C592.125 251.125 528.495 254.967 465.562 254.967C348.754 254.967 278.776 94.987 122.98 142.982C69.2907 159.524 75.2246 182.063 87.0219 261.722C92.1449 296.313 53.4647 340.293 60.1758 379.602C72.433 451.397 104.805 441.658 165.883 490.131C176.129 498.264 191.074 498.179 202.245 506.52C220.974 520.503 222.177 542.246 257.19 556.911C313.646 580.558 308.857 653 405.618 653Z" fill="#EBEBEB"/>
<path d="M146.188 499.882C165.117 499.882 180.461 485.533 180.461 467.834C180.461 450.134 165.117 435.786 146.188 435.786C127.259 435.786 111.914 450.134 111.914 467.834C111.914 485.533 127.259 499.882 146.188 499.882Z" fill="white"/>
<path fill-rule="evenodd" clip-rule="evenodd" d="M132.386 352.465C126.543 337.832 131.648 329.064 134.919 317.618C137.652 308.058 159.025 292.528 168.861 308.721C171.755 313.485 170.594 317.988 176.919 322.175C192.229 332.311 183.877 311.283 184.446 305.967C184.724 303.375 182.539 297.394 183.352 294.892C184.206 292.266 188.755 288.536 188.755 283.093C188.755 277.651 179.502 275.554 176.919 274.216C153.965 262.333 139.367 242.483 146.642 232.41C156.778 218.374 196.5 240.457 208.436 242.483C208.59 242.51 210.722 231.351 212.463 228.796C215.946 223.684 219.796 218.722 224.389 214.584C226.446 212.73 229.234 211.586 231.976 211.215C240.178 210.105 248.57 209.195 256.786 210.2C259.689 210.555 276.979 190.49 283.721 184.017C335.444 134.358 439.13 194.873 382.612 277.104C372.224 292.218 358.941 297.023 357.225 302.366C353.414 314.231 377.403 312.67 387.565 313.938C404.924 316.103 413.481 325.045 402.704 340.372C395.991 349.92 356.606 349.433 339.355 342.529C332.951 339.966 325.038 328.76 318.987 337.953C314.816 344.286 298.558 357.722 281.118 365.323C273.246 368.754 264.28 366.686 257.562 369.75C248.107 374.063 220.192 392.17 208.436 392.165C196.596 392.161 181.274 377.872 179.502 376.935C176.8 375.507 155.9 371.412 145.574 355.435C142.453 350.604 134.525 357.823 132.386 352.465Z" fill="white"/>
<path d="M333.58 271.094C335.546 271.094 337.141 269.5 337.141 267.534C337.141 265.567 335.546 263.973 333.58 263.973C331.613 263.973 330.019 265.567 330.019 267.534C330.019 269.5 331.613 271.094 333.58 271.094Z" fill="#FFB61D"/>
<path d="M306.873 263.972C308.84 263.972 310.434 262.378 310.434 260.412C310.434 258.445 308.84 256.851 306.873 256.851C304.906 256.851 303.312 258.445 303.312 260.412C303.312 262.378 304.906 263.972 306.873 263.972Z" fill="#FFB61D"/>
<path d="M564.147 304.923C590.697 304.923 612.22 283.6 612.22 257.296C612.22 230.992 590.697 209.669 564.147 209.669C537.598 209.669 516.075 230.992 516.075 257.296C516.075 283.6 537.598 304.923 564.147 304.923Z" fill="white"/>
<path d="M414.59 647.659C491.288 647.659 553.465 594.45 553.465 528.814C553.465 463.178 491.288 409.969 414.59 409.969C337.892 409.969 275.715 463.178 275.715 528.814C275.715 594.45 337.892 647.659 414.59 647.659Z" fill="white"/>
<path fill-rule="evenodd" clip-rule="evenodd" d="M296.645 593.883L298.204 595.016C294.683 598.184 289.387 594.244 286.418 590.552C281.642 584.614 276.797 578.305 275.344 570.817C274.517 566.557 274.847 562.167 275.182 557.84L276.529 540.391C277.125 532.659 277.724 524.913 279.059 517.274C282.671 496.601 291.764 476.916 305.152 460.784L305.285 460.623C307.65 457.775 310.232 454.665 310.186 450.973C310.09 443.163 314.575 435.864 320.465 430.751C326.354 425.638 333.565 422.357 340.665 419.145C343.881 417.69 348.081 416.386 350.575 418.891C355.702 424.042 364.26 420.761 371.033 418.145C379.348 414.932 388.231 413.201 397.141 413.057C397.399 413.053 397.661 413.05 397.924 413.046C403.274 412.969 409.295 412.883 412.559 408.727C414.637 406.08 418.611 406.233 421.946 406.633L444.884 409.385C446.637 409.595 448.738 410.075 449.29 411.756C450.772 416.265 455.999 418.104 460.53 419.475C476.642 424.346 492.39 430.961 506.068 440.791C519.746 450.621 531.306 463.845 537.441 479.56C527.468 465.888 517.236 451.96 503.394 442.251C499.433 439.473 495.22 437.074 490.943 434.813C480.85 429.477 470.346 424.878 459.434 421.538C408.776 406.031 350.178 420.413 312.386 457.627C306.907 463.023 301.769 468.966 298.66 476.009L302.766 477.287C296.26 480.203 291.426 486.592 290.381 493.663C292.999 489.166 296.731 485.325 301.148 482.584C299.884 486.819 296.596 490.222 293.374 493.558C289.266 497.808 285.265 501.95 285.689 507.567C287.639 502.435 292.551 498.56 297.985 497.871C289.367 506.314 280.119 516.225 280.394 528.305C283.538 521.329 288.875 515.368 295.453 511.486L285.983 524.248C282.402 529.076 278.63 534.59 279.448 540.551C282.564 534.943 287.019 530.09 292.334 526.513C289.775 532.35 286.121 537.702 281.619 542.206C285.899 541.688 290.021 539.909 293.34 537.15C291.948 539.098 290.694 541.295 290.648 543.691C290.601 546.087 292.148 548.657 294.513 549.002C295.229 547.397 297.473 546.719 298.954 547.661C294.466 552.039 294.42 560.151 298.857 564.581C299.252 562.499 301.003 560.744 303.078 560.35C299.769 566.153 299.174 573.44 301.498 579.705C302.201 576.156 304.166 572.871 306.956 570.576C305.347 578.996 301.79 587.036 296.645 593.883ZM294.684 591.201C297.485 591.171 299.228 588.029 299.52 585.234C299.87 581.891 299.042 578.549 298.22 575.29L293.347 555.959C292.429 556.25 292.323 557.251 292.212 558.299C292.116 559.194 292.017 560.123 291.407 560.675C290.174 559.136 290.034 556.808 291.074 555.131C292.124 553.439 291.436 551.07 289.947 549.751C288.457 548.432 286.384 547.983 284.398 547.918C283.324 547.882 282.182 547.965 281.304 548.585C280.425 549.205 279.963 550.523 280.587 551.4C282.445 554.009 283.842 556.948 284.696 560.038C284.759 560.269 284.821 560.503 284.883 560.738C285.307 562.343 285.744 563.992 286.914 565.136C287.818 566.02 288.049 567.369 288.233 568.622L289.723 578.78C289.993 580.629 290.264 582.515 289.954 584.358C289.644 586.2 288.651 588.027 286.985 588.864L292.306 590.679C293.078 590.942 293.868 591.209 294.684 591.201ZM352.69 424.706C351.642 424.928 350.763 424.004 350.012 423.215L349.926 423.124C349.156 422.317 347.834 421.615 347.023 422.379C337.577 431.291 326.829 438.811 315.228 444.623C313.123 445.678 312.84 448.522 312.839 450.884C312.838 451.671 313.591 452.778 314.082 452.162C316.473 449.157 319.584 446.823 322.658 444.524C331.309 438.056 340.063 431.528 349.98 427.264C351.183 426.746 352.592 426.015 352.69 424.706ZM447.623 414.683C447.087 413.423 445.566 412.969 444.223 412.716C440.568 412.025 436.847 411.712 433.129 411.4C428.024 410.969 422.926 410.541 418.012 409.136C416.439 408.685 415.093 410.284 414.23 411.679C416.819 411.409 419.424 411.297 422.027 411.345C426.557 411.429 431.063 411.994 435.558 412.56C437.843 412.847 440.143 413.138 442.334 413.849C442.589 413.931 442.846 414.019 443.105 414.108C444.601 414.623 446.147 415.156 447.623 414.683ZM399.265 434.046C400.301 434.283 401.286 435.059 401.442 436.112C401.596 437.163 400.88 438.187 399.964 438.723C399.05 439.258 397.968 439.408 396.918 439.548L393.757 439.967C393.44 440.009 393.114 440.055 392.839 440.218C392.044 440.69 392.099 441.968 392.748 442.627C393.399 443.284 394.395 443.448 395.318 443.446C399.618 443.438 403.689 440.334 405.002 436.228C405.314 435.254 405.479 434.169 405.093 433.221C404.896 432.74 404.569 432.323 404.206 431.954C402.514 430.235 399.994 429.477 397.593 429.647C395.191 429.818 392.906 430.844 390.952 432.253C390.015 432.93 389.123 433.721 388.59 434.748C388.059 435.775 387.944 437.08 388.54 438.07C388.767 438.449 389.118 438.783 389.552 438.855C389.986 438.926 390.488 438.645 390.542 438.207C390.692 436.989 391.578 435.96 392.634 435.341C393.691 434.722 394.908 434.45 396.108 434.209C397.15 434 398.23 433.809 399.265 434.046ZM314.524 494.283C315.705 487.274 321.35 481.576 327.931 478.936C331.557 477.48 335.706 476.843 339.354 478.245C340.254 478.59 341.125 479.068 341.774 479.783C342.383 480.455 342.766 481.303 343.055 482.163C344.908 487.675 343.028 494.048 339.048 498.278C335.067 502.508 329.271 504.727 323.487 505.143C321.633 505.276 319.643 505.201 318.112 504.145C316.582 503.089 315.823 500.742 317.001 499.302C317.558 499.328 317.859 499.827 318.166 500.337C318.318 500.59 318.472 500.846 318.66 501.049C319.303 501.743 320.365 501.792 321.308 501.753C325.41 501.579 329.574 500.56 332.912 498.164C336.25 495.768 338.65 491.855 338.579 487.738C338.556 486.412 338.269 485.054 337.52 483.962C336.29 482.167 333.964 481.357 331.797 481.501C329.631 481.644 327.6 482.608 325.755 483.756C323.328 485.266 321.084 487.166 319.563 489.591C318.041 492.016 317.297 495.014 317.94 497.806C317.371 498.834 315.682 498.629 314.983 497.684C314.284 496.739 314.328 495.443 314.524 494.283ZM352.299 552.048C349.298 553.985 346.81 557.016 346.346 560.563C345.972 563.434 346.931 566.293 347.877 569.029C348.615 571.165 349.377 573.345 350.783 575.111C353.322 578.302 357.525 579.622 361.543 580.269C362.637 580.446 364.297 579.95 363.907 578.91C359.665 578.832 355.493 576.86 352.732 573.629C349.971 570.398 348.667 565.961 349.24 561.745C349.36 560.858 349.563 559.976 349.933 559.162C350.685 557.515 352.086 556.248 353.603 555.266C356.867 553.15 360.842 552.159 364.715 552.494C368.448 552.818 372.177 554.459 374.457 557.442C376.736 560.425 377.28 564.826 375.268 567.998C374.942 568.513 374.703 569.425 375.302 569.532C378.54 567.783 380.337 563.925 380.156 560.241C379.975 556.557 378.034 553.109 375.37 550.568C373.895 549.162 372.149 547.974 370.172 547.497C367.565 546.866 364.837 547.517 362.244 548.2C358.792 549.111 355.299 550.112 352.299 552.048ZM499.68 556.624C488.828 552.561 477.036 551.046 465.514 552.236C460.682 552.735 455.835 553.723 451.492 555.904C443.296 560.017 437.436 568.485 436.461 577.624C435.487 586.762 439.427 596.282 446.57 602.042C449.278 604.225 452.353 605.86 455.431 607.498C457.533 608.616 459.636 609.735 461.626 611.029C462.195 611.575 460.915 612.118 460.167 611.876C453.207 609.623 446.448 606.196 441.483 600.81C435.443 594.258 432.497 584.953 433.662 576.106C434.827 567.26 440.081 559.041 447.61 554.286C453.565 550.525 460.685 548.941 467.718 548.686C474.752 548.432 481.765 549.44 488.719 550.52C493.063 551.195 498.156 552.489 499.68 556.624ZM385.497 570.26C385.004 569.128 383.024 568.832 382.661 570.014C380.359 577.526 373.05 583.207 365.221 583.566C363.452 583.648 361.681 583.482 359.917 583.312C356.12 582.943 352.204 582.508 348.879 580.632C344.097 577.936 341.219 572.4 341.186 566.898C341.151 561.396 343.753 556.05 347.705 552.233C347.156 550.693 344.802 551.437 343.632 552.576C337.152 558.893 336.04 569.796 340.587 577.628C345.134 585.461 354.663 589.85 363.645 588.855C372.628 587.859 380.737 581.828 384.913 573.791C385.482 572.695 385.99 571.392 385.497 570.26ZM329.249 608.302C327.786 613.929 327.647 619.898 328.846 625.588C329.385 628.14 329.443 629.545 329.454 629.809C329.455 629.839 329.456 629.854 329.457 629.854C329.457 629.854 329.458 629.839 329.459 629.809C329.471 629.545 329.535 628.134 330.085 625.578C331.313 619.878 331.021 613.856 329.249 608.302ZM337.023 611.705C334.943 616.075 335.201 621.482 337.686 625.633C338.244 626.565 338.668 627.324 338.98 627.883C339.4 628.635 339.62 629.027 339.696 629.001C339.779 628.973 339.69 628.446 339.506 627.343C339.432 626.9 339.343 626.365 339.242 625.732L337.023 611.705ZM342.875 617.286C341.993 620.075 342.643 623.301 344.535 625.529C346.466 627.805 347.098 628.534 346.508 625.605C345.908 622.615 344.66 619.756 342.875 617.286ZM512.257 585.55C509.604 596.236 501.126 604.332 492.906 611.632C493.282 612.444 494.496 612.153 495.273 611.714C503.6 607.015 510.337 599.355 513.411 590.284C516.485 581.212 515.72 570.788 510.869 562.535C510.461 561.842 509.942 561.105 509.155 560.95C508.368 560.796 507.461 561.711 507.924 562.368C512.588 568.992 514.212 577.682 512.257 585.55ZM392.554 489.073C392.534 487.382 392.557 485.552 393.575 484.205C394.977 482.35 397.635 482.155 399.956 482.123C400.991 482.108 402.04 482.095 403.048 482.335C405.194 482.847 406.902 484.435 408.425 486.035C408.762 486.389 409.122 486.826 409.038 487.308C408.934 487.907 408.187 488.182 407.593 488.06C407.198 487.978 406.845 487.781 406.491 487.584H406.49C406.311 487.485 406.132 487.385 405.948 487.3C403.814 486.319 401.307 487.395 399.39 488.755C399.089 488.969 398.764 489.243 398.756 489.613C398.749 489.985 399.066 490.272 399.365 490.493C401.955 492.395 405.271 493.276 408.46 492.909C409.223 492.821 410.119 492.541 410.317 491.796C410.394 491.506 410.364 491.164 410.335 490.834C410.287 490.281 410.241 489.761 410.704 489.57C410.945 489.47 411.219 489.541 411.469 489.615C413.196 490.118 415.214 490.928 415.548 492.699C415.645 493.211 415.577 493.744 415.413 494.239C414.938 495.687 413.613 496.818 412.112 497.058C411.445 497.164 410.765 497.106 410.092 497.049C408.335 496.897 406.577 496.746 404.836 496.464C401.639 495.948 398.513 494.993 395.573 493.634C394.553 493.163 393.492 492.582 392.975 491.582C392.582 490.822 392.563 489.929 392.554 489.073ZM458.207 447.389C457.18 444.605 454.698 442.408 451.815 441.73C450.923 441.521 449.916 441.47 449.16 441.988C448.402 442.507 448.142 443.77 448.863 444.337C449.563 444.886 449.14 446.179 448.286 446.422C447.432 446.666 446.512 446.085 446.085 445.303C445.659 444.522 445.613 443.593 445.608 442.703C445.602 441.514 445.71 440.187 446.586 439.386C446.919 439.08 447.335 438.883 447.748 438.698C449.454 437.933 451.341 437.285 453.164 437.696C454.901 438.087 456.287 439.374 457.498 440.683C458.492 441.755 459.432 442.879 460.313 444.047C461.089 445.076 461.835 446.173 462.127 447.431C462.418 448.688 462.168 450.146 461.199 450.997C460.251 451.828 458.793 451.899 457.643 451.385C456.626 450.931 455.759 449.932 455.835 448.819C455.91 447.705 457.274 446.782 458.207 447.389ZM467.376 525.684C469.925 525.611 472.299 523.642 472.849 521.146C473.184 519.628 472.771 517.823 471.452 517.007C470.488 516.41 469.276 516.453 468.146 516.526C466.581 516.627 464.957 516.764 463.598 517.547C462.238 518.331 461.227 519.954 461.653 521.468C462.346 523.928 464.828 525.757 467.376 525.684ZM467.703 521.996C467.211 522.13 466.509 522.002 466.464 521.492C466.445 521.28 466.559 521.08 466.689 520.912C467.413 519.972 468.793 519.606 469.885 520.066C469.506 520.999 468.674 521.735 467.703 521.996ZM469.02 484.181C468.604 483.221 469.409 482.101 470.386 481.733C471.168 481.438 472.018 481.468 472.862 481.5C473.072 481.507 473.281 481.515 473.488 481.517C474.533 481.53 475.686 481.355 476.363 480.558C476.602 480.278 476.764 479.865 476.582 479.544C476.391 479.208 475.942 479.151 475.559 479.131C472.898 478.992 469.756 479.074 468.223 481.258C467.893 481.729 467.086 481.569 466.778 481.086C466.47 480.602 466.54 479.967 466.716 479.42C467.344 477.462 469.147 476.038 471.117 475.468C473.087 474.897 475.202 475.077 477.202 475.531C477.877 475.684 478.577 475.886 479.069 476.373C479.46 476.758 479.678 477.288 479.821 477.819C480.502 480.358 479.496 483.267 477.393 484.838C475.291 486.411 472.223 486.546 469.991 485.166C469.593 484.919 469.206 484.611 469.02 484.181ZM459.901 529.058C461.137 530.543 462.6 531.893 464.374 532.649C467.962 534.176 472.549 532.766 474.664 529.483C475.436 528.288 475.78 526.464 474.64 525.616C472.815 529.463 467.52 531.162 463.807 529.092C463.095 528.695 462.449 528.188 461.861 527.623C459.19 525.059 457.796 520.871 459.363 517.513C459.874 516.418 460.658 515.473 461.516 514.623C463.387 512.771 466.064 511.255 468.561 512.079C468.665 512.113 468.769 512.151 468.872 512.19C469.222 512.318 469.573 512.448 469.941 512.427C470.417 512.399 470.915 511.971 470.793 511.508C470.756 511.372 470.672 511.252 470.584 511.141C469.04 509.169 466.011 508.56 463.828 509.783C461.231 511.238 458.592 512.952 457.21 515.595C454.962 519.896 456.797 525.33 459.901 529.058ZM501.271 462.709C501.157 462.874 501.186 463.102 501.214 463.321C501.246 463.581 501.276 463.826 501.064 463.931C500.286 464.316 499.356 464.276 498.527 464.022C496.265 463.325 494.748 461.243 493.468 459.247C492.72 458.08 491.975 456.841 491.854 455.457C491.733 454.075 492.438 452.518 493.766 452.128C495.246 451.692 496.697 452.796 497.85 453.825C499.15 454.986 500.479 456.182 501.283 457.729C502.088 459.278 502.266 461.277 501.271 462.709ZM496.353 457.529C496.672 457.84 496.846 458.259 497.022 458.677C497.193 459.089 497.366 459.501 497.676 459.811C498.069 460.204 498.666 460.38 499.209 460.263C498.192 458.685 497.013 457.21 495.697 455.872C495.346 455.978 495.317 456.501 495.528 456.802C495.657 456.985 495.836 457.119 496.017 457.255C496.132 457.342 496.249 457.429 496.353 457.529ZM302.7 600.157C302.574 602.228 302.732 604.629 304.385 605.877C304.936 605.569 304.899 604.779 304.829 604.15C304.402 600.277 305.601 596.545 306.807 592.788C307.67 590.099 308.537 587.397 308.815 584.621C308.897 583.817 308.682 582.715 307.875 582.683C307.271 582.66 306.882 583.299 306.638 583.854C304.38 588.998 303.039 594.546 302.7 600.157ZM463.079 525.439C464.944 526.266 467.012 527.11 468.965 526.516C469.741 526.279 470.432 525.83 471.112 525.386C471.109 526.53 470.128 527.491 469.034 527.817C467.941 528.144 466.765 527.97 465.65 527.727C464.411 527.459 462.897 526.696 463.079 525.439ZM315.517 620.938C315.993 620.088 316.074 619.079 316.145 618.107L316.708 610.362C316.984 606.56 317.261 602.744 317.013 598.941C316.982 598.462 316.933 597.957 316.654 597.566C316.375 597.175 315.785 596.966 315.403 597.256C315.122 597.47 315.051 597.856 315.002 598.206C314.391 602.604 314.064 607.041 314.025 611.482C313.996 614.701 314.143 618.028 315.517 620.938ZM307.075 614.281C306.58 614.7 305.757 614.332 305.484 613.743C305.212 613.153 305.322 612.465 305.439 611.827C306.661 605.142 308.048 598.488 309.596 591.871C309.635 591.706 309.677 591.534 309.784 591.402C310.192 590.896 311.016 591.405 311.305 591.986C312.015 593.413 311.675 595.117 311.32 596.671L307.502 613.37C307.426 613.704 307.336 614.061 307.075 614.281ZM320.299 614.578C320.085 617.086 320.461 619.601 320.834 622.09C320.967 622.975 321.604 624.153 322.401 623.75L323.957 607.068C324.02 606.389 324.063 605.637 323.644 605.1C323.224 604.564 322.162 604.586 322.028 605.254L320.881 610.975C320.641 612.169 320.401 613.365 320.299 614.578ZM480.929 563.45C476.5 561.164 471.111 560.262 466.51 562.178C463.074 563.609 453.363 569.789 452.07 577.711C451.205 583.014 451.214 588.433 453.065 593.553L453.363 594.355C453.913 595.806 455.67 597.472 456.651 596.273C453.785 591.075 453.249 584.641 455.217 579.039C457.184 573.437 461.624 568.759 467.105 566.511C468.259 566.038 469.463 565.666 470.704 565.548C473.213 565.31 475.718 566.126 477.961 567.278C482.79 569.759 488.773 573.885 491.071 578.815C493.288 583.567 494.919 589.234 492.914 594.08C490.909 598.925 477.735 602.43 477.735 602.43L479.193 605.098C479.193 605.098 486.567 603.639 491.071 600.35C509.978 586.539 485.165 565.638 480.929 563.45Z" fill="#00160A"/>
<path fill-rule="evenodd" clip-rule="evenodd" d="M146.077 495.263C139.365 495.974 132.257 494.441 127.017 490.236C123.306 487.26 120.698 483.117 118.868 478.753C116.881 474.016 115.739 468.934 115.509 463.81C115.422 461.882 115.469 459.917 116.043 458.071C116.987 455.034 119.261 452.597 121.581 450.397C126.52 445.718 132.324 441.448 139.092 440.464C143.705 439.794 148.397 440.708 152.911 441.855C156.458 442.757 159.999 443.821 163.188 445.597C170.237 449.524 175.12 457.012 175.827 464.975C176.533 472.939 175.664 478.216 164.787 488.11C159.135 491.756 152.789 494.551 146.077 495.263ZM157.913 470.265C156.825 470.604 155.739 471.204 154.615 471.008C152.32 470.61 151.909 467.497 152.418 465.25C153.878 458.816 158.417 453.134 164.411 450.237C163.054 447.805 159.45 447.626 156.9 448.795C154.351 449.964 152.358 452.07 149.893 453.403C148.666 454.066 147.211 454.537 145.877 454.123C143.68 453.444 142.842 450.601 143.561 448.441C144.28 446.281 146.074 444.67 147.797 443.162C141.554 443.378 135.376 445.23 130.063 448.477C125.903 451.019 121.957 455.187 122.51 459.988C125.949 457.253 129.986 455.257 134.263 454.177C135.171 453.948 136.31 453.833 136.878 454.569C137.308 455.126 137.184 455.928 136.908 456.573C135.541 459.778 131.52 460.852 129.027 463.305C128.7 463.627 128.385 463.999 128.306 464.449C128.151 465.33 129.001 466.134 129.894 466.282C130.788 466.428 131.684 466.107 132.531 465.791C134.291 465.135 136.05 464.48 137.81 463.824C139.084 463.349 140.596 462.895 141.729 463.641C142.901 464.414 143.011 466.17 142.349 467.397C141.687 468.625 140.471 469.449 139.301 470.224C136.481 472.092 133.661 473.959 130.841 475.826C128.48 477.39 125.835 479.498 126.06 482.297C126.271 484.933 129.205 486.723 131.874 486.554C134.544 486.385 136.894 484.772 138.865 482.984C140.835 481.196 142.614 479.154 144.902 477.785C146.396 476.891 148.526 476.395 149.739 477.635C150.676 478.594 150.586 480.134 150.234 481.422C149.22 485.129 146.48 488.339 142.95 489.951C145.822 490.606 148.816 490.729 151.732 490.313C153.396 490.076 155.117 489.62 156.32 488.461C157.522 487.301 157.988 485.26 156.945 483.959C155.389 482.018 155.45 479.177 156.445 476.903C157.439 474.63 159.215 472.794 160.954 471.011C160.456 469.996 159.002 469.928 157.913 470.265ZM171.205 474.672C172.768 471.102 172.825 467.063 172.429 463.193C171.991 458.912 170.481 454.017 166.399 452.517C160.418 454.969 155.802 460.442 154.439 466.697C154.324 467.222 154.234 467.787 154.444 468.284C154.653 468.78 155.274 469.143 155.757 468.893C157.41 468.037 159.445 467.551 161.125 468.354C162.806 469.156 163.625 471.659 162.263 472.921C160.759 474.316 159.215 475.767 158.404 477.641C157.592 479.514 157.709 481.94 159.237 483.309C160.384 484.339 160.387 486.359 159.242 487.391C162.498 486.452 164.818 483.685 166.929 481.063C168.543 479.059 170.175 477.024 171.205 474.672ZM133.728 456.207C130.342 457.595 127.054 459.219 123.9 461.064C123.149 461.502 122.391 461.967 121.842 462.636C121.101 463.54 120.819 464.72 120.591 465.861C119.851 469.547 119.47 473.517 121.037 476.941C121.537 478.033 122.22 479.033 122.9 480.027C123.101 480.32 123.329 480.634 123.673 480.733C124.017 480.831 124.472 480.557 124.391 480.212C124.142 479.149 124.957 478.149 125.761 477.401C130.47 473.021 136.814 470.507 141.05 465.677C140.407 464.925 139.188 465.279 138.273 465.665C136.091 466.585 133.841 467.349 131.548 467.946C130.364 468.255 129.045 468.506 127.966 467.937C126.385 467.104 126.128 464.827 126.963 463.262C127.798 461.696 129.385 460.685 130.915 459.766C132.445 458.847 134.051 457.887 134.97 456.368C134.802 455.936 134.161 456.03 133.728 456.207ZM145.318 485.548C146.814 484.36 148.431 482.958 148.595 481.068C148.68 480.08 148.039 478.871 147.039 478.966C146.732 478.995 146.451 479.145 146.186 479.302C141.834 481.87 138.971 486.893 134.061 488.142C135.449 488.755 136.895 489.238 138.375 489.581C138.815 489.684 139.274 489.774 139.717 489.683C140.233 489.577 140.665 489.242 141.075 488.916C142.489 487.793 143.903 486.67 145.318 485.548ZM149.365 444.484C148.397 445.541 147.429 446.6 146.46 447.658C145.693 448.496 144.869 449.603 145.297 450.651C145.611 451.423 146.54 451.814 147.38 451.75C148.221 451.685 148.986 451.26 149.69 450.803C152.201 449.176 154.461 446.959 157.391 446.308C155.359 445.577 153.328 444.845 151.296 444.114C150.874 443.961 150.402 443.81 149.986 443.979C149.736 444.081 149.546 444.285 149.365 444.484Z" fill="#00160A"/>
<path fill-rule="evenodd" clip-rule="evenodd" d="M187.249 316.82C186.995 321.879 183.08 327.359 178.035 326.76C175.757 324.134 173.976 320.875 172.214 317.654C168.831 311.467 165.526 305.422 158.939 304.274C152.47 303.147 146.445 307.891 142.416 313.062C136.581 320.55 132.81 329.623 131.622 339.031C130.923 344.564 133.198 352.234 138.756 351.626C145.105 350.93 149.62 355.91 154.213 360.975C158.463 365.662 162.779 370.423 168.677 370.824C175.699 371.302 181.435 375.497 187.242 379.743C191.12 382.579 195.03 385.437 199.375 387.228C207.548 390.595 216.974 389.944 225.317 387.019C233.661 384.095 241.086 379.059 248.113 373.705L248.482 373.424C252.318 370.499 256.334 367.437 261.103 366.793C285.495 363.498 308.182 349.233 321.676 328.707C340.806 343.954 367.552 349.165 391.031 342.22C395.015 341.041 399.024 339.461 401.978 336.548C404.933 333.634 406.608 329.11 405.156 325.228C403.568 320.982 398.822 318.709 394.311 318.163C391.839 317.862 389.347 317.951 386.853 318.04H386.852C384.796 318.113 382.739 318.186 380.691 318.042C368.289 317.167 357.961 308.638 348.57 300.513C362.177 296.352 373.209 285.899 380.494 273.709C387.777 261.517 391.681 247.63 394.647 233.751C396.208 226.447 397.367 218.219 393.183 212.027C391.309 209.255 388.563 207.228 385.826 205.209C382.744 202.935 379.674 200.67 377.878 197.36C374.422 190.992 367.686 187.217 361.297 183.777C344.577 174.776 325.372 165.513 307.352 171.524C300.333 173.866 294.27 178.352 288.359 182.793C278.542 190.166 268.025 198.816 266.156 210.929C250.094 203.763 229.312 209.486 219.214 223.855C216.904 227.141 215.132 230.766 213.36 234.387C211.275 238.65 209.192 242.907 206.239 246.602C194.378 241.214 182.293 236.316 170.026 231.926C164.588 229.98 158.09 228.259 153.403 231.629C149.645 234.331 148.492 239.634 149.596 244.121C150.698 248.609 153.644 252.412 156.802 255.792C163.653 263.125 171.884 269.174 180.937 273.529C181.229 273.67 181.523 273.81 181.818 273.95C184.653 275.296 187.567 276.68 189.455 279.152C191.538 281.88 191.668 286.447 188.746 288.257C184.431 290.931 183.636 296.932 184.521 301.921C184.823 303.625 185.267 305.314 185.71 307C186.564 310.249 187.415 313.489 187.249 316.82ZM304.406 343.497C293.532 354.881 278.23 361.541 262.585 363.489C246.939 365.435 230.963 362.904 216.017 357.896C220.038 357.894 222.944 352.645 220.806 349.251C212.569 358.825 200.011 363.309 188.046 367.403C177.235 371.103 164.314 368.416 156.373 360.22C148.433 352.024 146.284 338.576 151.869 328.632C154.296 324.311 158.413 320.548 163.362 320.124C168.312 319.7 173.642 323.793 173.182 328.725C170.429 328.247 167.529 330.58 167.416 333.365C178.072 332.221 188.089 326.132 193.992 317.214C196.029 314.135 197.578 310.783 199.127 307.427C200.168 305.174 201.209 302.919 202.399 300.746C205.362 295.335 209.615 290.178 215.511 288.318C220.242 286.826 225.356 287.654 230.246 288.495L251.969 292.229C253.595 290.829 250.962 288.587 248.86 288.149C242.07 286.735 235.186 285.863 228.301 284.991C221.917 284.183 215.532 283.374 209.222 282.133C196.107 279.553 182.925 274.833 173.379 265.503C179.855 261.788 184.781 255.477 186.802 248.307C187.211 246.856 186.237 244.474 185.055 245.413C183.706 250.067 182.243 254.923 178.86 258.402C175.478 261.882 169.541 263.411 165.714 260.425C160.744 256.55 155.519 252.322 153.554 246.346C151.589 240.368 154.698 232.34 160.963 231.607C163.776 231.278 166.525 232.437 169.119 233.571L195.284 245.007C203.071 248.41 210.976 251.848 219.387 253.083C225.294 253.95 231.301 253.707 237.265 253.461L254.176 252.766C254.867 252.738 255.577 252.705 256.213 252.434C257.912 251.712 258.488 249.642 258.863 247.84C263.401 226.006 269.498 202.965 285.992 187.908C293.373 181.17 302.568 176.427 312.346 174.311C321.986 172.225 332.621 172.838 340.92 178.154C326.999 179.175 313.48 185.029 303.229 194.475C298.921 189.89 290.903 193.638 287.468 198.904C282.142 207.067 282.238 218.407 287.703 226.479C292.303 233.273 294.009 241.38 295.718 249.506C297.29 256.974 298.864 264.458 302.691 270.954C308.746 281.23 320.021 287.826 331.797 289.871C343.573 291.916 355.781 289.78 366.973 285.595C354.447 298.053 334.436 302.362 317.871 296.168C316.663 295.717 315.462 295.213 314.26 294.709L314.259 294.708C310.453 293.11 306.633 291.505 302.551 291.554C304.942 294.079 307.997 295.975 311.326 297C307.488 303.428 303.461 309.743 299.252 315.937C298.714 316.729 298.1 317.573 297.179 317.841C296.152 318.139 295.081 317.63 294.144 317.114C286.407 312.85 279.47 307.143 273.802 300.378L262.462 314.131C268.282 321.225 275.085 327.513 282.618 332.762C272.592 345.112 257.402 353.156 241.524 354.523C257.959 355.358 274.597 347.672 284.585 334.631C290.907 338.171 297.549 341.142 304.406 343.497ZM356.38 222.56C360.01 218.611 361.356 212.972 361.046 207.624C360.736 202.276 358.932 197.132 356.935 192.158C362.137 191.543 367.422 193.5 371.566 196.696C375.71 199.891 378.822 204.239 381.375 208.8C384.47 214.328 386.843 220.306 387.871 226.554C390.296 241.265 385.121 256.264 377.753 269.237C376.322 271.756 374.783 274.258 372.694 276.268C370.592 278.293 368.005 279.749 365.354 280.977C354.413 286.046 341.829 287.509 330.013 285.084C337.556 278.823 342.883 270.197 346.276 261.014C349.668 251.831 351.221 242.07 352.115 232.325L352.12 232.271C352.346 229.813 352.582 227.23 353.987 225.201C354.453 224.529 355.028 223.946 355.604 223.364C355.865 223.099 356.128 222.833 356.38 222.56ZM342.73 263.151C339.475 270.742 334.432 277.712 327.596 282.37C326.796 282.916 325.936 283.442 324.973 283.555C324.123 283.654 323.271 283.42 322.455 283.163C316.643 281.334 311.151 278.092 307.423 273.285C306.07 271.541 304.966 269.616 303.98 267.642C296.804 253.264 296.1 235.82 302.097 220.914C302.384 220.202 302.793 219.402 303.548 219.253C304.524 219.06 305.273 220.056 305.822 220.883C310.3 227.651 318.676 231.078 326.801 231.433C334.925 231.787 342.918 229.485 350.622 226.889C349.218 230.312 348.86 234.041 348.506 237.736V237.741L348.505 237.746C348.461 238.207 348.417 238.669 348.37 239.129C347.545 247.344 345.985 255.56 342.73 263.151ZM341.075 192.629C345.233 191.686 350.083 191.427 353.26 194.263C354.286 195.179 355.048 196.353 355.675 197.576C359.61 205.242 358.069 215.339 352.025 221.492C345.039 228.604 333.981 229.776 324.032 228.933C320.462 228.63 316.791 228.081 313.743 226.203C309.8 223.773 307.465 219.491 305.305 215.4C314.892 204.72 327.058 195.806 341.075 192.629ZM374.699 321.564C373.395 324.848 372.078 328.176 371.651 331.682C371.224 335.188 371.78 338.951 373.918 341.767C356.17 342.745 338.136 337.289 323.927 326.641C328.509 320.176 332.127 313.033 334.626 305.519C335.615 302.551 339.383 301.313 342.443 302C345.26 302.633 347.625 304.435 349.932 306.192L350.215 306.407C350.319 306.486 350.423 306.566 350.527 306.644C358.081 312.363 366.406 316.974 374.699 321.564ZM250.684 366.407C247.885 369.549 244.54 372.157 241.122 374.617C233.99 379.752 226.212 384.419 217.543 385.911C204.839 388.096 191.113 382.633 183.411 372.324L211.122 362.018C211.785 361.771 212.472 361.52 213.18 361.56C213.579 361.582 213.963 361.697 214.348 361.811C214.604 361.888 214.861 361.963 215.123 362.014C216.012 362.181 216.909 362.034 217.811 361.886C218.372 361.794 218.934 361.701 219.497 361.684C221.572 361.623 223.478 362.568 225.364 363.503C225.842 363.74 226.32 363.976 226.799 364.196C234.147 367.565 242.619 367.02 250.684 366.407ZM210.672 248.191C210.477 247.755 210.684 247.254 210.89 246.824C216.565 234.973 224.072 223.997 233.064 214.403C239.39 223.161 243.6 233.426 245.24 244.094C245.569 246.226 245.214 249.175 243.067 249.441C232.776 250.72 222.305 250.546 212.063 248.927C211.521 248.841 210.897 248.69 210.672 248.191ZM249.431 247.46C247.312 235.845 242.913 224.649 236.557 214.689C241.937 211.865 248.298 211.818 254.378 211.838C258.218 211.85 262.41 211.984 265.336 214.463L257.745 236.796C256.457 240.587 255.151 244.486 255.314 248.486L250.516 248.562C250.344 248.565 250.168 248.566 250.011 248.501C249.627 248.341 249.506 247.868 249.431 247.46ZM311.172 304.613C312.447 302.451 313.661 300.141 313.79 297.636C319.531 300.211 325.854 301.486 332.146 301.34C333.135 301.317 333.099 302.836 332.694 303.734C331.469 306.454 330.243 309.176 328.824 311.801C327.369 314.495 325.717 317.077 324.065 319.657L320.109 325.84C319.568 326.687 319.009 327.552 318.204 328.156C316.044 329.775 312.962 328.996 310.497 327.892C306.41 326.061 302.647 323.511 299.435 320.393C303.896 315.569 307.838 310.269 311.172 304.613ZM162.711 309.955C164.613 311.867 165.857 314.319 167.069 316.726L161.362 317.537C159.46 317.807 157.511 318.093 155.831 319.02C154.196 319.922 152.935 321.369 151.825 322.867C147.184 329.136 144.611 336.902 144.595 344.695C144.59 347.509 141.253 349.517 138.523 348.804C135.792 348.09 133.937 345.386 133.465 342.611C132.993 339.836 133.658 336.999 134.492 334.31C137.425 324.848 142.674 315.911 150.438 309.733C151.922 308.553 153.561 307.448 155.435 307.15C158.102 306.725 160.81 308.043 162.711 309.955ZM402.348 325.795C403.008 326.64 403.497 327.67 403.468 328.742C403.429 330.125 402.549 331.339 401.601 332.352C396.093 338.238 387.627 340.242 379.608 341.186C379.08 341.249 378.526 341.305 378.03 341.112C377.623 340.953 377.295 340.64 377.005 340.314C375.07 338.145 374.304 335.113 374.461 332.214C374.617 329.315 375.621 326.523 376.87 323.902C377.134 323.349 377.438 322.769 377.974 322.473C378.403 322.237 378.913 322.218 379.402 322.206L389.106 321.952C391.496 321.89 393.911 321.829 396.251 322.321C398.589 322.811 400.88 323.915 402.348 325.795ZM294.196 234.37C290.24 227.065 287.283 219.225 285.427 211.132L287.024 206.877C289.001 203.063 291.492 199.513 294.41 196.355C295.599 195.07 297.659 194.927 299.299 195.546C300.939 196.166 302.258 197.398 303.532 198.601L309.261 204.014C309.431 204.175 309.609 204.348 309.667 204.575C309.773 205.002 309.419 205.394 309.099 205.697C306.416 208.241 304.032 211.109 302.12 214.27C299.231 219.048 297.467 224.403 295.727 229.705L294.196 234.37ZM308.838 193.341C320.503 187.111 333.263 181.249 346.422 182.652C353.301 183.384 359.881 186.113 365.612 189.979C349.197 185.771 330.9 189.652 317.623 200.156C315.571 201.78 312.492 203.543 310.665 201.671C310.196 201.191 309.89 200.518 309.591 199.861C309.112 198.811 308.653 197.804 307.581 197.706C306.558 197.612 306.102 196.227 306.537 195.299C306.971 194.37 307.933 193.824 308.838 193.341ZM276.791 307.282C279.094 309.488 281.63 311.435 284.159 313.378L294.379 321.227C291.233 323.992 288.153 326.835 285.145 329.751C277.985 325.519 271.593 319.997 266.373 313.534C269.231 310.566 271.974 307.488 274.595 304.311C275.007 305.483 275.893 306.421 276.791 307.282ZM211.08 286.054C205.698 290.245 200.134 294.657 197.174 300.793C196.596 301.992 196.118 303.255 195.641 304.514C194.626 307.192 193.616 309.861 191.65 311.9C190.778 311.645 190.436 310.62 190.224 309.739L188.175 301.247C187.899 300.101 187.622 298.923 187.778 297.755C187.935 296.593 188.51 295.534 189.074 294.504L195.082 283.557C195.217 283.313 195.355 283.062 195.57 282.885C196.102 282.444 196.888 282.585 197.559 282.749L211.08 286.054ZM298.502 323.661C302.172 327.423 306.733 330.316 311.706 332.034C312.636 331.161 314.433 331.642 314.8 332.862C313.089 335.075 311.211 337.161 309.185 339.094C308.281 339.957 306.832 339.775 305.611 339.496C299.651 338.131 293.911 335.82 288.671 332.675C288.321 332.465 287.926 332.166 287.962 331.759C287.985 331.486 288.2 331.273 288.403 331.088L295.759 324.333C296.53 323.625 297.771 322.911 298.502 323.661ZM392.413 229.303C392.345 230.13 392.228 231.054 391.579 231.575C391.574 225.073 389.956 218.579 386.911 212.829C386.36 211.787 385.76 210.768 385.094 209.793C385.009 209.667 384.922 209.542 384.835 209.416C384.163 208.449 383.476 207.46 383.312 206.305L391.194 214.515C391.918 215.27 392.664 216.058 393.008 217.047C393.338 218 393.259 219.039 393.177 220.044L392.413 229.303ZM383.356 218.869L381.572 216.627C379.608 214.158 377.199 211.464 374.039 211.46C372.205 211.458 370.52 212.395 368.928 213.304L366.458 214.717C365.783 215.103 365.089 215.504 364.613 216.119C363.24 217.889 364.241 220.476 365.539 222.302C366.437 223.566 367.514 224.779 368.941 225.387C370.789 226.174 372.914 225.826 374.851 225.294C377.502 224.564 380.065 223.512 382.463 222.168C383.23 221.738 384.077 221.108 384.038 220.233C384.015 219.717 383.679 219.274 383.356 218.869ZM367.763 220.601C367.456 220.114 367.139 219.593 367.134 219.016C367.124 217.891 368.251 217.135 369.243 216.596L372.765 214.681C373.298 214.391 373.851 214.095 374.458 214.054C375.063 214.013 375.736 214.304 375.939 214.873C376.54 216.556 378.021 217.897 379.757 218.333C380.319 218.475 380.5 219.251 380.234 219.765C379.968 220.279 379.424 220.579 378.905 220.836C377.049 221.754 375.108 222.504 373.114 223.071C372.314 223.298 371.469 223.497 370.66 223.305C369.339 222.991 368.487 221.748 367.763 220.601ZM342.703 237.942C339.209 238.348 338.544 244.629 340.167 247.979C340.5 248.668 341.023 249.378 341.785 249.474C343.086 249.639 343.806 248.037 344.094 246.761L344.101 246.73C344.481 245.048 346.175 237.538 342.703 237.942ZM324.684 246.181C325.382 244.557 325.616 242.735 325.349 240.988C325.224 240.176 324.979 239.351 324.435 238.734C323.891 238.118 322.991 237.759 322.216 238.037C321.515 238.289 321.073 238.973 320.742 239.639C319.569 241.989 319.102 244.683 319.415 247.289C319.561 248.501 321.092 249.164 322.255 248.78C323.418 248.397 324.202 247.304 324.684 246.181ZM334.984 242.462C335.526 242.015 336.21 242.828 336.43 243.496C337.154 245.689 337.753 247.922 338.223 250.182C338.521 251.61 338.766 253.094 338.449 254.518C338.002 256.526 336.472 258.159 334.696 259.205C332.92 260.251 330.899 260.793 328.906 261.323C328.379 261.463 327.717 261.563 327.377 261.138C327.089 260.778 327.231 260.214 327.56 259.888C327.882 259.571 328.331 259.424 328.762 259.283L328.788 259.274C331.895 258.256 335.214 256.419 335.938 253.239C336.336 251.491 335.852 249.735 335.366 247.971C334.923 246.364 334.479 244.752 334.698 243.133C334.731 242.887 334.791 242.622 334.984 242.462ZM313.286 235.311C312.468 234.18 313.124 232.463 314.31 231.727C315.496 230.989 316.996 230.999 318.382 231.178C320.036 231.391 321.664 231.81 323.216 232.424C323.546 232.555 323.902 232.721 324.047 233.045C324.316 233.643 323.62 234.298 322.962 234.297C322.432 234.297 321.952 234.043 321.477 233.791C321.362 233.731 321.248 233.67 321.133 233.613C318.544 232.332 315.11 233.075 313.286 235.311ZM343.129 234.921C344.36 234.717 345.664 235 346.698 235.696C347.13 235.987 347.749 235.498 347.752 234.978C347.754 234.458 347.365 234.021 346.956 233.7C346.072 233.006 344.974 232.592 343.852 232.53C343.129 232.489 342.328 232.629 341.862 233.182C341.396 233.735 341.536 234.774 342.235 234.966C342.484 235.036 342.746 234.988 343.003 234.943C343.045 234.936 343.087 234.928 343.129 234.921ZM327.858 266.798C328.203 266.603 328.661 266.943 328.713 267.336C328.764 267.729 328.539 268.106 328.282 268.408C326.992 269.927 324.769 270.394 322.805 270.037C320.842 269.682 319.082 268.63 317.425 267.519C316.647 266.998 315.879 266.457 315.124 265.902C314.342 265.326 313.509 264.621 313.415 263.655C313.322 262.69 314.562 261.717 315.27 262.382C317.01 264.016 318.791 265.678 320.955 266.688C323.121 267.7 325.775 267.969 327.858 266.798ZM290.586 274.538C283.335 258.82 280.309 241.187 281.908 223.96C281.935 223.665 281.972 223.35 282.167 223.127C282.443 222.813 283.007 222.826 283.268 223.152C283.175 232.63 283.086 242.163 284.638 251.513C286.189 260.864 289.484 270.114 295.499 277.452C295.679 277.672 295.861 277.889 296.044 278.108C297.079 279.345 298.122 280.593 298.709 282.085C294.797 282.009 292.221 278.082 290.586 274.538ZM297.699 203.562C297.566 203.417 297.409 203.29 297.228 203.212C296.705 202.987 296.092 203.218 295.634 203.555C293.809 204.903 293.801 208.053 295.62 209.409C296.509 208.655 297.419 207.872 297.94 206.831C298.459 205.791 298.491 204.416 297.699 203.562ZM313.439 220.16C315.406 221.753 317.648 223.007 320.036 223.852C327.744 226.576 336.404 224.865 343.841 221.476C344.977 220.958 346.427 221.231 347.296 222.127C342.52 225.519 336.671 227.384 330.807 227.383C329.514 227.383 328.223 227.295 326.934 227.182C324.298 226.953 321.642 226.615 319.163 225.696C316.684 224.775 314.368 223.218 312.965 220.982L313.439 220.16ZM397.363 323.725C397.286 323.987 397.498 324.237 397.692 324.43L400.62 327.327C400.939 326.494 400.581 325.524 399.966 324.875C399.353 324.226 398.523 323.832 397.714 323.451C397.555 323.458 397.408 323.574 397.363 323.725Z" fill="#00160A"/>
<path fill-rule="evenodd" clip-rule="evenodd" d="M588.903 210.679C592.5 211.923 595.888 208.683 598.987 206.476C603.784 203.062 610.04 201.771 615.799 203.007C616.754 203.212 617.755 203.52 618.384 204.267C618.959 204.95 619.123 205.881 619.215 206.769C619.783 212.201 618.422 217.815 615.431 222.387C613.975 224.612 612.152 226.592 610.851 228.91C609.55 231.228 608.806 234.059 609.733 236.55C615.246 251.358 612.952 268.824 603.801 281.712C594.651 294.598 578.906 302.54 563.09 302.244C555.001 302.093 547.076 299.936 539.455 297.226C536.13 296.042 532.474 294.745 529.174 295.993C523.151 298.273 516.811 299.713 510.392 300.257C508.799 300.393 507.136 300.461 505.667 299.834C503.467 298.894 502.139 296.512 501.887 294.136C501.634 291.76 502.292 289.382 503.123 287.141C505.628 280.382 513.408 269.824 518.119 267.391C517.738 259.184 517.779 250.88 519.556 242.858C521.332 234.835 524.959 227.051 530.908 221.374C533.365 219.03 536.176 217.078 539.121 215.384C554.017 206.819 572.662 205.057 588.903 210.679ZM566.219 210.012C554.829 210.278 543.741 214.847 534.836 221.947C532.222 224.031 529.765 226.346 527.802 229.052C526.255 231.185 525.032 233.538 524.01 235.967C517.945 250.372 519.329 267.68 527.608 280.941C527.788 281.23 527.995 281.537 528.317 281.649C528.714 281.788 529.143 281.585 529.514 281.388C555.514 267.551 578.655 248.387 597.085 225.433C597.523 224.886 597.984 224.251 597.89 223.557C597.819 223.036 597.447 222.613 597.084 222.232C589.219 213.999 577.61 209.746 566.219 210.012ZM582.144 296.007C594.493 290.217 603.872 278.776 607.883 265.754C608.792 262.806 609.444 259.757 609.508 256.673C609.563 254.079 609.2 251.497 608.838 248.928C608.315 245.203 607.791 241.479 607.266 237.754C607.127 236.766 606.175 235.463 605.479 236.178C586.157 256.036 565.059 274.169 542.517 290.29C541.767 290.826 540.941 291.49 540.901 292.411C540.854 293.476 541.872 294.248 542.797 294.781C554.615 301.587 569.795 301.797 582.144 296.007ZM505.972 294.491C506.87 295.93 508.818 296.225 510.515 296.272C519.42 296.517 528.23 293.912 536.197 289.932C544.165 285.952 551.377 280.628 558.384 275.135C567.731 267.809 576.799 260.131 585.636 252.199C596.58 242.375 607.335 231.956 614.52 219.131C615.91 216.65 617.193 213.93 616.975 211.095C616.758 208.261 614.494 205.4 611.65 205.511C605.614 205.746 599.679 208.064 595.085 211.98C594.171 212.759 594.817 214.416 595.942 214.838C597.066 215.26 598.32 214.841 599.419 214.356C600.517 213.872 601.662 213.305 602.856 213.438C604.679 213.64 605.975 215.505 606.084 217.334C606.192 219.165 605.383 220.922 604.428 222.487C602.661 225.384 600.354 227.91 598.023 230.376C577.301 252.301 553.395 271.221 527.289 286.362C524.937 287.726 522.558 289.063 520.028 290.056C518.701 290.577 517.179 290.996 515.885 290.4C513.76 289.423 513.59 286.445 514.227 284.198C515.184 280.824 517.251 277.775 520.032 275.635C519.506 274.152 518.979 272.67 518.452 271.189C511.588 275.567 506.77 283.016 505.596 291.065C505.427 292.226 505.35 293.495 505.972 294.491ZM525.49 284.321C525.539 284.168 525.45 284.008 525.364 283.873C524.477 282.465 523.591 281.059 522.704 279.652C522.303 279.015 521.527 278.294 520.925 278.746C518.757 280.377 517.206 282.805 516.637 285.455C516.526 285.978 516.46 286.562 516.746 287.015C517.276 287.856 518.543 287.669 519.481 287.333C521.48 286.618 523.406 285.698 525.219 284.592C525.331 284.524 525.451 284.446 525.49 284.321ZM602.634 217.339C602.545 216.973 602.109 216.814 601.732 216.798C600.59 216.748 599.396 217.686 599.469 218.827C599.541 219.966 601.238 220.684 601.946 219.788C602.161 219.517 602.251 219.172 602.336 218.838C602.42 218.507 602.505 218.176 602.589 217.845C602.632 217.679 602.674 217.505 602.634 217.339Z" fill="#00160A"/>
</svg>
