<svg width="750" height="750" viewBox="0 0 750 750" fill="none" xmlns="http://www.w3.org/2000/svg">
<path fill-rule="evenodd" clip-rule="evenodd" d="M422.462 596C548.546 596 566.42 539.828 585.538 529.506C604.656 519.183 592.77 498.468 605.308 482.844C625.336 457.887 637.474 470.749 644.103 438.372C650.731 405.996 638.681 396.837 638.681 367.931C638.681 310.017 666.385 282.603 631.006 252.302C595.628 222.001 536.549 225.576 478.118 225.576C369.664 225.576 304.692 76.6928 160.041 121.359C110.192 136.752 115.701 157.73 126.654 231.862C131.411 264.054 95.4976 304.983 101.729 341.566C113.109 408.381 143.165 399.317 199.875 444.429C209.389 451.997 223.265 451.918 233.636 459.68C251.024 472.693 252.143 492.927 284.65 506.576C337.068 528.583 332.622 596 422.462 596Z" fill="#0000FF"/>
<ellipse cx="148" cy="467" rx="34" ry="32" fill="white"/>
<path fill-rule="evenodd" clip-rule="evenodd" d="M130.115 349.213C124.314 334.725 129.381 326.044 132.63 314.713C135.343 305.247 156.561 289.872 166.327 305.904C169.2 310.62 168.047 315.079 174.326 319.224C189.526 329.259 181.234 308.44 181.799 303.177C182.075 300.61 179.906 294.69 180.713 292.213C181.56 289.613 186.076 285.92 186.076 280.531C186.076 275.142 176.89 273.067 174.326 271.743C151.538 259.977 137.046 240.326 144.268 230.352C154.33 216.457 193.766 238.32 205.616 240.326C205.769 240.352 207.885 229.304 209.614 226.775C213.072 221.714 216.894 216.801 221.453 212.704C223.496 210.869 226.264 209.736 228.985 209.369C237.129 208.27 245.46 207.369 253.617 208.364C256.499 208.716 273.664 188.85 280.357 182.442C331.706 133.277 434.644 193.189 378.534 274.601C368.221 289.565 355.033 294.323 353.33 299.612C349.547 311.359 373.363 309.814 383.451 311.069C400.685 313.212 409.179 322.065 398.481 337.24C391.816 346.693 352.716 346.211 335.589 339.375C329.232 336.837 321.375 325.744 315.367 334.844C311.228 341.114 295.087 354.417 277.773 361.942C269.957 365.339 261.056 363.292 254.387 366.325C244.999 370.594 217.287 388.521 205.616 388.517C193.861 388.512 178.65 374.367 176.89 373.439C174.208 372.024 153.459 367.971 143.208 352.153C140.108 347.369 132.239 354.516 130.115 349.213Z" fill="white"/>
<ellipse cx="329.697" cy="265.224" rx="3.60483" ry="3.55329" fill="#FFB61D"/>
<circle cx="303.304" cy="257.807" r="3.5" fill="#FFB61D"/>
<circle cx="562.5" cy="258.5" r="47.5" fill="white"/>
<ellipse cx="414" cy="528" rx="138" ry="118" fill="white"/>
<path fill-rule="evenodd" clip-rule="evenodd" d="M297.189 592.204L298.738 593.326C295.242 596.463 289.982 592.562 287.034 588.906C282.292 583.026 277.48 576.778 276.036 569.363C275.215 565.145 275.544 560.797 275.876 556.512L277.213 539.235C277.806 531.578 278.401 523.908 279.726 516.344C283.313 495.872 292.342 476.38 305.638 460.406L305.771 460.245C308.119 457.426 310.683 454.347 310.638 450.691C310.542 442.957 314.996 435.729 320.844 430.666C326.692 425.603 333.853 422.354 340.905 419.173C344.099 417.733 348.27 416.442 350.746 418.922C355.838 424.023 364.336 420.773 371.062 418.183C379.32 415.002 388.14 413.288 396.988 413.145C397.246 413.141 397.506 413.137 397.767 413.134L397.767 413.134C403.079 413.058 409.059 412.972 412.3 408.856C414.364 406.236 418.31 406.388 421.622 406.784L444.4 409.508C446.142 409.717 448.227 410.192 448.776 411.857C450.248 416.321 455.439 418.143 459.939 419.5C475.939 424.324 491.577 430.874 505.16 440.608C518.744 450.342 530.224 463.436 536.316 478.997C526.411 465.46 516.25 451.667 502.505 442.054C498.571 439.302 494.387 436.927 490.141 434.689C480.118 429.405 469.687 424.851 458.85 421.543C408.544 406.188 350.352 420.429 312.822 457.279C307.38 462.623 302.278 468.508 299.192 475.482L303.269 476.746C296.808 479.634 292.008 485.962 290.969 492.963C293.57 488.509 297.276 484.707 301.662 481.993C300.406 486.186 297.142 489.555 293.941 492.858C289.863 497.068 285.888 501.169 286.31 506.731C288.247 501.649 293.125 497.813 298.52 497.129C289.962 505.491 280.779 515.305 281.052 527.266C284.173 520.359 289.474 514.456 296.007 510.611L286.602 523.25C283.045 528.029 279.3 533.491 280.113 539.393C283.207 533.84 287.631 529.034 292.909 525.492C290.367 531.272 286.738 536.572 282.269 541.032C286.519 540.519 290.612 538.758 293.907 536.025C292.526 537.953 291.281 540.13 291.234 542.502C291.188 544.875 292.725 547.42 295.073 547.761C295.783 546.172 298.013 545.501 299.483 546.433C295.027 550.769 294.981 558.801 299.387 563.188C299.779 561.126 301.517 559.389 303.579 558.999C300.293 564.745 299.702 571.961 302.01 578.165C302.708 574.65 304.658 571.397 307.43 569.124C305.832 577.463 302.299 585.424 297.189 592.204ZM295.243 589.548C298.025 589.519 299.756 586.407 300.046 583.639C300.393 580.329 299.571 577.02 298.755 573.793L293.915 554.651C293.004 554.939 292.898 555.93 292.787 556.968C292.693 557.854 292.595 558.774 291.989 559.32C290.764 557.797 290.624 555.49 291.657 553.831C292.7 552.155 292.018 549.809 290.539 548.503C289.059 547.196 287 546.753 285.028 546.688C283.962 546.653 282.828 546.735 281.956 547.349C281.083 547.962 280.624 549.267 281.244 550.136C283.088 552.72 284.476 555.63 285.323 558.69C285.387 558.918 285.448 559.15 285.51 559.383C285.931 560.971 286.364 562.605 287.527 563.737C288.425 564.613 288.654 565.949 288.837 567.19L290.315 577.248C290.585 579.079 290.854 580.947 290.546 582.771C290.238 584.596 289.252 586.405 287.597 587.233L292.881 589.031C293.648 589.292 294.433 589.556 295.243 589.548ZM352.847 424.679C351.806 424.9 350.933 423.985 350.187 423.203L350.101 423.114C349.337 422.315 348.023 421.619 347.218 422.376C337.839 431.2 327.165 438.647 315.644 444.403C313.554 445.447 313.273 448.264 313.272 450.601C313.271 451.382 314.019 452.478 314.506 451.867C316.881 448.891 319.97 446.581 323.023 444.305C331.614 437.9 340.307 431.435 350.155 427.212C351.35 426.7 352.749 425.976 352.847 424.679ZM447.121 414.755C446.589 413.508 445.078 413.058 443.745 412.807C440.115 412.123 436.419 411.813 432.728 411.503C427.658 411.078 422.595 410.653 417.716 409.261C416.153 408.815 414.816 410.399 413.96 411.78C416.531 411.513 419.118 411.402 421.703 411.45C426.201 411.532 430.676 412.093 435.14 412.652C437.409 412.937 439.693 413.225 441.869 413.928C442.122 414.01 442.377 414.098 442.634 414.186L442.634 414.186C444.119 414.696 445.655 415.223 447.121 414.755ZM399.099 433.928C400.127 434.163 401.106 434.932 401.26 435.975C401.413 437.016 400.702 438.03 399.793 438.56C398.885 439.09 397.81 439.238 396.768 439.376L393.629 439.792C393.314 439.834 392.99 439.879 392.717 440.04C391.927 440.508 391.982 441.774 392.627 442.425C393.272 443.077 394.262 443.239 395.179 443.237C399.449 443.229 403.491 440.156 404.796 436.09C405.105 435.124 405.269 434.051 404.886 433.112C404.691 432.636 404.366 432.223 404.005 431.857C402.325 430.155 399.823 429.405 397.438 429.573C395.053 429.742 392.784 430.757 390.843 432.154C389.913 432.823 389.026 433.607 388.498 434.624C387.969 435.641 387.856 436.932 388.447 437.914C388.673 438.288 389.021 438.62 389.453 438.69C389.884 438.761 390.382 438.482 390.436 438.049C390.585 436.843 391.465 435.824 392.514 435.211C393.563 434.598 394.772 434.328 395.964 434.09C396.998 433.883 398.071 433.694 399.099 433.928ZM314.945 493.577C316.118 486.637 321.724 480.994 328.259 478.38C331.86 476.939 335.981 476.307 339.603 477.695C340.497 478.038 341.362 478.511 342.006 479.219C342.611 479.884 342.992 480.724 343.279 481.576C345.119 487.033 343.251 493.345 339.298 497.533C335.345 501.722 329.59 503.919 323.846 504.331C322.005 504.463 320.029 504.388 318.509 503.342C316.989 502.297 316.235 499.973 317.405 498.546C317.958 498.573 318.256 499.067 318.562 499.572C318.713 499.822 318.866 500.076 319.053 500.277C319.691 500.963 320.746 501.013 321.682 500.974C325.755 500.802 329.89 499.793 333.206 497.42C336.521 495.048 338.903 491.172 338.834 487.096C338.811 485.783 338.526 484.439 337.781 483.356C336.56 481.58 334.251 480.778 332.099 480.92C329.948 481.061 327.93 482.016 326.098 483.153C323.688 484.649 321.46 486.53 319.949 488.931C318.438 491.332 317.699 494.301 318.338 497.065C317.773 498.084 316.094 497.881 315.401 496.945C314.707 496.009 314.75 494.726 314.945 493.577ZM352.458 550.778C349.477 552.695 347.007 555.696 346.547 559.21C346.175 562.053 347.128 564.884 348.067 567.593C348.8 569.707 349.557 571.867 350.953 573.616C353.474 576.774 357.648 578.081 361.638 578.723C362.725 578.898 364.373 578.407 363.986 577.377C359.773 577.3 355.63 575.347 352.888 572.148C350.146 568.949 348.852 564.555 349.421 560.38C349.54 559.502 349.74 558.627 350.109 557.821C350.855 556.191 352.247 554.937 353.753 553.964C356.995 551.869 360.942 550.887 364.787 551.219C368.495 551.54 372.199 553.165 374.462 556.119C376.726 559.073 377.265 563.431 375.268 566.571C374.944 567.082 374.706 567.984 375.302 568.091C378.517 566.359 380.302 562.539 380.122 558.891C379.942 555.243 378.015 551.829 375.368 549.312C373.905 547.92 372.171 546.744 370.207 546.271C367.618 545.647 364.909 546.29 362.333 546.968C358.906 547.869 355.438 548.86 352.458 550.778ZM498.816 555.309C488.04 551.285 476.33 549.786 464.887 550.963C460.089 551.457 455.276 552.437 450.963 554.595C442.824 558.669 437.005 567.054 436.037 576.103C435.068 585.153 438.982 594.579 446.075 600.282C448.765 602.445 451.818 604.064 454.875 605.686C456.962 606.792 459.051 607.9 461.027 609.183C461.591 609.722 460.321 610.261 459.578 610.021C452.666 607.79 445.954 604.396 441.023 599.063C435.025 592.575 432.1 583.361 433.257 574.601C434.414 565.841 439.631 557.702 447.108 552.994C453.022 549.27 460.092 547.7 467.077 547.448C474.062 547.196 481.026 548.195 487.932 549.265C492.246 549.933 497.304 551.215 498.816 555.309ZM385.426 568.811C384.937 567.69 382.969 567.398 382.61 568.567C380.324 576.006 373.065 581.631 365.291 581.988C363.533 582.068 361.775 581.905 360.024 581.736C356.253 581.371 352.364 580.94 349.061 579.083C344.313 576.413 341.455 570.93 341.422 565.483C341.388 560.035 343.972 554.74 347.896 550.961C347.351 549.436 345.013 550.173 343.852 551.301C337.416 557.556 336.312 568.352 340.828 576.108C345.343 583.863 354.806 588.211 363.726 587.225C372.646 586.239 380.699 580.266 384.846 572.307C385.411 571.223 385.915 569.933 385.426 568.811ZM329.568 606.481C328.115 612.054 327.977 617.965 329.168 623.599C329.703 626.126 329.761 627.518 329.772 627.778C329.773 627.808 329.774 627.823 329.774 627.823C329.775 627.823 329.776 627.808 329.777 627.778C329.789 627.517 329.852 626.12 330.399 623.589C331.617 617.944 331.328 611.981 329.568 606.481ZM337.287 609.852C335.223 614.179 335.479 619.533 337.947 623.644C338.501 624.567 338.922 625.318 339.232 625.871C339.649 626.616 339.867 627.005 339.942 626.979C340.025 626.951 339.937 626.429 339.754 625.336C339.68 624.898 339.592 624.369 339.492 623.742L337.287 609.852ZM343.1 615.378C342.224 618.14 342.868 621.334 344.747 623.541C346.666 625.795 347.293 626.517 346.708 623.616C346.112 620.654 344.872 617.824 343.1 615.378ZM511.307 583.952C508.672 594.533 500.253 602.55 492.09 609.78C492.463 610.584 493.669 610.296 494.441 609.861C502.709 605.207 509.4 597.623 512.452 588.64C515.505 579.656 514.746 569.335 509.927 561.162C509.523 560.476 509.008 559.745 508.226 559.592C507.445 559.439 506.544 560.346 507.003 560.996C511.635 567.556 513.248 576.161 511.307 583.952ZM392.433 488.417C392.414 486.743 392.437 484.932 393.448 483.598C394.839 481.76 397.48 481.567 399.784 481.535C400.813 481.521 401.854 481.508 402.855 481.746C404.985 482.253 406.683 483.825 408.195 485.409C408.53 485.76 408.887 486.192 408.804 486.67C408.701 487.263 407.958 487.536 407.369 487.415C406.977 487.334 406.626 487.139 406.273 486.944L406.273 486.944L406.273 486.944L406.273 486.944L406.273 486.944L406.273 486.944C406.095 486.845 405.918 486.747 405.735 486.663C403.616 485.69 401.126 486.757 399.222 488.103C398.923 488.315 398.6 488.586 398.593 488.953C398.586 489.321 398.901 489.606 399.198 489.824C401.77 491.707 405.063 492.58 408.23 492.216C408.987 492.129 409.877 491.852 410.074 491.115C410.15 490.827 410.12 490.489 410.092 490.161C410.043 489.614 409.998 489.1 410.458 488.91C410.697 488.811 410.969 488.882 411.218 488.954C412.932 489.453 414.937 490.255 415.269 492.009C415.365 492.515 415.296 493.044 415.135 493.534C414.663 494.968 413.347 496.088 411.856 496.325C411.194 496.43 410.518 496.373 409.85 496.315C408.106 496.166 406.359 496.016 404.631 495.737C401.456 495.226 398.352 494.28 395.432 492.934C394.418 492.467 393.365 491.893 392.852 490.902C392.462 490.149 392.443 489.265 392.433 488.417ZM457.632 447.142C456.612 444.384 454.147 442.208 451.284 441.538C450.398 441.331 449.397 441.28 448.646 441.793C447.895 442.306 447.637 443.557 448.353 444.118C449.048 444.662 448.628 445.942 447.779 446.184C446.931 446.426 446.018 445.85 445.594 445.076C445.17 444.302 445.125 443.383 445.12 442.501C445.114 441.323 445.221 440.01 446.091 439.216C446.422 438.914 446.835 438.719 447.245 438.536C448.939 437.778 450.813 437.136 452.624 437.543C454.349 437.93 455.725 439.204 456.928 440.5C457.915 441.563 458.848 442.675 459.723 443.832C460.494 444.851 461.235 445.938 461.525 447.183C461.814 448.427 461.564 449.871 460.603 450.713C459.662 451.537 458.214 451.607 457.071 451.098C456.062 450.649 455.2 449.66 455.276 448.557C455.351 447.455 456.705 446.541 457.632 447.142ZM466.737 524.671C469.268 524.599 471.625 522.65 472.172 520.178C472.505 518.675 472.095 516.887 470.784 516.078C469.828 515.488 468.624 515.531 467.502 515.603C465.948 515.702 464.335 515.838 462.985 516.614C461.635 517.39 460.631 518.997 461.054 520.496C461.741 522.933 464.207 524.744 466.737 524.671ZM467.062 521.02C466.573 521.151 465.876 521.025 465.831 520.521C465.812 520.311 465.926 520.113 466.055 519.946C466.774 519.015 468.144 518.653 469.229 519.108C468.852 520.032 468.026 520.76 467.062 521.02ZM468.369 483.574C467.957 482.622 468.756 481.514 469.726 481.15C470.503 480.858 471.347 480.888 472.184 480.918L472.185 480.918C472.393 480.926 472.601 480.933 472.807 480.936C473.844 480.949 474.989 480.776 475.662 479.987C475.899 479.709 476.06 479.3 475.879 478.982C475.69 478.65 475.244 478.593 474.862 478.573C472.22 478.436 469.101 478.517 467.578 480.68C467.25 481.145 466.449 480.988 466.143 480.509C465.837 480.029 465.907 479.401 466.081 478.859C466.705 476.921 468.496 475.511 470.452 474.946C472.408 474.38 474.509 474.559 476.495 475.008C477.165 475.16 477.86 475.36 478.349 475.842C478.737 476.224 478.954 476.747 479.095 477.273C479.772 479.788 478.773 482.669 476.685 484.225C474.597 485.781 471.551 485.916 469.334 484.549C468.939 484.305 468.554 484 468.369 483.574ZM459.313 528.013C460.54 529.483 461.994 530.819 463.756 531.568C467.319 533.081 471.874 531.683 473.975 528.433C474.74 527.249 475.083 525.443 473.951 524.603C472.138 528.413 466.88 530.096 463.192 528.046C462.486 527.653 461.844 527.151 461.26 526.592C458.607 524.053 457.224 519.906 458.78 516.58C459.287 515.496 460.066 514.56 460.918 513.719C462.776 511.885 465.434 510.383 467.914 511.199C468.017 511.233 468.12 511.271 468.222 511.308C468.57 511.436 468.918 511.565 469.284 511.543C469.757 511.516 470.251 511.092 470.13 510.634C470.093 510.498 470.009 510.381 469.923 510.27C468.39 508.318 465.381 507.715 463.214 508.926C460.635 510.367 458.014 512.063 456.642 514.68C454.409 518.94 456.232 524.32 459.313 528.013ZM500.397 462.312C500.284 462.475 500.312 462.701 500.339 462.918C500.371 463.175 500.402 463.418 500.191 463.522C499.419 463.903 498.495 463.864 497.672 463.611C495.425 462.922 493.919 460.86 492.648 458.884C491.905 457.728 491.165 456.5 491.045 455.131C490.925 453.762 491.625 452.221 492.943 451.834C494.414 451.402 495.855 452.495 496.999 453.514C498.29 454.663 499.61 455.848 500.408 457.381C501.207 458.914 501.385 460.894 500.397 462.312ZM495.513 457.183C495.829 457.491 496.003 457.905 496.176 458.319C496.347 458.726 496.518 459.134 496.827 459.442C497.217 459.831 497.81 460.005 498.349 459.889C497.339 458.326 496.169 456.867 494.862 455.542C494.513 455.647 494.483 456.165 494.694 456.463C494.821 456.644 494.999 456.777 495.178 456.91C495.294 456.997 495.41 457.083 495.513 457.183ZM303.202 598.416C303.078 600.468 303.235 602.845 304.877 604.081C305.424 603.776 305.387 602.994 305.318 602.371C304.894 598.536 306.084 594.84 307.281 591.12C308.139 588.457 309 585.781 309.276 583.033C309.356 582.235 309.144 581.145 308.343 581.114C307.743 581.091 307.356 581.724 307.114 582.273C304.871 587.367 303.54 592.861 303.202 598.416ZM462.47 524.428C464.322 525.248 466.376 526.084 468.315 525.495C469.086 525.261 469.772 524.815 470.447 524.375C470.444 525.509 469.47 526.46 468.384 526.784C467.298 527.108 466.13 526.935 465.023 526.695C463.793 526.428 462.289 525.674 462.47 524.428ZM315.931 618.995C316.404 618.153 316.484 617.154 316.555 616.191L317.114 608.521C317.388 604.757 317.663 600.979 317.417 597.212C317.386 596.738 317.337 596.237 317.061 595.85C316.784 595.463 316.198 595.257 315.818 595.544C315.539 595.755 315.469 596.138 315.42 596.485C314.813 600.84 314.489 605.234 314.45 609.631C314.421 612.819 314.567 616.113 315.931 618.995ZM307.548 612.403C307.057 612.818 306.239 612.453 305.968 611.869C305.697 611.286 305.807 610.605 305.923 609.972C307.136 603.353 308.513 596.763 310.052 590.212C310.09 590.048 310.132 589.877 310.238 589.746C310.643 589.246 311.461 589.749 311.749 590.326C312.454 591.739 312.116 593.426 311.763 594.965L307.972 611.501C307.896 611.831 307.807 612.184 307.548 612.403ZM320.68 612.697C320.468 615.18 320.84 617.671 321.212 620.135C321.344 621.012 321.976 622.178 322.768 621.779L324.313 605.26C324.376 604.588 324.418 603.842 324.001 603.312C323.585 602.781 322.53 602.803 322.397 603.464L321.258 609.129C321.02 610.311 320.782 611.496 320.68 612.697ZM480.196 562.069C475.798 559.804 470.445 558.912 465.877 560.809C462.465 562.226 452.821 568.346 451.537 576.19C450.678 581.441 450.687 586.806 452.525 591.876L452.821 592.672C453.368 594.107 455.112 595.758 456.086 594.571C453.24 589.424 452.708 583.052 454.662 577.505C456.616 571.957 461.024 567.325 466.468 565.099C467.614 564.631 468.81 564.263 470.042 564.146C472.534 563.91 475.021 564.717 477.248 565.859C482.044 568.315 487.985 572.402 490.268 577.283C492.469 581.988 494.089 587.601 492.098 592.398C490.106 597.196 477.024 600.668 477.024 600.668L478.472 603.31C478.472 603.31 485.795 601.865 490.268 598.607C509.044 584.932 484.403 564.235 480.196 562.069Z" fill="#00160A"/>
<path fill-rule="evenodd" clip-rule="evenodd" d="M148.279 494.545C141.638 495.258 134.604 493.722 129.419 489.512C125.747 486.53 123.167 482.383 121.357 478.013C119.391 473.269 118.261 468.179 118.033 463.049C117.948 461.118 117.994 459.15 118.561 457.302C119.496 454.26 121.745 451.819 124.042 449.617C128.928 444.931 134.67 440.656 141.368 439.671C145.931 438.999 150.574 439.914 155.041 441.064C158.549 441.967 162.053 443.031 165.209 444.811C172.182 448.742 177.014 456.241 177.714 464.216C178.413 472.191 177.553 477.475 166.791 487.382C161.198 491.034 154.919 493.833 148.279 494.545ZM159.989 469.513C158.912 469.851 157.839 470.453 156.727 470.257C154.455 469.857 154.049 466.741 154.553 464.49C155.997 458.048 160.488 452.358 166.419 449.457C165.076 447.022 161.509 446.843 158.987 448.013C156.465 449.184 154.493 451.293 152.053 452.628C150.839 453.292 149.401 453.762 148.08 453.349C145.907 452.668 145.078 449.822 145.789 447.659C146.5 445.496 148.276 443.882 149.981 442.372C143.803 442.588 137.69 444.443 132.433 447.694C128.318 450.24 124.414 454.414 124.96 459.222C128.363 456.483 132.358 454.484 136.59 453.402C137.488 453.173 138.614 453.058 139.176 453.795C139.602 454.353 139.479 455.155 139.207 455.802C137.854 459.01 133.876 460.087 131.408 462.543C131.084 462.866 130.774 463.238 130.695 463.688C130.542 464.571 131.383 465.376 132.267 465.523C133.15 465.671 134.038 465.349 134.876 465.033C136.617 464.376 138.358 463.719 140.099 463.062C141.359 462.587 142.855 462.133 143.976 462.88C145.136 463.653 145.245 465.411 144.59 466.641C143.934 467.871 142.731 468.696 141.574 469.472C138.784 471.342 135.994 473.212 133.203 475.082C130.867 476.648 128.25 478.758 128.472 481.562C128.681 484.201 131.584 485.994 134.226 485.825C136.868 485.655 139.192 484.04 141.142 482.249C143.092 480.459 144.852 478.414 147.116 477.043C148.593 476.148 150.701 475.651 151.902 476.893C152.829 477.853 152.739 479.396 152.391 480.684C151.388 484.398 148.676 487.612 145.185 489.226C148.026 489.881 150.988 490.005 153.873 489.589C155.519 489.351 157.223 488.895 158.413 487.734C159.603 486.572 160.063 484.529 159.031 483.225C157.491 481.281 157.553 478.437 158.536 476.16C159.52 473.883 161.277 472.045 162.999 470.26C162.506 469.244 161.066 469.175 159.989 469.513ZM173.14 473.926C174.687 470.35 174.744 466.307 174.352 462.43C173.919 458.144 172.424 453.242 168.386 451.74C162.468 454.196 157.901 459.676 156.551 465.94C156.438 466.466 156.349 467.032 156.556 467.529C156.763 468.026 157.379 468.388 157.856 468.139C159.492 467.281 161.504 466.795 163.167 467.598C164.831 468.401 165.641 470.909 164.294 472.173C162.806 473.569 161.278 475.022 160.475 476.898C159.672 478.775 159.788 481.204 161.299 482.575C162.435 483.605 162.438 485.629 161.305 486.662C164.526 485.721 166.821 482.952 168.91 480.326C170.507 478.318 172.122 476.28 173.14 473.926ZM136.06 455.435C132.709 456.825 129.457 458.451 126.335 460.298C125.593 460.738 124.842 461.203 124.3 461.873C123.566 462.778 123.288 463.96 123.061 465.102C122.33 468.794 121.952 472.768 123.503 476.197C123.997 477.292 124.674 478.293 125.347 479.288C125.545 479.582 125.771 479.896 126.111 479.995C126.452 480.093 126.902 479.819 126.822 479.474C126.575 478.409 127.381 477.408 128.177 476.659C132.836 472.273 139.114 469.755 143.304 464.919C142.668 464.166 141.463 464.52 140.556 464.907C138.398 465.828 136.172 466.592 133.902 467.191C132.732 467.5 131.427 467.751 130.358 467.182C128.795 466.348 128.54 464.067 129.366 462.499C130.192 460.931 131.762 459.92 133.277 458.999C134.791 458.079 136.38 457.118 137.288 455.597C137.123 455.164 136.488 455.258 136.06 455.435ZM147.527 484.816C149.008 483.627 150.608 482.224 150.769 480.331C150.854 479.341 150.219 478.131 149.23 478.226C148.926 478.255 148.649 478.405 148.387 478.562C144.081 481.134 141.247 486.164 136.39 487.414C137.762 488.029 139.194 488.512 140.658 488.856C141.094 488.958 141.547 489.048 141.986 488.958C142.496 488.852 142.923 488.516 143.329 488.189C144.729 487.065 146.128 485.941 147.527 484.816ZM151.532 443.695C150.573 444.755 149.615 445.815 148.657 446.874C147.898 447.714 147.084 448.822 147.506 449.871C147.818 450.645 148.737 451.036 149.568 450.971C150.399 450.907 151.156 450.482 151.853 450.024C154.337 448.394 156.574 446.174 159.473 445.523C157.463 444.791 155.453 444.058 153.443 443.326C153.024 443.173 152.558 443.021 152.146 443.191C151.899 443.293 151.711 443.497 151.532 443.695Z" fill="#00160A"/>
<path fill-rule="evenodd" clip-rule="evenodd" d="M188.934 317.106C188.684 322.128 184.809 327.566 179.816 326.972C177.563 324.366 175.799 321.131 174.056 317.934C170.709 311.794 167.437 305.794 160.919 304.655C154.518 303.536 148.556 308.244 144.569 313.376C138.794 320.809 135.063 329.813 133.886 339.151C133.195 344.641 135.446 352.255 140.947 351.651C147.229 350.961 151.698 355.903 156.242 360.929C160.448 365.582 164.72 370.306 170.556 370.705C177.506 371.179 183.182 375.343 188.928 379.557C192.766 382.372 196.634 385.209 200.934 386.986C209.023 390.327 218.35 389.681 226.607 386.779C234.863 383.877 242.211 378.878 249.166 373.565L249.53 373.286C253.326 370.383 257.3 367.344 262.021 366.704C286.159 363.434 308.61 349.276 321.962 328.903C340.893 344.036 367.361 349.208 390.596 342.315C394.539 341.146 398.506 339.577 401.43 336.686C404.354 333.794 406.011 329.303 404.574 325.45C403.003 321.237 398.306 318.981 393.842 318.438C391.395 318.141 388.929 318.229 386.461 318.317H386.461H386.461H386.461H386.461C384.426 318.389 382.39 318.462 380.364 318.319C368.09 317.451 357.87 308.986 348.578 300.922C362.042 296.792 372.96 286.418 380.168 274.319C387.377 262.219 391.24 248.436 394.175 234.661C395.719 227.412 396.867 219.246 392.725 213.099C390.872 210.348 388.154 208.337 385.445 206.333C382.396 204.076 379.358 201.828 377.58 198.542C374.16 192.223 367.494 188.476 361.172 185.062C344.626 176.129 325.621 166.935 307.789 172.901C300.843 175.224 294.842 179.677 288.992 184.085C279.277 191.403 268.87 199.988 267.021 212.009C251.125 204.898 230.56 210.577 220.568 224.839C218.282 228.101 216.527 231.698 214.774 235.292C212.711 239.522 210.649 243.748 207.727 247.415C195.99 242.068 184.031 237.207 171.891 232.849C166.509 230.917 160.08 229.21 155.441 232.555C151.722 235.236 150.581 240.5 151.673 244.953C152.765 249.406 155.679 253.182 158.805 256.536C165.585 263.815 173.73 269.818 182.689 274.14C182.978 274.28 183.269 274.418 183.561 274.557C186.366 275.894 189.25 277.267 191.118 279.72C193.18 282.429 193.308 286.96 190.417 288.758C186.146 291.412 185.36 297.368 186.235 302.319C186.534 304.011 186.973 305.686 187.412 307.36L187.412 307.36C188.257 310.584 189.099 313.8 188.934 317.106ZM304.872 343.583C294.112 354.882 278.97 361.492 263.487 363.424C248.004 365.357 232.194 362.845 217.404 357.874C221.382 357.871 224.259 352.663 222.143 349.294C213.991 358.796 201.565 363.246 189.723 367.31C179.026 370.981 166.239 368.315 158.381 360.18C150.523 352.046 148.396 338.698 153.922 328.83C156.324 324.541 160.398 320.807 165.297 320.386C170.195 319.965 175.469 324.026 175.015 328.921C172.289 328.448 169.421 330.763 169.309 333.527C179.853 332.391 189.766 326.349 195.608 317.497C197.624 314.442 199.156 311.114 200.69 307.784C201.719 305.547 202.75 303.31 203.927 301.153C206.859 295.782 211.069 290.663 216.902 288.818C221.584 287.337 226.645 288.159 231.484 288.993L252.982 292.7C254.591 291.311 251.985 289.085 249.904 288.65C243.185 287.246 236.373 286.381 229.56 285.516C223.242 284.714 216.924 283.911 210.679 282.679C197.7 280.119 184.656 275.435 175.209 266.174C181.617 262.488 186.492 256.224 188.493 249.107C188.897 247.668 187.933 245.302 186.764 246.235C185.428 250.855 183.98 255.673 180.633 259.127C177.286 262.58 171.412 264.097 167.623 261.135C162.706 257.288 157.535 253.093 155.591 247.16C153.646 241.228 156.722 233.26 162.923 232.533C165.706 232.207 168.427 233.357 170.993 234.482L196.886 245.832C204.593 249.21 212.414 252.622 220.739 253.847C226.584 254.708 232.528 254.467 238.431 254.223L255.165 253.533C255.85 253.505 256.551 253.473 257.181 253.204C258.863 252.487 259.433 250.433 259.804 248.643C264.295 226.974 270.328 204.105 286.651 189.162C293.955 182.475 303.053 177.767 312.73 175.667C322.269 173.596 332.794 174.205 341.007 179.481C327.23 180.495 313.853 186.304 303.707 195.679C299.444 191.129 291.511 194.848 288.111 200.075C282.84 208.177 282.936 219.432 288.344 227.443C292.895 234.187 294.583 242.233 296.275 250.298C297.83 257.71 299.388 265.138 303.176 271.584C309.168 281.783 320.326 288.33 331.979 290.359C343.632 292.389 355.713 290.269 366.789 286.116C354.393 298.48 334.591 302.756 318.197 296.61C317.002 296.162 315.814 295.661 314.624 295.16L314.624 295.16L314.624 295.16L314.623 295.16L314.623 295.16C310.856 293.574 307.077 291.982 303.036 292.029C305.403 294.536 308.427 296.418 311.721 297.434C307.922 303.814 303.937 310.083 299.772 316.23C299.24 317.016 298.633 317.854 297.721 318.12C296.705 318.416 295.644 317.91 294.718 317.398C287.06 313.165 280.197 307.502 274.587 300.788L263.365 314.438C269.124 321.477 275.857 327.719 283.312 332.929C273.39 345.186 258.357 353.17 242.646 354.527C258.909 355.355 275.374 347.726 285.257 334.784C291.514 338.297 298.088 341.246 304.872 343.583ZM356.305 223.553C359.899 219.635 361.231 214.038 360.924 208.729C360.616 203.421 358.831 198.316 356.855 193.38C362.003 192.77 367.233 194.712 371.333 197.883C375.434 201.055 378.514 205.37 381.041 209.897C384.103 215.384 386.451 221.317 387.47 227.518C389.869 242.118 384.747 257.005 377.456 269.88C376.041 272.38 374.517 274.863 372.451 276.859C370.37 278.869 367.81 280.314 365.186 281.533C354.36 286.563 341.907 288.014 330.214 285.609C337.678 279.394 342.949 270.833 346.307 261.719C349.664 252.604 351.201 242.918 352.085 233.245L352.09 233.191C352.313 230.752 352.548 228.189 353.938 226.175C354.398 225.508 354.968 224.93 355.538 224.351C355.797 224.088 356.056 223.825 356.305 223.553ZM342.797 263.839C339.576 271.373 334.586 278.291 327.822 282.915C327.029 283.456 326.179 283.979 325.226 284.09C324.384 284.189 323.542 283.957 322.734 283.702C316.982 281.886 311.548 278.668 307.858 273.898C306.519 272.166 305.426 270.257 304.451 268.297C297.349 254.027 296.654 236.714 302.588 221.92C302.871 221.213 303.277 220.42 304.023 220.272C304.989 220.08 305.731 221.068 306.273 221.89C310.706 228.607 318.995 232.008 327.035 232.36C335.075 232.712 342.984 230.427 350.608 227.85C349.218 231.248 348.865 234.949 348.514 238.616L348.513 238.621C348.469 239.081 348.425 239.541 348.38 239.999C347.562 248.152 346.018 256.305 342.797 263.839ZM341.16 193.847C345.275 192.912 350.075 192.655 353.218 195.469C354.234 196.378 354.988 197.543 355.609 198.757C359.502 206.366 357.977 216.387 351.997 222.493C345.082 229.552 334.14 230.716 324.294 229.878C320.761 229.578 317.128 229.034 314.113 227.17C310.21 224.758 307.9 220.507 305.763 216.448C315.249 205.847 327.289 197.001 341.16 193.847ZM374.434 321.814C373.143 325.073 371.84 328.377 371.418 331.857C370.995 335.337 371.545 339.071 373.662 341.865C356.099 342.837 338.252 337.421 324.19 326.854C328.725 320.437 332.305 313.348 334.779 305.89C335.756 302.944 339.486 301.715 342.514 302.397C345.301 303.025 347.642 304.814 349.925 306.558L350.204 306.771C350.307 306.85 350.411 306.929 350.514 307.007C357.99 312.683 366.228 317.259 374.434 321.814ZM251.709 366.321C248.939 369.439 245.629 372.028 242.248 374.469C235.19 379.566 227.493 384.198 218.914 385.678C206.341 387.848 192.759 382.426 185.137 372.194L212.559 361.965C213.216 361.72 213.896 361.471 214.595 361.51C214.991 361.533 215.371 361.646 215.752 361.76C216.005 361.835 216.259 361.911 216.518 361.96C217.399 362.127 218.287 361.981 219.179 361.834C219.734 361.742 220.29 361.651 220.848 361.634C222.9 361.572 224.787 362.51 226.653 363.438C227.127 363.674 227.599 363.909 228.073 364.127C235.345 367.471 243.729 366.93 251.709 366.321ZM212.115 248.992C211.922 248.56 212.125 248.063 212.329 247.635C217.945 235.874 225.374 224.98 234.274 215.458C240.533 224.149 244.699 234.338 246.323 244.925C246.647 247.042 246.296 249.968 244.172 250.233C233.988 251.502 223.626 251.33 213.49 249.722C212.955 249.637 212.336 249.487 212.115 248.992ZM250.47 248.267C248.373 236.739 244.02 225.626 237.729 215.742C243.054 212.938 249.348 212.893 255.365 212.911C259.165 212.923 263.314 213.057 266.21 215.518L258.698 237.683C257.422 241.446 256.131 245.315 256.292 249.284L251.543 249.361C251.374 249.363 251.199 249.365 251.043 249.3C250.663 249.141 250.544 248.672 250.47 248.267ZM311.569 304.99C312.83 302.845 314.032 300.552 314.159 298.067C319.84 300.622 326.097 301.888 332.325 301.743C333.303 301.72 333.268 303.227 332.867 304.119C331.654 306.818 330.44 309.52 329.037 312.125C327.596 314.799 325.961 317.362 324.328 319.922L320.413 326.059C319.877 326.899 319.324 327.758 318.527 328.357C316.39 329.963 313.339 329.191 310.901 328.095C306.855 326.277 303.131 323.746 299.953 320.653C304.367 315.865 308.268 310.604 311.569 304.99ZM164.653 310.293C166.535 312.191 167.765 314.623 168.964 317.012L163.317 317.818C161.436 318.086 159.506 318.37 157.843 319.29C156.225 320.185 154.977 321.62 153.879 323.108C149.287 329.33 146.741 337.038 146.725 344.772C146.719 347.565 143.418 349.558 140.716 348.85C138.014 348.141 136.178 345.458 135.711 342.704C135.244 339.95 135.902 337.134 136.727 334.465C139.63 325.073 144.823 316.204 152.507 310.073C153.975 308.902 155.597 307.805 157.452 307.509C160.091 307.087 162.77 308.395 164.653 310.293ZM401.796 326.014C402.449 326.853 402.933 327.875 402.903 328.938C402.865 330.312 401.995 331.517 401.057 332.522C395.606 338.363 387.228 340.352 379.293 341.29C378.769 341.352 378.221 341.407 377.73 341.215C377.327 341.058 377.004 340.747 376.716 340.424C374.802 338.271 374.043 335.261 374.199 332.384C374.354 329.508 375.347 326.737 376.583 324.135C376.843 323.586 377.145 323.011 377.676 322.717C378.099 322.482 378.605 322.464 379.089 322.451L388.692 322.2C391.056 322.138 393.447 322.078 395.761 322.565C398.076 323.053 400.343 324.147 401.796 326.014ZM294.768 235.275C290.855 228.025 287.928 220.243 286.091 212.211L287.672 207.989C289.628 204.203 292.093 200.68 294.981 197.546C296.157 196.269 298.196 196.128 299.819 196.743C301.442 197.358 302.747 198.581 304.007 199.775L309.677 205.146C309.846 205.306 310.022 205.479 310.078 205.704C310.184 206.128 309.833 206.517 309.516 206.818C306.861 209.342 304.502 212.188 302.611 215.326C299.752 220.068 298.006 225.382 296.283 230.645L294.768 235.275ZM309.259 194.554C320.803 188.371 333.43 182.553 346.451 183.944C353.259 184.672 359.771 187.38 365.441 191.216C349.197 187.041 331.09 190.892 317.952 201.318C315.921 202.929 312.875 204.679 311.067 202.822C310.603 202.345 310.299 201.676 310.003 201.025C309.53 199.982 309.076 198.983 308.015 198.886C307.002 198.792 306.552 197.419 306.981 196.497C307.411 195.576 308.363 195.034 309.259 194.554ZM277.546 307.64C279.824 309.829 282.333 311.762 284.837 313.69L294.951 321.48C291.836 324.224 288.789 327.045 285.813 329.939C278.727 325.74 272.402 320.26 267.236 313.845C270.064 310.899 272.778 307.845 275.372 304.691C275.779 305.854 276.657 306.786 277.546 307.64ZM212.517 286.57C207.192 290.731 201.686 295.11 198.757 301.2C198.184 302.39 197.712 303.642 197.24 304.893L197.24 304.893C196.236 307.551 195.236 310.2 193.29 312.223C192.428 311.969 192.088 310.953 191.878 310.079L189.852 301.65C189.578 300.513 189.303 299.344 189.459 298.185C189.613 297.031 190.182 295.979 190.741 294.958L196.687 284.092C196.819 283.85 196.957 283.602 197.169 283.425C197.695 282.989 198.473 283.128 199.138 283.291L212.517 286.57ZM299.03 323.896C302.662 327.63 307.175 330.5 312.097 332.206C313.017 331.34 314.796 331.817 315.159 333.028C313.465 335.225 311.606 337.295 309.602 339.213C308.707 340.07 307.273 339.889 306.066 339.612C300.168 338.258 294.486 335.964 289.302 332.842C288.955 332.633 288.565 332.337 288.599 331.933C288.622 331.662 288.836 331.451 289.036 331.266L296.315 324.562C297.078 323.86 298.307 323.152 299.03 323.896ZM391.964 230.246C391.896 231.067 391.781 231.984 391.138 232.5C391.133 226.048 389.533 219.602 386.52 213.896C385.973 212.861 385.381 211.85 384.722 210.882C384.637 210.758 384.551 210.634 384.464 210.509C383.799 209.549 383.119 208.567 382.958 207.421L390.757 215.569C391.475 216.319 392.213 217.101 392.552 218.082C392.879 219.027 392.801 220.059 392.719 221.056L391.964 230.246ZM383.002 219.891L381.236 217.665C379.292 215.215 376.908 212.541 373.781 212.537C371.967 212.535 370.298 213.464 368.724 214.367L366.278 215.77C365.61 216.153 364.924 216.551 364.453 217.16C363.095 218.918 364.086 221.485 365.37 223.298C366.258 224.552 367.323 225.756 368.736 226.36C370.565 227.14 372.668 226.795 374.584 226.266C377.208 225.543 379.744 224.499 382.117 223.165C382.876 222.738 383.715 222.113 383.676 221.243C383.654 220.731 383.321 220.293 383.002 219.891ZM367.571 221.609C367.267 221.125 366.953 220.609 366.948 220.037C366.938 218.92 368.053 218.17 369.034 217.635L372.52 215.733C373.047 215.446 373.596 215.152 374.195 215.111C374.794 215.071 375.46 215.359 375.662 215.925C376.256 217.595 377.721 218.926 379.439 219.359C379.996 219.499 380.175 220.269 379.912 220.779C379.649 221.289 379.111 221.587 378.597 221.842C376.759 222.754 374.838 223.498 372.866 224.06C372.075 224.286 371.238 224.483 370.438 224.293C369.13 223.982 368.286 222.748 367.571 221.609ZM342.771 238.82C339.313 239.223 338.656 245.457 340.262 248.782C340.592 249.466 341.109 250.17 341.862 250.266C343.151 250.429 343.863 248.84 344.148 247.573L344.155 247.543C344.53 245.873 346.208 238.42 342.771 238.82ZM324.94 246.998C325.631 245.385 325.861 243.578 325.597 241.843C325.475 241.037 325.232 240.219 324.693 239.607C324.155 238.995 323.265 238.639 322.498 238.915C321.803 239.165 321.367 239.844 321.038 240.505C319.878 242.837 319.416 245.511 319.725 248.097C319.869 249.3 321.385 249.958 322.536 249.577C323.686 249.197 324.462 248.112 324.94 246.998ZM335.132 243.307C335.669 242.862 336.346 243.67 336.564 244.332C337.28 246.509 337.872 248.725 338.338 250.968C338.632 252.386 338.875 253.859 338.562 255.272C338.12 257.265 336.605 258.886 334.847 259.924C333.09 260.962 331.09 261.5 329.117 262.025C328.596 262.164 327.941 262.263 327.605 261.842C327.319 261.484 327.46 260.924 327.785 260.602C328.104 260.286 328.548 260.14 328.976 260L329.001 259.992C332.076 258.982 335.361 257.159 336.077 254.003C336.47 252.268 335.991 250.524 335.511 248.774L335.511 248.774C335.073 247.179 334.633 245.579 334.849 243.972C334.882 243.728 334.942 243.465 335.132 243.307ZM313.661 236.208C312.851 235.087 313.499 233.383 314.674 232.651C315.848 231.92 317.331 231.93 318.703 232.107C320.341 232.318 321.952 232.735 323.487 233.344C323.814 233.473 324.165 233.638 324.309 233.959C324.576 234.553 323.887 235.204 323.235 235.203C322.711 235.203 322.236 234.95 321.767 234.701C321.653 234.641 321.54 234.58 321.426 234.524C318.863 233.253 315.466 233.99 313.661 236.208ZM343.193 235.822C344.41 235.619 345.702 235.901 346.725 236.591C347.152 236.88 347.765 236.394 347.767 235.878C347.77 235.362 347.385 234.928 346.979 234.609C346.106 233.922 345.018 233.511 343.909 233.448C343.193 233.408 342.4 233.546 341.939 234.096C341.478 234.645 341.617 235.676 342.308 235.867C342.555 235.935 342.814 235.889 343.068 235.844C343.11 235.836 343.151 235.829 343.193 235.822ZM328.08 267.459C328.423 267.266 328.875 267.604 328.926 267.994C328.977 268.384 328.755 268.757 328.5 269.058C327.223 270.564 325.023 271.028 323.08 270.675C321.137 270.322 319.396 269.277 317.757 268.175C316.986 267.657 316.227 267.122 315.48 266.57C314.706 265.998 313.881 265.299 313.788 264.34C313.695 263.382 314.923 262.417 315.623 263.077C317.346 264.699 319.107 266.347 321.25 267.351C323.393 268.355 326.02 268.622 328.08 267.459ZM291.197 275.141C284.02 259.542 281.026 242.041 282.609 224.943C282.636 224.651 282.673 224.338 282.866 224.117C283.138 223.805 283.697 223.818 283.954 224.142C283.863 233.548 283.775 243.01 285.31 252.29C286.846 261.57 290.106 270.751 296.058 278.034C296.236 278.251 296.417 278.468 296.598 278.685C297.621 279.913 298.654 281.151 299.235 282.632C295.364 282.557 292.815 278.658 291.197 275.141ZM298.236 204.699C298.103 204.555 297.949 204.428 297.77 204.351C297.252 204.128 296.645 204.357 296.192 204.692C294.386 206.029 294.378 209.156 296.179 210.501C297.057 209.753 297.959 208.976 298.473 207.943C298.988 206.91 299.019 205.546 298.236 204.699ZM313.811 221.172C315.758 222.752 317.977 223.997 320.34 224.835C327.967 227.54 336.538 225.842 343.898 222.478C345.022 221.964 346.457 222.235 347.317 223.123C342.591 226.491 336.802 228.342 330.999 228.34C329.719 228.34 328.441 228.253 327.166 228.141C324.558 227.913 321.93 227.579 319.476 226.666C317.022 225.752 314.731 224.207 313.342 221.987L313.811 221.172ZM396.862 323.96C396.787 324.22 396.995 324.468 397.187 324.659L400.085 327.534C400.401 326.707 400.047 325.744 399.439 325.101C398.831 324.457 398.01 324.065 397.209 323.688C397.053 323.695 396.906 323.809 396.862 323.96Z" fill="#00160A"/>
<path fill-rule="evenodd" clip-rule="evenodd" d="M587.175 212.1C590.725 213.331 594.069 210.129 597.129 207.948C601.862 204.573 608.038 203.297 613.722 204.519C614.664 204.722 615.652 205.026 616.273 205.764C616.841 206.439 617.002 207.359 617.094 208.236C617.653 213.605 616.311 219.154 613.358 223.673C611.922 225.871 610.122 227.829 608.838 230.12C607.553 232.41 606.82 235.209 607.735 237.67C613.175 252.305 610.911 269.567 601.88 282.304C592.849 295.041 577.308 302.889 561.697 302.597C553.714 302.448 545.892 300.317 538.37 297.637C535.088 296.468 531.48 295.185 528.222 296.42C522.278 298.673 516.019 300.095 509.685 300.634C508.113 300.767 506.471 300.836 505.02 300.215C502.849 299.286 501.539 296.932 501.289 294.584C501.04 292.236 501.689 289.885 502.509 287.671C504.983 280.991 512.662 270.555 517.31 268.152C516.934 260.04 516.975 251.833 518.729 243.904C520.483 235.975 524.062 228.282 529.933 222.671C532.358 220.354 535.133 218.426 538.04 216.752C552.742 208.287 571.146 206.545 587.175 212.1ZM564.786 211.442C553.543 211.705 542.599 216.221 533.811 223.237C531.23 225.297 528.805 227.586 526.868 230.26C525.342 232.368 524.134 234.694 523.125 237.093C517.139 251.331 518.506 268.436 526.676 281.543C526.855 281.828 527.059 282.131 527.377 282.242C527.769 282.379 528.191 282.18 528.558 281.984C554.219 268.309 577.061 249.369 595.25 226.683C595.683 226.142 596.139 225.515 596.046 224.829C595.975 224.314 595.608 223.896 595.249 223.52C587.488 215.382 576.029 211.178 564.786 211.442ZM580.504 296.433C592.692 290.711 601.95 279.403 605.909 266.534C606.805 263.619 607.45 260.607 607.513 257.558C607.566 254.995 607.208 252.443 606.852 249.904C606.334 246.222 605.817 242.541 605.3 238.86C605.163 237.884 604.222 236.596 603.535 237.302C584.465 256.928 563.641 274.85 541.392 290.783C540.652 291.313 539.837 291.968 539.797 292.878C539.751 293.931 540.755 294.695 541.668 295.221C553.333 301.948 568.315 302.155 580.504 296.433ZM505.322 294.935C506.208 296.357 508.13 296.648 509.806 296.695C518.595 296.938 527.291 294.362 535.155 290.429C543.019 286.495 550.136 281.234 557.053 275.805C566.278 268.564 575.228 260.976 583.951 253.136C594.753 243.428 605.367 233.129 612.459 220.454C613.831 218.003 615.097 215.314 614.883 212.513C614.668 209.712 612.434 206.884 609.626 206.993C603.669 207.226 597.811 209.516 593.277 213.387C592.375 214.156 593.012 215.795 594.122 216.212C595.232 216.628 596.469 216.214 597.554 215.735C598.639 215.257 599.768 214.697 600.947 214.828C602.747 215.028 604.026 216.871 604.133 218.679C604.24 220.487 603.44 222.225 602.498 223.772C600.755 226.635 598.478 229.131 596.177 231.568C575.723 253.237 552.129 271.937 526.361 286.901C524.041 288.248 521.693 289.57 519.195 290.552C517.885 291.067 516.384 291.48 515.105 290.891C513.009 289.926 512.841 286.983 513.47 284.762C514.414 281.428 516.454 278.414 519.199 276.298C518.679 274.834 518.159 273.369 517.64 271.904C510.864 276.232 506.109 283.593 504.95 291.549C504.783 292.697 504.708 293.95 505.322 294.935ZM524.586 284.883C524.634 284.732 524.546 284.575 524.462 284.441C523.587 283.05 522.711 281.659 521.836 280.269C521.44 279.639 520.674 278.927 520.08 279.374C517.941 280.985 516.409 283.385 515.849 286.004C515.738 286.521 515.674 287.098 515.955 287.546C516.479 288.378 517.73 288.193 518.656 287.861C520.629 287.154 522.53 286.245 524.319 285.152C524.429 285.085 524.547 285.007 524.586 284.883ZM600.727 218.683C600.64 218.322 600.209 218.165 599.838 218.149C598.71 218.1 597.532 219.027 597.603 220.153C597.675 221.28 599.349 221.989 600.049 221.103C600.26 220.836 600.349 220.495 600.434 220.165C600.517 219.838 600.6 219.511 600.684 219.183C600.725 219.019 600.767 218.848 600.727 218.683Z" fill="#00160A"/>
</svg>
